<svg width="67" height="84" viewBox="0 0 67 84" fill="none" xmlns="http://www.w3.org/2000/svg">
<path d="M33.4106 72.9199H64.3462" stroke="#6D5C41" stroke-width="3.91409" stroke-miterlimit="10" stroke-linecap="round"/>
<path d="M2.73818 80.883C3.36837 81.6355 4.15535 82.2413 5.04408 82.658C5.93282 83.0748 6.90185 83.2923 7.88342 83.2955H59.4782C60.4478 83.282 61.403 83.0595 62.2787 82.6432C63.1543 82.2268 63.9299 81.6264 64.5523 80.883C65.1919 80.1171 65.6709 79.2303 65.9607 78.2754C66.2504 77.3206 66.345 76.3172 66.2389 75.325L60.7023 24.0148C60.6602 23.619 60.4776 23.2514 60.1878 22.9785C59.898 22.7057 59.52 22.5457 59.1224 22.5275H47.8285V15.8451C47.8285 7.65395 41.4663 1 33.6452 1C25.8242 1 19.462 7.65395 19.462 15.8451V22.5275H8.19655C7.78588 22.5365 7.39304 22.697 7.09354 22.9781C6.79403 23.2592 6.60899 23.6411 6.57398 24.0504L1.03733 75.3605C0.938021 76.348 1.03735 77.3453 1.32946 78.2937C1.62156 79.2421 2.10055 80.1225 2.73818 80.883V80.883ZM22.7356 15.8379C22.7356 9.54694 27.6318 4.45151 33.6452 4.45151C39.6587 4.45151 44.5549 9.57541 44.5549 15.8379V22.5275H22.7356V15.8379ZM63.5275 74.7272L63.6912 76.2501C63.7548 76.7815 63.7072 77.3203 63.5517 77.8324C63.3961 78.3444 63.1358 78.8186 62.7874 79.2248C62.4544 79.6246 62.0377 79.9466 61.5668 80.1679C61.0959 80.3892 60.5821 80.5045 60.0618 80.5058H7.2287C6.70892 80.5054 6.19553 80.3912 5.72463 80.1711C5.25374 79.951 4.83678 79.6305 4.50308 79.2319C4.15734 78.823 3.89985 78.3471 3.74677 77.834C3.59369 77.3208 3.54832 76.7816 3.61351 76.2501L9.09323 25.2745H19.1204V37.0665C19.1055 37.2958 19.1377 37.5257 19.2152 37.742C19.2926 37.9583 19.4137 38.1564 19.5707 38.3241C19.7278 38.4918 19.9177 38.6254 20.1285 38.7168C20.3393 38.8082 20.5666 38.8553 20.7964 38.8553C21.0261 38.8553 21.2534 38.8082 21.4642 38.7168C21.6751 38.6254 21.8649 38.4918 22.022 38.3241C22.1791 38.1564 22.3001 37.9583 22.3775 37.742C22.455 37.5257 22.4872 37.2958 22.4723 37.0665V25.2745H44.8111V37.0665C44.8111 37.512 44.988 37.9392 45.303 38.2541C45.6179 38.5691 46.0451 38.746 46.4906 38.746C46.936 38.746 47.3632 38.5691 47.6781 38.2541C47.9931 37.9392 48.1701 37.512 48.1701 37.0665V25.2745H58.1972L63.1788 71.2187L63.5275 74.7272Z" fill="#3B3B3B" stroke="#3B3B3B" stroke-width="0.355826" stroke-miterlimit="10"/>
<path d="M46.7893 64.7287C46.1621 65.3529 45.4153 65.844 44.5936 66.1724C43.7719 66.5008 42.8924 66.6598 42.0078 66.6398C41.1231 66.6199 40.2516 66.4214 39.4456 66.0563C38.6396 65.6912 37.9156 65.1671 37.3172 64.5152L35.0186 62.0102C34.2122 61.1225 33.6489 60.0414 33.3833 58.8718C33.1177 57.7022 33.1588 56.4839 33.5027 55.3349L37.4595 59.6048L38.6337 60.8431L39.7866 62.0814C40.0856 62.4068 40.4471 62.6686 40.8495 62.8511C41.2519 63.0337 41.6869 63.1332 42.1287 63.1439C42.5704 63.1545 43.0098 63.076 43.4205 62.913C43.8312 62.75 44.2049 62.5059 44.5191 62.1953C44.8411 61.8866 45.0976 61.5163 45.2735 61.1064C45.4542 60.6928 45.5533 60.2482 45.5652 59.797C45.5702 59.3479 45.493 58.9017 45.3375 58.4804C45.176 58.0606 44.9343 57.6763 44.6259 57.3489L43.4659 56.1035L38.3277 50.574C39.4703 50.2946 40.6668 50.3261 41.7931 50.6652C42.9193 51.0044 43.9343 51.6387 44.7326 52.5026L47.0241 54.9791C48.255 56.3183 48.9184 58.0829 48.8745 59.9013C48.8307 61.7198 48.0832 63.4503 46.7893 64.7287V64.7287ZM30.5209 49.7058L38.6266 58.4377C38.7732 58.6033 38.9523 58.7369 39.1529 58.8301C39.3534 58.9233 39.571 58.9742 39.792 58.9795C40.0131 58.9848 40.2329 58.9446 40.4376 58.8611C40.6424 58.7777 40.8278 58.653 40.9822 58.4947C41.2971 58.1682 41.4778 57.7352 41.4884 57.2817C41.4989 56.8282 41.3386 56.3873 41.0391 56.0466L32.9334 47.3431C32.7868 47.1775 32.6077 47.0439 32.4072 46.9507C32.2067 46.8575 31.9891 46.8066 31.768 46.8013C31.547 46.796 31.3272 46.8362 31.1224 46.9197C30.9176 47.0031 30.7322 47.1278 30.5778 47.2861C30.2694 47.6103 30.0927 48.0376 30.0822 48.485C30.0716 48.9323 30.2281 49.3675 30.5209 49.7058V49.7058ZM26.9627 48.4106L33.275 55.1784C32.1359 55.4698 30.9393 55.4477 29.8117 55.1144C28.6842 54.7812 27.6678 54.1492 26.8701 53.2854L24.543 50.8017C23.3136 49.4562 22.6534 47.6866 22.7012 45.8646C22.7489 44.0425 23.5009 42.31 24.7992 41.0307C25.4269 40.4065 26.1743 39.9157 26.9966 39.588C27.8188 39.2602 28.6989 39.1022 29.5839 39.1235C30.4688 39.1448 31.3403 39.3449 32.1458 39.7118C32.9514 40.0787 33.6744 40.6048 34.2713 41.2584L36.57 43.7635C37.3772 44.6468 37.9454 45.7216 38.2206 46.8861C38.4958 48.0507 38.469 49.2662 38.1427 50.4174L31.8375 43.6496C31.5387 43.3214 31.176 43.0577 30.7716 42.8746C30.3673 42.6916 29.9298 42.593 29.4861 42.585C29.0423 42.577 28.6016 42.6598 28.1909 42.8281C27.7802 42.9965 27.4083 43.247 27.0979 43.5642C26.4599 44.2031 26.0928 45.0633 26.0729 45.966C26.053 46.8686 26.3819 47.7442 26.9911 48.4106H26.9627Z" fill="#6D5C41"/>
<path d="M21.2771 74.2222H25.3477C25.8026 74.2222 26.2389 74.0415 26.5605 73.7198C26.8821 73.3982 27.0628 72.9619 27.0628 72.5071C27.0628 72.0522 26.8821 71.616 26.5605 71.2943C26.2389 70.9727 25.8026 70.792 25.3477 70.792H21.2771C20.8222 70.792 20.386 70.9727 20.0643 71.2943C19.7427 71.616 19.562 72.0522 19.562 72.5071C19.562 72.9619 19.7427 73.3982 20.0643 73.7198C20.386 74.0415 20.8222 74.2222 21.2771 74.2222Z" fill="#6D5C41"/>
</svg>
