<svg width="214" height="61" viewBox="0 0 214 61" fill="none" xmlns="http://www.w3.org/2000/svg">
<path d="M59.627 21.6905C59.627 21.3678 59.627 21.1526 59.7346 21.045C59.8422 20.8299 59.9497 20.7223 60.1649 20.6147C60.3801 20.5071 60.7028 20.5071 61.0255 20.3996C61.4558 20.3996 61.8861 20.292 62.5316 20.292C63.177 20.292 63.7149 20.292 64.0377 20.3996C64.468 20.3996 64.6831 20.5071 64.8983 20.6147C65.1134 20.7223 65.221 20.8299 65.3286 21.045C65.4362 21.2602 65.4362 21.4753 65.4362 21.6905L64.7907 44.4968H68.9862C69.3089 44.4968 69.5241 44.4968 69.6317 44.6043C69.7392 44.6043 69.9544 44.7119 69.9544 44.8195C70.062 44.9271 70.062 45.0347 70.062 45.2498C70.062 45.465 70.062 45.6801 70.062 46.0028C70.062 46.3256 70.062 46.5407 70.062 46.7559C70.062 46.971 70.062 47.0786 69.9544 47.1862C69.8468 47.2938 69.7392 47.4013 69.6317 47.4013C69.5241 47.4013 69.3089 47.5089 68.9862 47.5089H62.5316C61.9937 47.5089 61.671 47.5089 61.3482 47.5089C61.0255 47.5089 60.8104 47.4013 60.7028 47.4013C60.5952 47.2938 60.4876 47.1862 60.3801 47.0786C60.3801 46.971 60.2725 46.7559 60.2725 46.4331L59.627 21.6905ZM77.0544 39.0104L71.2453 22.6587C71.1377 22.336 71.0302 22.1208 71.0302 21.9056C70.9226 21.6905 70.9226 21.4753 70.9226 21.2602C70.9226 21.045 70.9226 20.9375 71.0302 20.8299C71.1377 20.7223 71.2453 20.6147 71.4605 20.5071C71.6756 20.3996 71.9983 20.3996 72.4287 20.3996C72.859 20.3996 73.2893 20.3996 73.9347 20.3996C74.4726 20.3996 75.0105 20.3996 75.3332 20.3996C75.656 20.3996 75.9787 20.5071 76.1938 20.6147C76.409 20.7223 76.5166 20.8299 76.6241 21.045C76.7317 21.2602 76.8393 21.4753 76.8393 21.7981L79.3136 34.3845H79.6363L82.003 21.7981C82.1106 21.4753 82.1106 21.1526 82.2181 21.045C82.3257 20.8299 82.4333 20.7223 82.6484 20.6147C82.8636 20.5071 83.0787 20.5071 83.5091 20.5071C83.8318 20.5071 84.3697 20.5071 84.9076 20.5071C85.4454 20.5071 85.9833 20.5071 86.4136 20.5071C86.8439 20.5071 87.0591 20.6147 87.3818 20.6147C87.597 20.7223 87.8121 20.7223 87.8121 20.9375C87.9197 21.045 87.9197 21.2602 87.9197 21.3678C87.9197 21.5829 87.9197 21.7981 87.8121 22.0132C87.7045 22.2284 87.7046 22.5511 87.597 22.7663L81.8954 39.2255L81.6803 46.5407C81.6803 46.7559 81.6803 46.971 81.5727 47.1862C81.5727 47.2938 81.4651 47.4013 81.2499 47.5089C81.1424 47.6165 80.9272 47.6165 80.6045 47.6165C80.2818 47.6165 79.959 47.6165 79.4211 47.6165C78.8833 47.6165 78.5605 47.6165 78.2378 47.6165C77.9151 47.6165 77.6999 47.5089 77.5923 47.5089C77.4848 47.4013 77.3772 47.2938 77.2696 47.1862C77.2696 47.0786 77.162 46.8635 77.162 46.5407L77.0544 39.0104ZM90.1788 21.6905C90.1788 21.3678 90.1788 21.1526 90.2864 21.045C90.2864 20.8299 90.5016 20.7223 90.6091 20.6147C90.8243 20.5071 91.0394 20.5071 91.3622 20.3996C91.6849 20.3996 92.1152 20.292 92.7607 20.292C93.191 20.292 93.5137 20.292 93.8364 20.292C94.1592 20.292 94.3743 20.3996 94.5895 20.3996C94.8046 20.3996 94.9122 20.5071 95.0198 20.6147C95.1273 20.7223 95.2349 20.8299 95.2349 21.045L101.259 37.3967H101.367L100.506 21.6905C100.506 21.3678 100.506 21.1526 100.614 21.045C100.721 20.8299 100.829 20.7223 100.936 20.6147C101.152 20.5071 101.367 20.5071 101.69 20.3996C102.012 20.3996 102.55 20.292 103.088 20.292C103.733 20.292 104.271 20.292 104.594 20.3996C105.024 20.3996 105.24 20.5071 105.455 20.6147C105.67 20.7223 105.777 20.8299 105.885 21.045C105.993 21.2602 105.993 21.4753 105.993 21.6905L105.24 45.8953C105.24 46.1104 105.24 46.3256 105.132 46.5407C105.132 46.7559 105.024 46.8635 104.917 47.0786C104.809 47.1862 104.594 47.2938 104.379 47.4013C104.164 47.5089 103.841 47.5089 103.411 47.5089C102.98 47.5089 102.658 47.5089 102.443 47.4013C102.227 47.4013 102.012 47.1862 101.905 46.971L95.3425 30.2966H95.1273L95.0198 46.3256C95.0198 46.5407 95.0198 46.7559 94.9122 46.971C94.9122 47.0786 94.8046 47.1862 94.697 47.2938C94.5895 47.4013 94.3743 47.4013 94.1592 47.4013C93.944 47.4013 93.6213 47.4013 93.191 47.4013C92.7607 47.4013 92.3304 47.4013 92.0076 47.4013C91.6849 47.4013 91.4697 47.2938 91.3622 47.2938C91.2546 47.1862 91.147 47.0786 91.0394 46.971C91.0394 46.8635 90.9319 46.6483 90.9319 46.3256L90.1788 21.6905ZM116.212 35.9982L119.117 21.7981C119.225 21.4753 119.225 21.2602 119.332 21.045C119.44 20.8299 119.547 20.7223 119.762 20.6147C119.978 20.5071 120.3 20.3996 120.623 20.3996C120.946 20.3996 121.484 20.3996 122.022 20.3996C122.99 20.3996 123.635 20.5071 124.066 20.6147C124.496 20.7223 124.711 20.9375 124.711 21.3678C124.711 21.4753 124.711 21.5829 124.711 21.6905C124.711 21.7981 124.711 21.9056 124.603 22.0132C124.603 22.1208 124.603 22.2284 124.496 22.336C124.496 22.4435 124.388 22.5511 124.388 22.6587L120.408 35.8906L124.066 45.1422C124.173 45.5725 124.281 45.8953 124.388 46.1104C124.496 46.3256 124.496 46.5407 124.496 46.7559C124.496 46.8635 124.496 46.971 124.388 47.0786C124.388 47.1862 124.281 47.1862 124.066 47.2938C123.958 47.2938 123.743 47.4013 123.42 47.4013C123.205 47.4013 122.775 47.4013 122.344 47.4013C122.022 47.4013 121.699 47.4013 121.376 47.4013C121.161 47.4013 120.946 47.2938 120.838 47.1862C120.731 47.0786 120.623 46.971 120.515 46.7559C120.408 46.5407 120.3 46.3256 120.193 46.1104L116.212 35.9982ZM109.758 21.6905C109.758 21.3678 109.758 21.1526 109.865 21.045C109.973 20.8299 110.081 20.7223 110.296 20.6147C110.511 20.5071 110.834 20.5071 111.156 20.3996C111.587 20.3996 112.017 20.292 112.662 20.292C113.308 20.292 113.846 20.292 114.168 20.3996C114.599 20.3996 114.814 20.5071 115.029 20.6147C115.244 20.7223 115.352 20.8299 115.459 21.045C115.567 21.2602 115.567 21.4753 115.567 21.6905L114.814 46.4331C114.814 46.6483 114.814 46.8635 114.706 47.0786C114.706 47.1862 114.599 47.2938 114.384 47.4013C114.276 47.5089 114.061 47.5089 113.738 47.5089C113.415 47.5089 113.093 47.5089 112.555 47.5089C112.017 47.5089 111.694 47.5089 111.371 47.5089C111.049 47.5089 110.834 47.4013 110.726 47.4013C110.618 47.4013 110.511 47.1862 110.403 47.0786C110.403 46.971 110.296 46.7559 110.296 46.4331L109.758 21.6905Z" fill="#6D5C41"/>
<path d="M136.115 23.7333H133.21C132.887 23.7333 132.672 23.7333 132.565 23.6257C132.457 23.6257 132.349 23.5182 132.242 23.4106C132.134 23.303 132.134 23.0879 132.134 22.9803C132.134 22.7651 132.134 22.55 132.134 22.2272C132.134 21.9045 132.134 21.6894 132.134 21.4742C132.134 21.2591 132.242 21.1515 132.242 21.0439C132.349 20.9363 132.457 20.8287 132.565 20.8287C132.672 20.8287 132.887 20.7212 133.21 20.7212H138.589H138.912H144.721C145.044 20.7212 145.259 20.7212 145.366 20.8287C145.474 20.8287 145.689 20.9363 145.689 21.0439C145.797 21.1515 145.797 21.3666 145.797 21.4742C145.797 21.6894 145.797 21.9045 145.797 22.2272C145.797 22.55 145.797 22.7651 145.797 22.9803C145.797 23.1954 145.797 23.303 145.689 23.4106C145.581 23.5182 145.474 23.6257 145.366 23.6257C145.259 23.6257 145.044 23.7333 144.721 23.7333H141.816L141.171 46.3244C141.171 46.5396 141.171 46.7547 141.063 46.8623C141.063 46.9699 140.956 47.0775 140.74 47.1851C140.633 47.2926 140.418 47.2926 140.095 47.2926C139.772 47.2926 139.45 47.2926 138.912 47.2926C138.374 47.2926 138.051 47.2926 137.728 47.2926C137.406 47.2926 137.19 47.1851 137.083 47.1851C136.975 47.0775 136.868 46.9699 136.76 46.8623C136.76 46.7547 136.653 46.5396 136.653 46.3244L136.115 23.7333ZM149.347 25.7773C149.347 25.0242 149.454 24.2712 149.777 23.6257C150.1 22.9803 150.53 22.4424 151.068 21.9045C151.713 21.4742 152.466 21.0439 153.435 20.8287C154.403 20.6136 155.586 20.3984 156.985 20.3984C158.383 20.3984 159.459 20.506 160.427 20.8287C161.395 21.0439 162.256 21.4742 162.794 21.9045C163.439 22.3348 163.869 22.8727 164.192 23.6257C164.515 24.2712 164.623 25.0242 164.623 25.7773L164.192 42.5593C164.192 43.2047 163.977 43.8502 163.762 44.4956C163.439 45.1411 163.009 45.679 162.471 46.1093C161.933 46.5396 161.18 46.9699 160.212 47.1851C159.351 47.4002 158.275 47.6154 156.985 47.6154C155.694 47.6154 154.618 47.5078 153.757 47.1851C152.897 46.9699 152.144 46.5396 151.498 46.1093C150.96 45.679 150.53 45.1411 150.207 44.4956C149.885 43.8502 149.777 43.2047 149.777 42.5593L149.347 25.7773ZM154.403 42.6668C154.403 43.0971 154.403 43.5274 154.51 43.7426C154.618 44.0653 154.725 44.2805 154.941 44.4956C155.156 44.7108 155.371 44.8184 155.694 44.8184C156.016 44.9259 156.447 44.9259 156.877 44.9259C157.307 44.9259 157.738 44.9259 158.06 44.8184C158.383 44.7108 158.598 44.6032 158.813 44.4956C159.029 44.2805 159.136 44.0653 159.244 43.7426C159.351 43.4199 159.351 43.0971 159.351 42.6668L158.921 25.2394C158.921 24.8091 158.813 24.3788 158.813 24.1636C158.706 23.8409 158.598 23.6257 158.383 23.5182C158.168 23.4106 157.953 23.303 157.738 23.1954C157.522 23.1954 157.2 23.0879 156.877 23.0879C156.554 23.0879 156.232 23.0879 156.016 23.1954C155.801 23.1954 155.586 23.303 155.371 23.5182C155.156 23.6257 155.048 23.8409 154.941 24.1636C154.833 24.4864 154.833 24.8091 154.833 25.2394L154.403 42.6668ZM168.388 21.9045C168.28 21.6894 168.28 21.4742 168.388 21.2591C168.495 21.0439 168.603 20.9363 168.818 20.8287C169.033 20.7212 169.356 20.6136 169.786 20.6136C170.217 20.6136 170.754 20.506 171.4 20.506C172.045 20.506 172.583 20.506 173.014 20.6136C173.444 20.6136 173.659 20.7212 173.874 20.8287C174.089 20.9363 174.197 21.0439 174.304 21.2591C174.412 21.4742 174.412 21.6894 174.412 21.9045L175.38 42.7744H175.811L178.93 21.9045C178.93 21.6894 179.038 21.4742 179.038 21.2591C179.145 21.0439 179.253 20.9363 179.361 20.8287C179.576 20.7212 179.791 20.7212 180.114 20.6136C180.436 20.6136 180.867 20.506 181.404 20.506C181.942 20.506 182.48 20.506 182.803 20.6136C183.126 20.6136 183.448 20.7212 183.556 20.8287C183.771 20.9363 183.879 21.0439 183.879 21.2591C183.986 21.4742 183.986 21.6894 184.094 21.9045L187.214 42.7744H187.644L188.612 21.9045C188.612 21.6894 188.612 21.4742 188.72 21.2591C188.827 21.0439 188.935 20.9363 189.15 20.8287C189.365 20.7212 189.688 20.7212 190.011 20.6136C190.441 20.6136 190.871 20.506 191.517 20.506C192.162 20.506 192.592 20.506 193.023 20.6136C193.453 20.6136 193.776 20.7212 193.991 20.8287C194.206 20.9363 194.314 21.0439 194.421 21.2591C194.529 21.4742 194.529 21.6894 194.421 21.9045L190.226 46.2169C190.226 46.432 190.118 46.6472 190.011 46.7547C189.903 46.8623 189.795 46.9699 189.58 47.0775C189.365 47.1851 189.15 47.1851 188.827 47.1851C188.505 47.1851 188.182 47.1851 187.644 47.1851C186.998 47.1851 186.568 47.1851 186.138 47.1851C185.708 47.1851 185.385 47.0775 185.17 47.0775C184.955 46.9699 184.739 46.8623 184.632 46.7547C184.524 46.6472 184.417 46.432 184.417 46.2169L181.404 28.4667H181.082L178.07 46.2169C178.07 46.432 177.962 46.6472 177.854 46.7547C177.747 46.8623 177.532 46.9699 177.317 47.0775C177.101 47.1851 176.779 47.1851 176.456 47.1851C176.133 47.1851 175.595 47.1851 175.057 47.1851C174.52 47.1851 174.089 47.1851 173.767 47.1851C173.444 47.1851 173.229 47.0775 173.014 47.0775C172.798 46.9699 172.691 46.8623 172.583 46.7547C172.476 46.6472 172.368 46.432 172.368 46.2169L168.388 21.9045ZM198.294 21.9045C198.294 21.5818 198.294 21.3666 198.402 21.2591C198.402 21.0439 198.617 20.9363 198.724 20.8287C198.94 20.7212 199.155 20.7212 199.477 20.6136C199.8 20.6136 200.23 20.506 200.768 20.506C201.199 20.506 201.521 20.506 201.844 20.506C202.167 20.506 202.382 20.6136 202.597 20.6136C202.812 20.6136 202.92 20.7212 203.027 20.8287C203.135 20.9363 203.243 21.0439 203.243 21.2591L209.159 37.288H209.267L208.514 21.7969C208.514 21.4742 208.514 21.2591 208.621 21.1515C208.729 20.9363 208.837 20.8287 208.944 20.7212C209.159 20.6136 209.374 20.6136 209.697 20.506C210.02 20.506 210.45 20.3984 211.096 20.3984C211.741 20.3984 212.171 20.3984 212.602 20.506C213.032 20.506 213.247 20.6136 213.462 20.7212C213.678 20.8287 213.785 20.9363 213.893 21.1515C214 21.3666 214 21.5818 214 21.7969L213.14 45.7866C213.14 46.0017 213.14 46.2169 213.032 46.432C213.032 46.6472 212.924 46.7547 212.817 46.9699C212.709 47.0775 212.494 47.1851 212.279 47.2926C212.064 47.4002 211.741 47.4002 211.311 47.4002C210.881 47.4002 210.558 47.4002 210.343 47.2926C210.128 47.2926 209.912 47.0775 209.805 46.8623L203.458 30.5107H203.243L203.135 46.2169C203.135 46.432 203.135 46.6472 203.027 46.7547C203.027 46.8623 202.92 46.9699 202.812 47.0775C202.705 47.1851 202.49 47.1851 202.274 47.1851C202.059 47.1851 201.737 47.1851 201.306 47.1851C200.876 47.1851 200.446 47.1851 200.123 47.1851C199.8 47.1851 199.585 47.0775 199.477 47.0775C199.37 46.9699 199.262 46.8623 199.155 46.7547C199.155 46.6472 199.047 46.432 199.047 46.2169L198.294 21.9045Z" fill="#3B3B3B"/>
<path d="M61.5651 60.0943C61.1348 60.0943 60.812 59.9867 60.5969 59.8792C60.2742 59.7716 60.059 59.5564 59.9514 59.3413C59.7363 59.1261 59.7363 58.8034 59.7363 58.4807H60.7045C60.7045 58.6958 60.812 58.911 60.9196 59.1261C61.1348 59.3413 61.3499 59.3413 61.5651 59.3413C61.7802 59.3413 61.9954 59.2337 62.2105 59.1261C62.3181 59.0186 62.4257 58.8034 62.4257 58.5883C62.4257 58.3731 62.3181 58.1579 62.2105 58.0504C62.103 57.9428 61.8878 57.8352 61.6727 57.7276C61.4575 57.6201 61.2423 57.6201 61.0272 57.5125C60.5969 57.4049 60.2742 57.1898 60.059 56.9746C59.8438 56.7594 59.7363 56.4367 59.7363 56.114C59.7363 55.7913 59.8438 55.5761 59.9514 55.3609C60.059 55.1458 60.2742 54.9306 60.5969 54.8231C60.812 54.7155 61.1348 54.6079 61.4575 54.6079C61.7802 54.6079 62.103 54.7155 62.3181 54.8231C62.5333 54.9306 62.7484 55.1458 62.9636 55.3609C63.0711 55.5761 63.1787 55.8988 63.1787 56.114H62.2105C62.2105 55.8988 62.103 55.7913 61.9954 55.6837C61.8878 55.5761 61.6727 55.4685 61.4575 55.4685C61.2423 55.4685 61.0272 55.4685 60.9196 55.5761C60.812 55.6837 60.7045 55.7913 60.7045 56.0064C60.7045 56.2216 60.812 56.3291 60.9196 56.4367C61.0272 56.5443 61.1348 56.6519 61.3499 56.6519C61.5651 56.7594 61.7802 56.7594 61.9954 56.867C62.2105 56.9746 62.5333 57.0822 62.7484 57.1898C62.9636 57.2973 63.1787 57.5125 63.2863 57.6201C63.3939 57.8352 63.5015 58.0504 63.5015 58.3731C63.5015 58.6958 63.3939 58.911 63.2863 59.1261C63.1787 59.3413 62.9636 59.5564 62.6408 59.664C62.3181 60.0943 61.9954 60.0943 61.5651 60.0943ZM69.3106 60.0943C68.7727 60.0943 68.3424 59.9867 67.9121 59.7716C67.4818 59.5564 67.2666 59.2337 67.0515 58.8034C66.8363 58.3731 66.7288 57.9428 66.7288 57.4049C66.7288 56.867 66.8363 56.4367 67.0515 56.0064C67.2666 55.5761 67.5894 55.2534 67.9121 55.0382C68.3424 54.8231 68.7727 54.7155 69.3106 54.7155C69.8485 54.7155 70.2788 54.8231 70.7091 55.0382C71.1394 55.2534 71.3546 55.5761 71.5697 56.0064C71.7849 56.4367 71.8924 56.867 71.8924 57.4049C71.8924 57.9428 71.7849 58.3731 71.5697 58.8034C71.3546 59.2337 71.0318 59.5564 70.7091 59.7716C70.3864 59.9867 69.8485 60.0943 69.3106 60.0943ZM69.3106 59.2337C69.8485 59.2337 70.1712 59.0186 70.4939 58.6958C70.8167 58.3731 70.9243 57.9428 70.9243 57.4049C70.9243 56.867 70.8167 56.4367 70.4939 56.114C70.1712 55.7913 69.8485 55.5761 69.3106 55.5761C68.7727 55.5761 68.45 55.7913 68.1273 56.114C67.8045 56.4367 67.6969 56.867 67.6969 57.4049C67.6969 57.9428 67.8045 58.3731 68.1273 58.6958C68.45 59.1261 68.8803 59.2337 69.3106 59.2337ZM77.8092 60.0943C77.2713 60.0943 76.841 59.9867 76.4107 59.7716C76.0879 59.5564 75.7652 59.2337 75.5501 58.8034C75.3349 58.3731 75.2273 57.9428 75.2273 57.4049C75.2273 56.867 75.3349 56.4367 75.5501 56.0064C75.7652 55.5761 76.0879 55.2534 76.4107 55.0382C76.7334 54.8231 77.2713 54.7155 77.8092 54.7155C78.4546 54.7155 78.9925 54.8231 79.3152 55.1458C79.7456 55.4685 79.9607 55.8988 80.0683 56.4367H78.9925C78.8849 56.114 78.7774 55.8988 78.5622 55.7913C78.347 55.5761 78.0243 55.5761 77.7016 55.5761C77.2713 55.5761 76.841 55.7913 76.6258 56.114C76.3031 56.4367 76.1955 56.867 76.1955 57.4049C76.1955 57.9428 76.3031 58.3731 76.6258 58.6958C76.9486 59.0186 77.2713 59.1261 77.7016 59.1261C78.0243 59.1261 78.347 59.0186 78.5622 58.911C78.7774 58.8034 78.8849 58.5882 78.9925 58.2655H80.0683C79.9607 58.8034 79.7456 59.2337 79.3152 59.5564C78.9925 59.9867 78.4546 60.0943 77.8092 60.0943ZM83.6183 60.0943V54.9306H84.5865V60.0943H83.6183ZM87.9214 60.0943L89.8578 54.9306H90.9335L92.8699 60.0943H91.9017L91.4714 58.911H89.4275L88.9972 60.0943H87.9214ZM89.535 58.0504H91.0411L90.2881 55.8988L89.535 58.0504ZM96.0972 60.0943V54.9306H97.0654V59.3413H99.4321V60.0943H96.0972ZM107.285 60.0943V54.9306H109.329C109.867 54.9306 110.297 55.0382 110.513 55.3609C110.835 55.5761 110.943 55.8988 110.943 56.3291C110.943 56.6519 110.835 56.867 110.728 57.0822C110.513 57.2973 110.297 57.4049 110.082 57.5125C110.405 57.6201 110.62 57.7276 110.835 57.9428C111.05 58.1579 111.158 58.4807 111.158 58.8034C111.158 59.2337 111.05 59.5564 110.728 59.7716C110.405 59.9867 109.975 60.2019 109.437 60.2019H107.285V60.0943ZM108.253 57.0822H109.222C109.437 57.0822 109.652 56.9746 109.867 56.867C110.082 56.7594 110.082 56.5443 110.082 56.3291C110.082 56.114 109.975 55.8988 109.867 55.7913C109.759 55.6837 109.544 55.5761 109.222 55.5761H108.253V57.0822ZM108.253 59.2337H109.329C109.652 59.2337 109.867 59.1261 109.975 59.0186C110.082 58.911 110.19 58.6958 110.19 58.4807C110.19 58.2655 110.082 58.0504 109.975 57.9428C109.867 57.8352 109.544 57.7276 109.329 57.7276H108.253V59.2337ZM116.752 60.0943C116.322 60.0943 115.999 59.9867 115.676 59.8792C115.353 59.7716 115.138 59.4489 114.923 59.2337C114.708 58.911 114.708 58.5883 114.708 58.0504V54.8231H115.676V58.0504C115.676 58.4807 115.784 58.8034 115.999 58.911C116.214 59.1261 116.429 59.2337 116.86 59.2337C117.182 59.2337 117.505 59.1261 117.72 58.911C117.935 58.6958 118.043 58.3731 118.043 58.0504V54.8231H119.011V58.0504C119.011 58.4807 118.903 58.911 118.688 59.2337C118.473 59.5564 118.258 59.7716 117.935 59.8792C117.397 60.0943 117.075 60.0943 116.752 60.0943ZM123.744 60.0943V58.2655L122.023 54.9306H123.099L124.282 57.2973L125.466 54.9306H126.541L124.82 58.2655V60.0943H123.744ZM129.769 60.0943V54.9306H130.737V60.0943H129.769ZM134.395 60.0943V54.9306H135.363L137.837 58.5883V54.9306H138.805V60.0943H137.837L135.363 56.4367V60.0943H134.395ZM144.722 60.0943C144.184 60.0943 143.754 59.9867 143.431 59.7716C143.108 59.5564 142.786 59.2337 142.57 58.8034C142.355 58.3731 142.248 57.9428 142.248 57.4049C142.248 56.867 142.355 56.4367 142.57 56.0064C142.786 55.5761 143.108 55.2534 143.431 55.0382C143.861 54.8231 144.292 54.7155 144.829 54.7155C145.475 54.7155 145.905 54.8231 146.336 55.1458C146.766 55.4685 146.981 55.7913 147.089 56.3291H146.013C145.905 56.114 145.798 55.8988 145.583 55.7913C145.367 55.6837 145.152 55.5761 144.829 55.5761C144.292 55.5761 143.861 55.7913 143.646 56.114C143.323 56.4367 143.216 56.867 143.216 57.5125C143.216 58.0504 143.323 58.4807 143.646 58.8034C143.969 59.1261 144.292 59.2337 144.829 59.2337C145.26 59.2337 145.69 59.1261 145.905 58.8034C146.12 58.5882 146.336 58.1579 146.336 57.8352H145.045V57.0822H147.304V59.9867H146.443L146.336 59.3413C146.12 59.5564 145.905 59.7716 145.69 59.8792C145.367 60.0943 145.045 60.0943 144.722 60.0943ZM156.878 60.0943C156.448 60.0943 156.125 59.9867 155.91 59.8792C155.587 59.7716 155.372 59.5564 155.264 59.3413C155.157 59.1261 155.049 58.8034 155.049 58.4807C155.049 58.1579 155.157 57.8352 155.372 57.6201C155.587 57.2973 155.802 57.0822 156.233 56.9746C156.125 56.7594 156.017 56.6519 155.91 56.4367C155.802 56.3291 155.802 56.114 155.802 55.8988C155.802 55.6837 155.91 55.4685 156.017 55.2534C156.125 55.0382 156.34 54.9306 156.555 54.8231C156.771 54.7155 157.093 54.6079 157.308 54.6079C157.631 54.6079 157.846 54.7155 158.061 54.8231C158.277 54.9306 158.492 55.0382 158.599 55.2534C158.707 55.4685 158.814 55.6837 158.707 55.8988H157.846C157.846 55.6837 157.739 55.5761 157.631 55.4685C157.524 55.3609 157.416 55.3609 157.201 55.3609C156.986 55.3609 156.878 55.3609 156.771 55.4685C156.663 55.5761 156.663 55.6837 156.663 55.7913C156.663 55.8988 156.663 56.0064 156.771 56.2216C156.878 56.3291 156.986 56.5443 157.093 56.6519L158.599 58.0504C158.707 57.8352 158.814 57.7276 158.922 57.5125L159.137 57.1898H160.105L159.89 57.7276C159.675 58.1579 159.46 58.4807 159.245 58.6958L160.428 59.8792H159.245L158.707 59.3413C158.492 59.5564 158.169 59.7716 157.846 59.8792C157.631 60.0943 157.308 60.0943 156.878 60.0943ZM156.017 58.4807C156.017 58.6958 156.125 58.911 156.233 59.1261C156.448 59.3413 156.663 59.3413 156.986 59.3413C157.416 59.3413 157.739 59.2337 158.061 58.911L156.663 57.5125C156.448 57.6201 156.233 57.7276 156.125 57.9428C156.017 58.0504 156.017 58.2655 156.017 58.4807ZM169.895 60.0943C169.465 60.0943 169.142 59.9867 168.927 59.8792C168.604 59.7716 168.389 59.5564 168.281 59.3413C168.066 59.1261 168.066 58.8034 168.066 58.4807H169.034C169.034 58.6958 169.142 58.911 169.249 59.1261C169.465 59.3413 169.68 59.3413 169.895 59.3413C170.11 59.3413 170.325 59.2337 170.54 59.1261C170.648 59.0186 170.755 58.8034 170.755 58.5883C170.755 58.3731 170.648 58.1579 170.54 58.0504C170.433 57.9428 170.218 57.8352 170.002 57.7276C169.787 57.6201 169.572 57.6201 169.357 57.5125C168.927 57.4049 168.604 57.1898 168.389 56.9746C168.174 56.7594 168.066 56.4367 168.066 56.114C168.066 55.7913 168.174 55.5761 168.281 55.3609C168.389 55.1458 168.604 54.9306 168.927 54.8231C169.142 54.7155 169.465 54.6079 169.787 54.6079C170.11 54.6079 170.433 54.7155 170.648 54.8231C170.863 54.9306 171.078 55.1458 171.293 55.3609C171.401 55.5761 171.509 55.8988 171.509 56.114H170.54C170.54 55.8988 170.433 55.7913 170.325 55.6837C170.218 55.5761 170.002 55.4685 169.787 55.4685C169.572 55.4685 169.357 55.4685 169.249 55.5761C169.142 55.6837 169.034 55.7913 169.034 56.0064C169.034 56.2216 169.142 56.3291 169.249 56.4367C169.357 56.5443 169.465 56.6519 169.68 56.6519C169.895 56.7594 170.11 56.7594 170.325 56.867C170.54 56.9746 170.863 57.0822 171.078 57.1898C171.293 57.2973 171.509 57.5125 171.616 57.6201C171.724 57.8352 171.831 58.0504 171.831 58.3731C171.831 58.6958 171.724 58.911 171.616 59.1261C171.509 59.3413 171.293 59.5564 170.971 59.664C170.648 60.0943 170.325 60.0943 169.895 60.0943ZM175.274 60.0943V54.9306H178.716V55.6837H176.242V57.0822H178.501V57.8352H176.242V59.3413H178.716V60.0943H175.274ZM182.159 60.0943V54.9306H183.127V59.3413H185.386V60.0943H182.159ZM188.936 60.0943V54.9306H189.904V59.3413H192.163V60.0943H188.936ZM195.713 60.0943V54.9306H196.681V60.0943H195.713ZM200.339 60.0943V54.9306H201.307L203.782 58.5883V54.9306H204.75V60.0943H203.782L201.307 56.4367V60.0943H200.339ZM210.666 60.0943C210.129 60.0943 209.698 59.9867 209.376 59.7716C209.053 59.5564 208.73 59.2337 208.515 58.8034C208.3 58.3731 208.192 57.9428 208.192 57.4049C208.192 56.867 208.3 56.4367 208.515 56.0064C208.73 55.5761 209.053 55.2534 209.376 55.0382C209.806 54.8231 210.236 54.7155 210.774 54.7155C211.419 54.7155 211.85 54.8231 212.28 55.1458C212.71 55.4685 212.926 55.7913 213.033 56.3291H211.957C211.85 56.114 211.742 55.8988 211.527 55.7913C211.312 55.6837 211.097 55.5761 210.774 55.5761C210.236 55.5761 209.806 55.7913 209.591 56.114C209.268 56.4367 209.16 56.867 209.16 57.5125C209.16 58.0504 209.268 58.4807 209.591 58.8034C209.913 59.1261 210.236 59.2337 210.774 59.2337C211.204 59.2337 211.635 59.1261 211.85 58.8034C212.065 58.5882 212.28 58.1579 212.28 57.8352H210.989V57.0822H213.248V59.9867H212.388L212.28 59.3413C212.065 59.5564 211.85 59.7716 211.635 59.8792C211.42 60.0943 211.097 60.0943 210.666 60.0943Z" fill="#3B3B3B"/>
<path d="M24.5886 53.291H47.1104" stroke="#6D5C41" stroke-width="2.26945" stroke-miterlimit="10" stroke-linecap="round"/>
<path d="M2.27202 59.0909C3.20396 60.1781 4.55009 60.8512 5.99978 60.8512H43.5362C44.9341 60.8512 46.332 60.2299 47.264 59.0909C48.1959 58.0036 48.6619 56.5021 48.5066 55.0525L44.4682 17.7231C44.4164 17.1018 43.8986 16.6359 43.2773 16.6359H35.097V11.8208C35.097 5.86679 30.4891 1 24.7939 1C19.0987 1 14.439 5.81502 14.439 11.7691V16.5841H6.25865C5.63735 16.5841 5.11961 17.0501 5.06784 17.6714L1.02943 55.0007C0.874111 56.5021 1.34008 58.0036 2.27202 59.0909ZM16.8206 11.7691C16.8206 7.21293 20.3931 3.48517 24.7421 3.48517C29.1429 3.48517 32.6636 7.21293 32.6636 11.7691V16.5841H16.8206V11.7691ZM46.4874 54.6383L46.5909 55.7255C46.6945 56.5021 46.4356 57.2788 45.9178 57.9001C45.4001 58.5214 44.727 58.832 43.9504 58.832H5.53381C4.75719 58.832 4.08412 58.5214 3.56638 57.9001C3.04864 57.2788 2.84154 56.5539 2.89331 55.7255L6.87994 18.6551H14.1801V27.2496C14.1801 27.9745 14.7496 28.544 15.4227 28.544C16.0958 28.544 16.6653 27.9745 16.6653 27.2496V18.6551H32.9225V27.2496C32.9225 27.9745 33.492 28.544 34.165 28.544C34.8381 28.544 35.4076 27.9745 35.4076 27.2496V18.6551H42.7078L46.332 52.1013L46.4874 54.6383Z" fill="#3B3B3B" stroke="#3B3B3B" stroke-width="0.0788002" stroke-miterlimit="10"/>
<path d="M34.3199 47.3365C33.388 48.2685 32.1454 48.7344 30.851 48.7344C29.5567 48.6827 28.3141 48.1649 27.4339 47.1812L25.7771 45.3691C24.5346 44.023 24.1721 42.2109 24.6381 40.5023L27.5375 43.6088L28.4176 44.4889L29.246 45.3691C30.178 46.3528 31.7312 46.4046 32.7149 45.4727C32.922 45.2138 33.1291 45.0067 33.2844 44.696C33.388 44.3854 33.4915 44.0747 33.4915 43.7641C33.4915 43.4535 33.4398 43.091 33.3362 42.7804C33.2327 42.4697 33.0256 42.2109 32.8185 41.952L31.9901 41.0201L28.2623 36.9817C29.9191 36.6192 31.6794 37.0334 32.922 38.3796L34.6306 40.1917C35.5107 41.1754 36.0285 42.4697 35.9767 43.7641C35.8214 45.162 35.2519 46.4046 34.3199 47.3365ZM22.4636 36.4121L28.3659 42.7804C28.8318 43.2981 29.6084 43.2981 30.0744 42.8322C30.5404 42.3144 30.5404 41.5378 30.1262 41.0718L24.2239 34.7036C23.7579 34.1858 22.9813 34.1858 22.5154 34.6518C22.0494 35.1178 22.0494 35.9462 22.4636 36.4121ZM19.9266 35.4802L24.5346 40.3988C22.8778 40.813 21.1174 40.347 19.8749 39.0009L18.1663 37.1888C17.2861 36.205 16.7684 34.9107 16.8202 33.6163C16.8719 32.2702 17.3897 31.0276 18.3216 30.0957C19.2536 29.1637 20.4962 28.6978 21.7905 28.6978C23.0849 28.7495 24.3275 29.2673 25.2076 30.251L26.8644 32.0631C28.107 33.4092 28.4694 35.2213 28.0034 36.9299L23.3955 32.0113C22.4636 30.9758 20.9103 30.9758 19.9266 31.9078C19.0465 32.8915 18.9947 34.4447 19.9266 35.4802Z" fill="#6D5C41"/>
<path d="M16.2734 54.535H19.2246C19.8976 54.535 20.4154 53.9655 20.4154 53.2924C20.4154 52.6193 19.8976 52.0498 19.2246 52.0498H16.2734C15.6004 52.0498 15.0826 52.6193 15.0826 53.2924C15.0826 54.0172 15.6521 54.535 16.2734 54.535Z" fill="#6D5C41"/>
</svg>
