<svg width="25" height="25" viewBox="0 0 25 25" fill="none" xmlns="http://www.w3.org/2000/svg">
<path d="M24.058 23.1364H22.8116V11.0556L17.7841 6.74363L15.3356 8.35681V5.32491L9.02708 0.568237L3.02322 5.33337V23.1364H1.26393C1.02106 23.1364 0.824219 23.3838 0.824219 23.6893C0.824219 23.9943 1.02106 24.2417 1.26393 24.2417H3.02322H11.3054H11.7451H22.812H24.0584C24.3008 24.2417 24.4977 23.9943 24.4977 23.6893C24.4977 23.3838 24.3008 23.1364 24.058 23.1364ZM3.90221 9.03601L8.59306 5.99228V8.08794L3.90221 11.1508V9.03601ZM21.9322 16.5444L18.1944 15.1274V12.2815L21.9322 14.5931V16.5444ZM11.3054 11.0133V12.5842L9.47293 11.6159V9.23724L11.7473 10.7219L11.3054 11.0133ZM8.5935 11.6936L3.90265 14.1715V12.396L8.5935 9.33306V11.6936ZM8.5935 12.8925V15.3664L3.90265 17.2665V15.3709L8.5935 12.8925ZM9.47293 12.8153L11.3054 13.7837V16.1567L9.47293 15.3732V12.8153ZM12.1849 14.9611L17.315 12.2409V15.1387L12.1849 17.262V14.9611ZM17.315 11.0415L12.1849 13.7617V11.6824L17.315 8.30157V11.0415ZM12.696 10.0968L9.47249 7.99212V6.03399L13.9783 9.25133L12.696 10.0968ZM3.90221 18.427L8.59306 16.527V18.9259L3.90221 20.3604V18.427ZM9.47293 16.5399L11.3054 17.3234V19.7685L9.47293 18.9676V16.5399ZM12.1849 18.4248L17.315 16.3021V19.179L12.1849 20.3976V18.4248ZM18.1944 16.2818L21.9322 17.6988V19.8999L18.1944 19.1637V16.2818ZM21.9322 13.3609L18.1944 11.0499V8.43347L21.9322 11.6395V13.3609ZM14.4566 8.3213L9.47293 4.76295V2.19212L14.4566 5.95001V8.3213ZM8.5935 2.21974V4.7483L3.90265 7.79146V5.94211L8.5935 2.21974ZM3.90221 21.4984L8.59306 20.0639V23.1369H3.90221V21.4984ZM9.47293 23.1364V20.1377L11.3054 20.9387V23.1358L9.47293 23.1364ZM12.1849 21.5221L17.315 20.3035V23.1364H12.1849V21.5221ZM18.1944 23.1364V20.2826L21.9322 21.0187V23.1364H18.1944Z" fill="#58C5BA"/>
</svg>
