<svg width="19" height="24" viewBox="0 0 19 24" fill="none" xmlns="http://www.w3.org/2000/svg">
<path fill-rule="evenodd" clip-rule="evenodd" d="M0.0366211 2.78972C0.0366211 1.30834 1.15109 0.107422 2.52599 0.107422H15.6969C17.0717 0.107422 18.1863 1.30834 18.1863 2.78972V11.777L18.1854 11.7779C16.2623 13.8446 12.2643 18.143 11.6569 18.8023C10.8977 19.6263 10.7246 20.8413 10.7079 21.0879C10.6983 21.2282 10.6484 21.7294 10.5995 22.2199C10.5625 22.5911 10.5261 22.9564 10.5083 23.1548C10.4844 23.4203 10.5018 23.6166 10.5446 23.7809H2.52599C1.15109 23.7809 0.0366211 22.58 0.0366211 21.0986V2.78972ZM2.90208 5.45296C2.90208 4.8604 3.3479 4.38003 3.89785 4.38003H14.3245C14.8745 4.38003 15.3203 4.8604 15.3203 5.45296C15.3203 6.04546 14.8745 6.52583 14.3245 6.52583H3.89785C3.3479 6.52583 2.90208 6.04546 2.90208 5.45296ZM3.89785 8.72748C3.3479 8.72748 2.90208 9.20785 2.90208 9.80042C2.90208 10.393 3.3479 10.8734 3.89785 10.8734H14.3245C14.8745 10.8734 15.3203 10.393 15.3203 9.80042C15.3203 9.20785 14.8745 8.72748 14.3245 8.72748H3.89785ZM2.90208 14.1479C2.90208 13.5554 3.3479 13.075 3.89785 13.075H9.09794C9.64789 13.075 10.0937 13.5554 10.0937 14.1479C10.0937 14.7404 9.64789 15.2208 9.09794 15.2208H3.89785C3.3479 15.2208 2.90208 14.7404 2.90208 14.1479Z" fill="white"/>
</svg>
