<svg width="24" height="24" viewBox="0 0 24 24" fill="none" xmlns="http://www.w3.org/2000/svg">
<path d="M5.98069 8.76717C5.82462 8.60264 5.7008 8.40727 5.61632 8.19221C5.53184 7.97714 5.48836 7.74662 5.48836 7.51381C5.48836 7.28101 5.53184 7.05049 5.61632 6.83542C5.7008 6.62036 5.82462 6.42498 5.98069 6.26046L11.3231 0.626992C11.5576 0.379223 11.8564 0.210367 12.1818 0.141755C12.5073 0.0731437 12.8446 0.107855 13.1514 0.241504C13.4581 0.375153 13.7204 0.601743 13.9052 0.892648C14.0899 1.18355 14.1888 1.52572 14.1894 1.87592C14.1889 2.05133 14.1649 2.2258 14.1181 2.39409C14.1181 2.43838 14.0887 2.48267 14.0719 2.53139C13.987 2.75032 13.8614 2.9491 13.7026 3.11599L8.35601 8.76717C8.20011 8.93188 8.01497 9.06255 7.81119 9.1517C7.6074 9.24085 7.38896 9.28674 7.16835 9.28674C6.94775 9.28674 6.72931 9.24085 6.52552 9.1517C6.32174 9.06255 6.1366 8.93188 5.98069 8.76717ZM11.4406 12.3988L1.56998 22.8021C1.45262 22.9252 1.30338 23.009 1.14103 23.0429C0.978675 23.0768 0.810459 23.0592 0.657524 22.9925C0.504589 22.9258 0.373761 22.8128 0.281487 22.6678C0.189213 22.5228 0.139611 22.3523 0.138916 22.1777C0.146471 21.9458 0.239894 21.7264 0.39911 21.5665L10.2655 11.141C10.7201 11.4892 11.1171 11.9142 11.4406 12.3988ZM13.1067 13.7762L13.0479 13.8426C12.7529 12.8052 12.2191 11.8611 11.4942 11.0944C10.7692 10.3278 9.8756 9.76259 8.89319 9.44921L8.95194 9.39164L14.2901 3.75817C14.3321 3.71388 14.3741 3.66517 14.4118 3.61645C14.6944 4.66314 15.2255 5.6164 15.9548 6.38598C16.684 7.15557 17.5873 7.71601 18.5791 8.01427L18.4448 8.14271L13.1067 13.7762ZM21.9071 10.0205C21.9067 10.2535 21.8628 10.4842 21.7778 10.6993C21.6928 10.9143 21.5685 11.1096 21.4119 11.2739L16.0737 16.9118C15.9178 17.0765 15.7327 17.2072 15.5289 17.2963C15.3251 17.3855 15.1067 17.4313 14.886 17.4313C14.6654 17.4313 14.447 17.3855 14.2432 17.2963C14.0394 17.2072 13.8543 17.0765 13.6984 16.9118C13.5426 16.7471 13.419 16.5517 13.3347 16.3367C13.2505 16.1216 13.2072 15.8911 13.2074 15.6584C13.2073 15.4704 13.2357 15.2835 13.2913 15.1048C13.3006 15.0702 13.3118 15.0362 13.3249 15.003C13.4066 14.7773 13.5341 14.5732 13.6984 14.4051L19.0408 8.76717C19.2041 8.5957 19.4 8.46285 19.6157 8.37744C19.6521 8.36021 19.6901 8.34685 19.729 8.33758C19.8943 8.28057 20.0672 8.25215 20.241 8.25343C20.6862 8.25343 21.1132 8.44007 21.428 8.7723C21.7428 9.10452 21.9197 9.55512 21.9197 10.025L21.9071 10.0205ZM22.5534 21.1236H12.4814C12.1474 21.1236 11.8272 21.2636 11.5911 21.5127C11.355 21.7619 11.2223 22.0999 11.2223 22.4522C11.2223 22.8046 11.355 23.1426 11.5911 23.3917C11.8272 23.6409 12.1474 23.7809 12.4814 23.7809H22.5534C22.8873 23.7809 23.2075 23.6409 23.4436 23.3917C23.6797 23.1426 23.8124 22.8046 23.8124 22.4522C23.8124 22.0999 23.6797 21.7619 23.4436 21.5127C23.2075 21.2636 22.8873 21.1236 22.5534 21.1236Z" fill="#C682B5"/>
</svg>
