<svg width="25" height="27" viewBox="0 0 25 27" fill="none" xmlns="http://www.w3.org/2000/svg">
<path d="M24.6337 1.46154C24.146 0.983499 23.3558 0.983499 22.8681 1.46154L19.1242 5.13197C17.565 1.98859 15.1263 0 12.3377 0C7.52216 0 3.74904 5.93024 3.74904 13.5C3.74904 15.6247 4.04648 17.6195 4.57975 19.3909L0.365713 23.5222C-0.121904 24.0003 -0.121904 24.775 0.365713 25.2531C0.609975 25.4926 0.929222 25.6117 1.24848 25.6117C1.56774 25.6117 1.88811 25.4926 2.13125 25.2531L5.5614 21.8903C7.12062 25.0209 9.55504 27 12.3369 27C17.1524 27 20.9255 21.0698 20.9255 13.5C20.9255 11.386 20.6313 9.39964 20.1025 7.63534L24.6336 3.19323C25.1221 2.71429 25.1221 1.93932 24.6336 1.46126L24.6337 1.46154ZM6.24652 13.4999C6.24652 7.50926 9.03588 2.44811 12.3379 2.44811C14.3121 2.44811 16.1034 4.25781 17.2241 6.9947L6.6473 17.3639C6.38895 16.1545 6.24671 14.8516 6.24671 13.4997L6.24652 13.4999ZM18.4294 13.4999C18.4294 19.4906 15.64 24.5518 12.3379 24.5518C10.3693 24.5518 8.5831 22.7517 7.46154 20.0286L18.0355 9.66225C18.2895 10.8643 18.4295 12.1587 18.4295 13.5L18.4294 13.4999Z" fill="#3B3B3B"/>
</svg>
