<svg width="24" height="29" viewBox="0 0 24 29" fill="none" xmlns="http://www.w3.org/2000/svg">
<path fill-rule="evenodd" clip-rule="evenodd" d="M21.0807 28.8691H2.9775C2.23884 28.8691 1.53043 28.6088 1.00812 28.1456C0.485813 27.6823 0.192383 27.054 0.192383 26.3988V2.93121C0.192383 2.27605 0.485813 1.64773 1.00812 1.18446C1.53043 0.721198 2.23884 0.460938 2.9775 0.460938H16.2068C16.4296 0.460938 16.6197 0.560366 16.7471 0.704877L23.5908 6.77496C23.6752 6.83067 23.7439 6.9029 23.7916 6.98603C23.8393 7.06915 23.8647 7.16093 23.8659 7.25419V26.3988C23.8659 27.054 23.5724 27.6823 23.0501 28.1456C22.5278 28.6088 21.8194 28.8691 21.0807 28.8691ZM16.9031 2.54894V6.63663H21.5117L16.9031 2.54894ZM22.4733 7.87176H16.2068C16.0221 7.87176 15.845 7.8067 15.7144 7.69088C15.5839 7.57506 15.5105 7.41798 15.5105 7.25419V1.69608H2.9775C2.60817 1.69608 2.25397 1.82621 1.99281 2.05784C1.73166 2.28947 1.58494 2.60363 1.58494 2.93121V26.3988C1.58494 26.7264 1.73166 27.0406 1.99281 27.2722C2.25397 27.5038 2.60817 27.634 2.9775 27.634H21.0807C21.4501 27.634 21.8043 27.5038 22.0654 27.2722C22.3266 27.0406 22.4733 26.7264 22.4733 26.3988V7.87176ZM18.2956 23.9286H5.76261C5.57795 23.9286 5.40085 23.8635 5.27027 23.7477C5.13969 23.6319 5.06633 23.4748 5.06633 23.311C5.06633 23.1472 5.13969 22.9901 5.27027 22.8743C5.40085 22.7585 5.57795 22.6934 5.76261 22.6934H18.2956C18.4803 22.6934 18.6574 22.7585 18.788 22.8743C18.9185 22.9901 18.9919 23.1472 18.9919 23.311C18.9919 23.4748 18.9185 23.6319 18.788 23.7477C18.6574 23.8635 18.4803 23.9286 18.2956 23.9286ZM18.2956 18.988H5.76261C5.57795 18.988 5.40085 18.9229 5.27027 18.8071C5.13969 18.6913 5.06633 18.5342 5.06633 18.3704C5.06633 18.2066 5.13969 18.0496 5.27027 17.9337C5.40085 17.8179 5.57795 17.7529 5.76261 17.7529H18.2956C18.4803 17.7529 18.6574 17.8179 18.788 17.9337C18.9185 18.0496 18.9919 18.2066 18.9919 18.3704C18.9919 18.5342 18.9185 18.6913 18.788 18.8071C18.6574 18.9229 18.4803 18.988 18.2956 18.988ZM18.2956 14.0475H5.76261C5.57795 14.0475 5.40085 13.9824 5.27027 13.8666C5.13969 13.7508 5.06633 13.5937 5.06633 13.4299C5.06633 13.2661 5.13969 13.109 5.27027 12.9932C5.40085 12.8774 5.57795 12.8123 5.76261 12.8123H18.2956C18.4803 12.8123 18.6574 12.8774 18.788 12.9932C18.9185 13.109 18.9919 13.2661 18.9919 13.4299C18.9919 13.5937 18.9185 13.7508 18.788 13.8666C18.6574 13.9824 18.4803 14.0475 18.2956 14.0475Z" fill="#524A98"/>
</svg>
