<svg width="26" height="25" viewBox="0 0 26 25" fill="none" xmlns="http://www.w3.org/2000/svg">
<path d="M1.24506 23.9599H24.9185H1.24506Z" fill="#827AC7"/>
<path d="M8.0089 2.82285V23.6781H2.09054V2.82285H8.0089ZM8.0089 2.2592H2.09054C1.83689 2.2592 1.6678 2.48466 1.6678 2.82285V23.6781C1.6678 24.0162 1.83689 24.2417 2.09054 24.2417H8.0089C8.26255 24.2417 8.43164 24.0162 8.43164 23.6781V2.82285C8.43164 2.48466 8.26255 2.2592 8.0089 2.2592Z" fill="#827AC7"/>
<path d="M4.41561 21.1416C4.41561 22.0998 4.28879 22.8326 3.57013 22.8326C2.85147 22.8326 2.72465 22.0998 2.72465 21.1416C2.72465 20.1834 2.85147 18.887 3.57013 18.887C4.28879 18.887 4.41561 20.1834 4.41561 21.1416ZM7.37479 21.1416C7.37479 22.0998 7.24797 22.8326 6.52931 22.8326C5.81065 22.8326 5.68383 22.0998 5.68383 21.1416C5.68383 20.1834 5.81065 18.887 6.52931 18.887C7.24797 18.887 7.37479 20.1834 7.37479 21.1416ZM5.68383 12.6868H6.95205H5.68383Z" fill="#827AC7"/>
<path d="M8.43164 1.13189V2.2592H1.6678V1.13189H8.43164ZM8.43164 0.568237H1.6678C1.41415 0.568237 1.24506 0.793699 1.24506 1.13189V2.2592C1.24506 2.59739 1.41415 2.82285 1.6678 2.82285H8.43164C8.68529 2.82285 8.85439 2.59739 8.85439 2.2592V1.13189C8.85439 0.793699 8.68529 0.568237 8.43164 0.568237ZM24.073 11.8413V23.6781H12.659V11.8413H24.073ZM24.073 11.2777H12.659C12.4054 11.2777 12.2363 11.5031 12.2363 11.8413V23.6781C12.2363 24.0162 12.4054 24.2417 12.659 24.2417H24.073C24.3267 24.2417 24.4958 24.0162 24.4958 23.6781V11.8413C24.4958 11.5031 24.3267 11.2777 24.073 11.2777Z" fill="#827AC7"/>
<path d="M24.4958 10.1504V11.2777H12.2363V10.1504H24.4958ZM24.4958 9.5867H12.2363C11.9827 9.5867 11.8136 9.81216 11.8136 10.1504V11.2777C11.8136 11.6159 11.9827 11.8413 12.2363 11.8413H24.4958C24.7494 11.8413 24.9185 11.6159 24.9185 11.2777V10.1504C24.9185 9.81216 24.7494 9.5867 24.4958 9.5867ZM18.366 19.7325C18.9579 19.7325 19.4229 20.3525 19.4229 21.1416V23.6781H17.3092V21.1416C17.3092 20.3525 17.7742 19.7325 18.366 19.7325ZM18.366 19.1688C17.5628 19.1688 16.8865 20.0707 16.8865 21.1416V23.6781C16.8865 24.0162 17.0556 24.2417 17.3092 24.2417H19.4229C19.6765 24.2417 19.8456 24.0162 19.8456 23.6781V21.1416C19.8456 20.0707 19.1693 19.1688 18.366 19.1688Z" fill="#827AC7"/>
<path d="M24.3267 8.17758V9.58672V8.17758Z" fill="#827AC7"/>
<path d="M14.9841 13.5323C15.3223 13.5323 15.6182 13.9268 15.6182 14.3778V15.2232H14.35V14.3778C14.35 13.9268 14.6459 13.5323 14.9841 13.5323ZM14.9841 12.9686C14.3923 12.9686 13.9273 13.5886 13.9273 14.3778V15.2232C13.9273 15.5614 14.0964 15.7869 14.35 15.7869H15.6182C15.8719 15.7869 16.041 15.5614 16.041 15.2232V14.3778C16.041 13.5886 15.576 12.9686 14.9841 12.9686ZM18.366 13.5323C18.7042 13.5323 19.0002 13.9268 19.0002 14.3778V15.2232H17.7319V14.3778C17.7319 13.9268 18.0279 13.5323 18.366 13.5323ZM18.366 12.9686C17.7742 12.9686 17.3092 13.5886 17.3092 14.3778V15.2232C17.3092 15.5614 17.4783 15.7869 17.7319 15.7869H19.0002C19.2538 15.7869 19.4229 15.5614 19.4229 15.2232V14.3778C19.4229 13.5886 18.9579 12.9686 18.366 12.9686ZM21.748 13.5323C22.0862 13.5323 22.3821 13.9268 22.3821 14.3778V15.2232H21.1139V14.3778C21.1139 13.9268 21.4098 13.5323 21.748 13.5323ZM21.748 12.9686C21.1561 12.9686 20.6911 13.5886 20.6911 14.3778V15.2232C20.6911 15.5614 20.8602 15.7869 21.1139 15.7869H22.3821C22.6357 15.7869 22.8048 15.5614 22.8048 15.2232V14.3778C22.8048 13.5886 22.3398 12.9686 21.748 12.9686Z" fill="#827AC7"/>
<path d="M8.43164 3.66833H14.1386V8.06484L8.43164 3.66833ZM13.9273 3.66833H14.5614V1.97737H8.85439" fill="#827AC7"/>
<path d="M10.9681 19.7325V23.6781H9.69987V19.7325H10.9681ZM10.9681 19.1688H9.69987C9.44622 19.1688 9.27713 19.3943 9.27713 19.7325V23.6781C9.27713 24.0162 9.44622 24.2417 9.69987 24.2417H10.9681C11.2217 24.2417 11.3908 24.0162 11.3908 23.6781V19.7325C11.3908 19.3943 11.2217 19.1688 10.9681 19.1688Z" fill="#827AC7"/>
<path d="M8.43164 5.3593H13.9273H8.43164Z" fill="#827AC7"/>
<path d="M1.24506 23.4864C0.983566 23.4864 0.771587 23.6984 0.771587 23.9599C0.771587 24.2214 0.983566 24.4333 1.24506 24.4333V23.4864ZM24.9185 24.4333C25.18 24.4333 25.392 24.2214 25.392 23.9599C25.392 23.6984 25.18 23.4864 24.9185 23.4864V24.4333ZM8.0089 2.82285H8.48237V2.34938H8.0089V2.82285ZM8.0089 23.6781V24.1515H8.48237V23.6781H8.0089ZM2.09054 23.6781H1.61707V24.1515H2.09054V23.6781ZM2.09054 2.82285V2.34938H1.61707V2.82285H2.09054ZM4.0436 21.7053C4.0436 21.4438 3.83162 21.2318 3.57013 21.2318C3.30864 21.2318 3.09666 21.4438 3.09666 21.7053H4.0436ZM3.09666 23.9599C3.09666 24.2214 3.30864 24.4333 3.57013 24.4333C3.83162 24.4333 4.0436 24.2214 4.0436 23.9599H3.09666ZM7.00278 21.7053C7.00278 21.4438 6.7908 21.2318 6.52931 21.2318C6.26782 21.2318 6.05584 21.4438 6.05584 21.7053H7.00278ZM6.05584 23.9599C6.05584 24.2214 6.26782 24.4333 6.52931 24.4333C6.7908 24.4333 7.00278 24.2214 7.00278 23.9599H6.05584ZM2.09054 16.1589C1.82905 16.1589 1.61707 16.3709 1.61707 16.6324C1.61707 16.8939 1.82905 17.1058 2.09054 17.1058V16.1589ZM8.0089 17.1058C8.27039 17.1058 8.48237 16.8939 8.48237 16.6324C8.48237 16.3709 8.27039 16.1589 8.0089 16.1589V17.1058ZM3.14739 3.75852C2.8859 3.75852 2.67392 3.9705 2.67392 4.23199C2.67392 4.49348 2.8859 4.70546 3.14739 4.70546V3.75852ZM4.41561 4.70546C4.6771 4.70546 4.88908 4.49348 4.88908 4.23199C4.88908 3.9705 4.6771 3.75852 4.41561 3.75852V4.70546ZM5.68383 3.75852C5.42234 3.75852 5.21036 3.9705 5.21036 4.23199C5.21036 4.49348 5.42234 4.70546 5.68383 4.70546V3.75852ZM6.95205 4.70546C7.21354 4.70546 7.42552 4.49348 7.42552 4.23199C7.42552 3.9705 7.21354 3.75852 6.95205 3.75852V4.70546ZM3.14739 5.44948C2.8859 5.44948 2.67392 5.66146 2.67392 5.92295C2.67392 6.18444 2.8859 6.39642 3.14739 6.39642V5.44948ZM4.41561 6.39642C4.6771 6.39642 4.88908 6.18444 4.88908 5.92295C4.88908 5.66146 4.6771 5.44948 4.41561 5.44948V6.39642ZM5.68383 5.44948C5.42234 5.44948 5.21036 5.66146 5.21036 5.92295C5.21036 6.18444 5.42234 6.39642 5.68383 6.39642V5.44948ZM6.95205 6.39642C7.21354 6.39642 7.42552 6.18444 7.42552 5.92295C7.42552 5.66146 7.21354 5.44948 6.95205 5.44948V6.39642ZM3.14739 7.14044C2.8859 7.14044 2.67392 7.35242 2.67392 7.61391C2.67392 7.8754 2.8859 8.08738 3.14739 8.08738V7.14044ZM4.41561 8.08738C4.6771 8.08738 4.88908 7.8754 4.88908 7.61391C4.88908 7.35242 4.6771 7.14044 4.41561 7.14044V8.08738ZM5.68383 7.14044C5.42234 7.14044 5.21036 7.35242 5.21036 7.61391C5.21036 7.8754 5.42234 8.08738 5.68383 8.08738V7.14044ZM6.95205 8.08738C7.21354 8.08738 7.42552 7.8754 7.42552 7.61391C7.42552 7.35242 7.21354 7.14044 6.95205 7.14044V8.08738ZM3.14739 8.83141C2.8859 8.83141 2.67392 9.04339 2.67392 9.30488C2.67392 9.56637 2.8859 9.77835 3.14739 9.77835V8.83141ZM4.41561 9.77835C4.6771 9.77835 4.88908 9.56637 4.88908 9.30488C4.88908 9.04339 4.6771 8.83141 4.41561 8.83141V9.77835ZM5.68383 8.83141C5.42234 8.83141 5.21036 9.04339 5.21036 9.30488C5.21036 9.56637 5.42234 9.77835 5.68383 9.77835V8.83141ZM6.95205 9.77835C7.21354 9.77835 7.42552 9.56637 7.42552 9.30488C7.42552 9.04339 7.21354 8.83141 6.95205 8.83141V9.77835ZM3.14739 10.5224C2.8859 10.5224 2.67392 10.7343 2.67392 10.9958C2.67392 11.2573 2.8859 11.4693 3.14739 11.4693V10.5224ZM4.41561 11.4693C4.6771 11.4693 4.88908 11.2573 4.88908 10.9958C4.88908 10.7343 4.6771 10.5224 4.41561 10.5224V11.4693ZM5.68383 10.5224C5.42234 10.5224 5.21036 10.7343 5.21036 10.9958C5.21036 11.2573 5.42234 11.4693 5.68383 11.4693V10.5224ZM6.95205 11.4693C7.21354 11.4693 7.42552 11.2573 7.42552 10.9958C7.42552 10.7343 7.21354 10.5224 6.95205 10.5224V11.4693ZM3.14739 12.2133C2.8859 12.2133 2.67392 12.4253 2.67392 12.6868C2.67392 12.9483 2.8859 13.1603 3.14739 13.1603V12.2133ZM4.41561 13.1603C4.6771 13.1603 4.88908 12.9483 4.88908 12.6868C4.88908 12.4253 4.6771 12.2133 4.41561 12.2133V13.1603ZM5.68383 12.2133C5.42234 12.2133 5.21036 12.4253 5.21036 12.6868C5.21036 12.9483 5.42234 13.1603 5.68383 13.1603V12.2133ZM6.95205 13.1603C7.21354 13.1603 7.42552 12.9483 7.42552 12.6868C7.42552 12.4253 7.21354 12.2133 6.95205 12.2133V13.1603ZM8.43164 1.13189H8.90511V0.658422H8.43164V1.13189ZM8.43164 2.2592V2.73267H8.90511V2.2592H8.43164ZM1.6678 2.2592H1.19433V2.73267H1.6678V2.2592ZM1.6678 1.13189V0.658422H1.19433V1.13189H1.6678ZM24.073 11.8413H24.5465V11.3678H24.073V11.8413ZM24.073 23.6781V24.1515H24.5465V23.6781H24.073ZM12.659 23.6781H12.1856V24.1515H12.659V23.6781ZM12.659 11.8413V11.3678H12.1856V11.8413H12.659ZM24.4958 10.1504H24.9693V9.67689H24.4958V10.1504ZM24.4958 11.2777V11.7511H24.9693V11.2777H24.4958ZM12.2363 11.2777H11.7628V11.7511H12.2363V11.2777ZM12.2363 10.1504V9.67689H11.7628V10.1504H12.2363ZM19.4229 23.6781V24.1515H19.8964V23.6781H19.4229ZM17.3092 23.6781H16.8357V24.1515H17.3092V23.6781ZM12.2363 7.64775C11.9748 7.64775 11.7628 7.85973 11.7628 8.12122C11.7628 8.38271 11.9748 8.59468 12.2363 8.59468V7.64775ZM24.4958 8.59468C24.7573 8.59468 24.9693 8.38271 24.9693 8.12122C24.9693 7.85973 24.7573 7.64775 24.4958 7.64775V8.59468ZM12.9211 8.17758C12.9211 7.91609 12.7092 7.70411 12.4477 7.70411C12.1862 7.70411 11.9742 7.91609 11.9742 8.17758H12.9211ZM11.9742 9.58672C11.9742 9.84821 12.1862 10.0602 12.4477 10.0602C12.7092 10.0602 12.9211 9.84821 12.9211 9.58672H11.9742ZM14.6121 8.17758C14.6121 7.91609 14.4001 7.70411 14.1386 7.70411C13.8772 7.70411 13.6652 7.91609 13.6652 8.17758H14.6121ZM13.6652 9.58672C13.6652 9.84821 13.8772 10.0602 14.1386 10.0602C14.4001 10.0602 14.6121 9.84821 14.6121 9.58672H13.6652ZM16.3031 8.17758C16.3031 7.91609 16.0911 7.70411 15.8296 7.70411C15.5681 7.70411 15.3561 7.91609 15.3561 8.17758H16.3031ZM15.3561 9.58672C15.3561 9.84821 15.5681 10.0602 15.8296 10.0602C16.0911 10.0602 16.3031 9.84821 16.3031 9.58672H15.3561ZM17.994 8.17758C17.994 7.91609 17.7821 7.70411 17.5206 7.70411C17.2591 7.70411 17.0471 7.91609 17.0471 8.17758H17.994ZM17.0471 9.58672C17.0471 9.84821 17.2591 10.0602 17.5206 10.0602C17.7821 10.0602 17.994 9.84821 17.994 9.58672H17.0471ZM19.685 8.17758C19.685 7.91609 19.473 7.70411 19.2115 7.70411C18.95 7.70411 18.7381 7.91609 18.7381 8.17758H19.685ZM18.7381 9.58672C18.7381 9.84821 18.95 10.0602 19.2115 10.0602C19.473 10.0602 19.685 9.84821 19.685 9.58672H18.7381ZM21.376 8.17758C21.376 7.91609 21.164 7.70411 20.9025 7.70411C20.641 7.70411 20.429 7.91609 20.429 8.17758H21.376ZM20.429 9.58672C20.429 9.84821 20.641 10.0602 20.9025 10.0602C21.164 10.0602 21.376 9.84821 21.376 9.58672H20.429ZM23.0669 8.17758C23.0669 7.91609 22.8549 7.70411 22.5935 7.70411C22.332 7.70411 22.12 7.91609 22.12 8.17758H23.0669ZM22.12 9.58672C22.12 9.84821 22.332 10.0602 22.5935 10.0602C22.8549 10.0602 23.0669 9.84821 23.0669 9.58672H22.12ZM24.8002 8.17758C24.8002 7.91609 24.5882 7.70411 24.3267 7.70411C24.0652 7.70411 23.8532 7.91609 23.8532 8.17758H24.8002ZM23.8532 9.58672C23.8532 9.84821 24.0652 10.0602 24.3267 10.0602C24.5882 10.0602 24.8002 9.84821 24.8002 9.58672H23.8532ZM15.6182 15.2232V15.6967H16.0917V15.2232H15.6182ZM14.35 15.2232H13.8765V15.6967H14.35V15.2232ZM19.0002 15.2232V15.6967H19.4736V15.2232H19.0002ZM17.7319 15.2232H17.2585V15.6967H17.7319V15.2232ZM22.3821 15.2232V15.6967H22.8556V15.2232H22.3821ZM21.1139 15.2232H20.6404V15.6967H21.1139V15.2232ZM12.659 17.2862C12.3976 17.2862 12.1856 17.4982 12.1856 17.7597C12.1856 18.0212 12.3976 18.2332 12.659 18.2332V17.2862ZM24.073 18.2332C24.3345 18.2332 24.5465 18.0212 24.5465 17.7597C24.5465 17.4982 24.3345 17.2862 24.073 17.2862V18.2332ZM8.43164 3.66833V3.19487C8.22897 3.19487 8.04878 3.32386 7.98345 3.51571C7.91812 3.70757 7.98214 3.91973 8.1427 4.04341L8.43164 3.66833ZM14.1386 3.66833H14.6121C14.6121 3.40684 14.4001 3.19487 14.1386 3.19487V3.66833ZM14.1386 8.06484L13.8497 8.43991C13.9926 8.55003 14.1857 8.56933 14.3476 8.48968C14.5096 8.41003 14.6121 8.24527 14.6121 8.06484H14.1386ZM13.9273 3.19487C13.6658 3.19487 13.4538 3.40684 13.4538 3.66833C13.4538 3.92982 13.6658 4.1418 13.9273 4.1418V3.19487ZM14.5614 3.66833V4.1418C14.8229 4.1418 15.0349 3.92982 15.0349 3.66833H14.5614ZM14.5614 1.97737H15.0349C15.0349 1.71588 14.8229 1.5039 14.5614 1.5039V1.97737ZM8.85439 1.5039C8.5929 1.5039 8.38092 1.71588 8.38092 1.97737C8.38092 2.23886 8.5929 2.45084 8.85439 2.45084V1.5039ZM10.9681 19.7325H11.4416V19.259H10.9681V19.7325ZM10.9681 23.6781V24.1515H11.4416V23.6781H10.9681ZM9.69987 23.6781H9.2264V24.1515H9.69987V23.6781ZM9.69987 19.7325V19.259H9.2264V19.7325H9.69987ZM9.86051 15.5051C9.86051 15.7666 10.0725 15.9785 10.334 15.9785C10.5955 15.9785 10.8074 15.7666 10.8074 15.5051H9.86051ZM10.8074 3.95016C10.8074 3.68867 10.5955 3.47669 10.334 3.47669C10.0725 3.47669 9.86051 3.68867 9.86051 3.95016H10.8074ZM8.43164 15.0316C8.17016 15.0316 7.95818 15.2436 7.95818 15.5051C7.95818 15.7666 8.17016 15.9785 8.43164 15.9785V15.0316ZM12.2363 15.9785C12.4978 15.9785 12.7098 15.7666 12.7098 15.5051C12.7098 15.2436 12.4978 15.0316 12.2363 15.0316V15.9785ZM8.43164 12.2133C8.17016 12.2133 7.95818 12.4253 7.95818 12.6868C7.95818 12.9483 8.17016 13.1603 8.43164 13.1603V12.2133ZM12.2363 13.1603C12.4978 13.1603 12.7098 12.9483 12.7098 12.6868C12.7098 12.4253 12.4978 12.2133 12.2363 12.2133V13.1603ZM8.43164 9.39506C8.17016 9.39506 7.95818 9.60704 7.95818 9.86853C7.95818 10.13 8.17016 10.342 8.43164 10.342V9.39506ZM12.2363 10.342C12.4978 10.342 12.7098 10.13 12.7098 9.86853C12.7098 9.60704 12.4978 9.39506 12.2363 9.39506V10.342ZM8.43164 7.14044C8.17016 7.14044 7.95818 7.35242 7.95818 7.61391C7.95818 7.8754 8.17016 8.08738 8.43164 8.08738V7.14044ZM13.9273 8.08738C14.1888 8.08738 14.4007 7.8754 14.4007 7.61391C14.4007 7.35242 14.1888 7.14044 13.9273 7.14044V8.08738ZM8.43164 4.88583C8.17016 4.88583 7.95818 5.09781 7.95818 5.3593C7.95818 5.62079 8.17016 5.83277 8.43164 5.83277V4.88583ZM13.9273 5.83277C14.1888 5.83277 14.4007 5.62079 14.4007 5.3593C14.4007 5.09781 14.1888 4.88583 13.9273 4.88583V5.83277ZM1.24506 24.4333H24.9185V23.4864H1.24506V24.4333ZM7.53544 2.82285V23.6781H8.48237V2.82285H7.53544ZM8.0089 23.2046H2.09054V24.1515H8.0089V23.2046ZM2.56401 23.6781V2.82285H1.61707V23.6781H2.56401ZM2.09054 3.29632H8.0089V2.34938H2.09054V3.29632ZM8.0089 1.78573H2.09054V2.73267H8.0089V1.78573ZM2.09054 1.78573C1.80756 1.78573 1.56431 1.91808 1.40527 2.13012C1.2545 2.33116 1.19433 2.5802 1.19433 2.82285H2.14127C2.14127 2.72731 2.16564 2.69453 2.16283 2.69829C2.16037 2.70156 2.1512 2.71195 2.13353 2.72101C2.11534 2.73034 2.09899 2.73267 2.09054 2.73267V1.78573ZM1.19433 2.82285V23.6781H2.14127V2.82285H1.19433ZM1.19433 23.6781C1.19433 23.9207 1.2545 24.1698 1.40527 24.3708C1.56431 24.5828 1.80756 24.7152 2.09054 24.7152V23.7682C2.09899 23.7682 2.11534 23.7706 2.13353 23.7799C2.1512 23.789 2.16037 23.7993 2.16283 23.8026C2.16564 23.8064 2.14127 23.7736 2.14127 23.6781H1.19433ZM2.09054 24.7152H8.0089V23.7682H2.09054V24.7152ZM8.0089 24.7152C8.29188 24.7152 8.53514 24.5828 8.69417 24.3708C8.84494 24.1698 8.90511 23.9207 8.90511 23.6781H7.95818C7.95818 23.7736 7.9338 23.8064 7.93662 23.8026C7.93907 23.7993 7.94824 23.789 7.96591 23.7799C7.9841 23.7706 8.00045 23.7682 8.0089 23.7682V24.7152ZM8.90511 23.6781V2.82285H7.95818V23.6781H8.90511ZM8.90511 2.82285C8.90511 2.5802 8.84494 2.33116 8.69417 2.13012C8.53514 1.91808 8.29188 1.78573 8.0089 1.78573V2.73267C8.00045 2.73267 7.9841 2.73034 7.96591 2.72101C7.94824 2.71195 7.93907 2.70156 7.93662 2.69829C7.9338 2.69453 7.95818 2.72731 7.95818 2.82285H8.90511ZM3.09666 21.7053V23.9599H4.0436V21.7053H3.09666ZM3.94214 21.1416C3.94214 21.6202 3.90716 21.9602 3.82294 22.1701C3.78459 22.2657 3.74695 22.3054 3.7236 22.3226C3.70472 22.3366 3.6651 22.3591 3.57013 22.3591V23.306C3.83449 23.306 4.08022 23.2369 4.28724 23.0836C4.48979 22.9335 4.6186 22.7301 4.7018 22.5227C4.86065 22.1267 4.88908 21.6212 4.88908 21.1416H3.94214ZM3.57013 22.3591C3.47516 22.3591 3.43554 22.3366 3.41666 22.3226C3.39331 22.3054 3.35567 22.2657 3.31732 22.1701C3.2331 21.9602 3.19812 21.6202 3.19812 21.1416H2.25118C2.25118 21.6212 2.27961 22.1267 2.43846 22.5227C2.52165 22.7301 2.65047 22.9335 2.85302 23.0836C3.06004 23.2369 3.30577 23.306 3.57013 23.306V22.3591ZM3.19812 21.1416C3.19812 20.6724 3.23032 20.1607 3.33455 19.78C3.38701 19.5884 3.44755 19.4693 3.49963 19.4064C3.53975 19.3579 3.55638 19.3605 3.57013 19.3605V18.4135C3.22455 18.4135 2.95583 18.5782 2.77005 18.8027C2.59622 19.0128 2.49031 19.2777 2.42123 19.5299C2.28239 20.037 2.25118 20.6526 2.25118 21.1416H3.19812ZM3.57013 19.3605C3.58388 19.3605 3.60051 19.3579 3.64063 19.4064C3.6927 19.4693 3.75324 19.5884 3.80571 19.78C3.90994 20.1607 3.94214 20.6724 3.94214 21.1416H4.88908C4.88908 20.6526 4.85787 20.037 4.71903 19.5299C4.64995 19.2777 4.54404 19.0128 4.37021 18.8027C4.18443 18.5782 3.91571 18.4135 3.57013 18.4135V19.3605ZM6.05584 21.7053V23.9599H7.00278V21.7053H6.05584ZM6.90132 21.1416C6.90132 21.6202 6.86635 21.9602 6.78212 22.1701C6.74377 22.2657 6.70613 22.3054 6.68278 22.3226C6.6639 22.3366 6.62428 22.3591 6.52931 22.3591V23.306C6.79368 23.306 7.0394 23.2369 7.24643 23.0836C7.44898 22.9335 7.57779 22.7301 7.66098 22.5227C7.81983 22.1267 7.84826 21.6212 7.84826 21.1416H6.90132ZM6.52931 22.3591C6.43435 22.3591 6.39472 22.3366 6.37584 22.3226C6.35249 22.3054 6.31485 22.2657 6.2765 22.1701C6.19228 21.9602 6.1573 21.6202 6.1573 21.1416H5.21036C5.21036 21.6212 5.23879 22.1267 5.39765 22.5227C5.48084 22.7301 5.60965 22.9335 5.8122 23.0836C6.01922 23.2369 6.26495 23.306 6.52931 23.306V22.3591ZM6.1573 21.1416C6.1573 20.6724 6.1895 20.1607 6.29374 19.78C6.3462 19.5884 6.40674 19.4693 6.45881 19.4064C6.49893 19.3579 6.51556 19.3605 6.52931 19.3605V18.4135C6.18373 18.4135 5.91502 18.5782 5.72923 18.8027C5.55541 19.0128 5.44949 19.2777 5.38041 19.5299C5.24157 20.037 5.21036 20.6526 5.21036 21.1416H6.1573ZM6.52931 19.3605C6.54306 19.3605 6.55969 19.3579 6.59982 19.4064C6.65189 19.4693 6.71243 19.5884 6.76489 19.78C6.86912 20.1607 6.90132 20.6724 6.90132 21.1416H7.84826C7.84826 20.6526 7.81705 20.037 7.67821 19.5299C7.60914 19.2777 7.50322 19.0128 7.32939 18.8027C7.14361 18.5782 6.87489 18.4135 6.52931 18.4135V19.3605ZM2.09054 17.1058H8.0089V16.1589H2.09054V17.1058ZM3.14739 4.70546H4.41561V3.75852H3.14739V4.70546ZM5.68383 4.70546H6.95205V3.75852H5.68383V4.70546ZM3.14739 6.39642H4.41561V5.44948H3.14739V6.39642ZM5.68383 6.39642H6.95205V5.44948H5.68383V6.39642ZM3.14739 8.08738H4.41561V7.14044H3.14739V8.08738ZM5.68383 8.08738H6.95205V7.14044H5.68383V8.08738ZM3.14739 9.77835H4.41561V8.83141H3.14739V9.77835ZM5.68383 9.77835H6.95205V8.83141H5.68383V9.77835ZM3.14739 11.4693H4.41561V10.5224H3.14739V11.4693ZM5.68383 11.4693H6.95205V10.5224H5.68383V11.4693ZM3.14739 13.1603H4.41561V12.2133H3.14739V13.1603ZM5.68383 13.1603H6.95205V12.2133H5.68383V13.1603ZM7.95818 1.13189V2.2592H8.90511V1.13189H7.95818ZM8.43164 1.78573H1.6678V2.73267H8.43164V1.78573ZM2.14127 2.2592V1.13189H1.19433V2.2592H2.14127ZM1.6678 1.60536H8.43164V0.658422H1.6678V1.60536ZM8.43164 0.0947679H1.6678V1.04171H8.43164V0.0947679ZM1.6678 0.0947679C1.38482 0.0947679 1.14157 0.227119 0.982534 0.439161C0.83176 0.640193 0.771587 0.889239 0.771587 1.13189H1.71853C1.71853 1.03635 1.7429 1.00357 1.74009 1.00732C1.73763 1.0106 1.72846 1.02099 1.71079 1.03005C1.6926 1.03938 1.67625 1.04171 1.6678 1.04171V0.0947679ZM0.771587 1.13189V2.2592H1.71853V1.13189H0.771587ZM0.771587 2.2592C0.771587 2.50185 0.83176 2.7509 0.982534 2.95193C1.14157 3.16397 1.38482 3.29632 1.6678 3.29632V2.34938C1.67625 2.34938 1.6926 2.35171 1.71079 2.36104C1.72846 2.3701 1.73763 2.38049 1.74009 2.38377C1.7429 2.38752 1.71853 2.35474 1.71853 2.2592H0.771587ZM1.6678 3.29632H8.43164V2.34938H1.6678V3.29632ZM8.43164 3.29632C8.71462 3.29632 8.95788 3.16397 9.11691 2.95193C9.26768 2.7509 9.32786 2.50185 9.32786 2.2592H8.38092C8.38092 2.35474 8.35654 2.38752 8.35936 2.38377C8.36181 2.38049 8.37098 2.3701 8.38865 2.36104C8.40684 2.35171 8.42319 2.34938 8.43164 2.34938V3.29632ZM9.32786 2.2592V1.13189H8.38092V2.2592H9.32786ZM9.32786 1.13189C9.32786 0.889239 9.26768 0.640193 9.11691 0.439161C8.95788 0.227119 8.71462 0.0947679 8.43164 0.0947679V1.04171C8.42319 1.04171 8.40684 1.03938 8.38865 1.03005C8.37098 1.02099 8.36181 1.0106 8.35936 1.00732C8.35654 1.00357 8.38092 1.03635 8.38092 1.13189H9.32786ZM23.5996 11.8413V23.6781H24.5465V11.8413H23.5996ZM24.073 23.2046H12.659V24.1515H24.073V23.2046ZM13.1325 23.6781V11.8413H12.1856V23.6781H13.1325ZM12.659 12.3148H24.073V11.3678H12.659V12.3148ZM24.073 10.8042H12.659V11.7511H24.073V10.8042ZM12.659 10.8042C12.3761 10.8042 12.1328 10.9365 11.9738 11.1486C11.823 11.3496 11.7628 11.5987 11.7628 11.8413H12.7098C12.7098 11.7458 12.7342 11.713 12.7313 11.7168C12.7289 11.72 12.7197 11.7304 12.702 11.7395C12.6839 11.7488 12.6675 11.7511 12.659 11.7511V10.8042ZM11.7628 11.8413V23.6781H12.7098V11.8413H11.7628ZM11.7628 23.6781C11.7628 23.9207 11.823 24.1698 11.9738 24.3708C12.1328 24.5828 12.3761 24.7152 12.659 24.7152V23.7682C12.6675 23.7682 12.6839 23.7706 12.702 23.7799C12.7197 23.789 12.7289 23.7993 12.7313 23.8026C12.7342 23.8064 12.7098 23.7736 12.7098 23.6781H11.7628ZM12.659 24.7152H24.073V23.7682H12.659V24.7152ZM24.073 24.7152C24.356 24.7152 24.5993 24.5828 24.7583 24.3708C24.9091 24.1698 24.9693 23.9207 24.9693 23.6781H24.0223C24.0223 23.7736 23.9979 23.8064 24.0008 23.8026C24.0032 23.7993 24.0124 23.789 24.0301 23.7799C24.0482 23.7706 24.0646 23.7682 24.073 23.7682V24.7152ZM24.9693 23.6781V11.8413H24.0223V23.6781H24.9693ZM24.9693 11.8413C24.9693 11.5987 24.9091 11.3496 24.7583 11.1486C24.5993 10.9365 24.356 10.8042 24.073 10.8042V11.7511C24.0646 11.7511 24.0482 11.7488 24.0301 11.7395C24.0124 11.7304 24.0032 11.72 24.0008 11.7168C23.9979 11.713 24.0223 11.7458 24.0223 11.8413H24.9693ZM24.0223 10.1504V11.2777H24.9693V10.1504H24.0223ZM24.4958 10.8042H12.2363V11.7511H24.4958V10.8042ZM12.7098 11.2777V10.1504H11.7628V11.2777H12.7098ZM12.2363 10.6238H24.4958V9.67689H12.2363V10.6238ZM24.4958 9.11323H12.2363V10.0602H24.4958V9.11323ZM12.2363 9.11323C11.9533 9.11323 11.7101 9.24558 11.551 9.45763C11.4003 9.65866 11.3401 9.9077 11.3401 10.1504H12.287C12.287 10.0548 12.3114 10.022 12.3086 10.0258C12.3061 10.0291 12.297 10.0395 12.2793 10.0485C12.2611 10.0578 12.2448 10.0602 12.2363 10.0602V9.11323ZM11.3401 10.1504V11.2777H12.287V10.1504H11.3401ZM11.3401 11.2777C11.3401 11.5203 11.4003 11.7694 11.551 11.9704C11.7101 12.1824 11.9533 12.3148 12.2363 12.3148V11.3678C12.2448 11.3678 12.2611 11.3702 12.2793 11.3795C12.297 11.3886 12.3061 11.399 12.3086 11.4022C12.3114 11.406 12.287 11.3732 12.287 11.2777H11.3401ZM12.2363 12.3148H24.4958V11.3678H12.2363V12.3148ZM24.4958 12.3148C24.7788 12.3148 25.022 12.1824 25.181 11.9704C25.3318 11.7694 25.392 11.5203 25.392 11.2777H24.4451C24.4451 11.3732 24.4207 11.406 24.4235 11.4022C24.426 11.399 24.4351 11.3886 24.4528 11.3795C24.471 11.3702 24.4873 11.3678 24.4958 11.3678V12.3148ZM25.392 11.2777V10.1504H24.4451V11.2777H25.392ZM25.392 10.1504C25.392 9.9077 25.3318 9.65866 25.181 9.45763C25.022 9.24558 24.7788 9.11323 24.4958 9.11323V10.0602C24.4873 10.0602 24.471 10.0578 24.4528 10.0485C24.4351 10.0395 24.426 10.0291 24.4235 10.0258C24.4207 10.022 24.4451 10.0548 24.4451 10.1504H25.392ZM18.366 20.2059C18.4836 20.2059 18.6176 20.2652 18.7376 20.4252C18.8591 20.5871 18.9494 20.8366 18.9494 21.1416H19.8964C19.8964 20.6575 19.7542 20.2024 19.4952 19.857C19.2347 19.5098 18.8403 19.259 18.366 19.259V20.2059ZM18.9494 21.1416V23.6781H19.8964V21.1416H18.9494ZM19.4229 23.2046H17.3092V24.1515H19.4229V23.2046ZM17.7827 23.6781V21.1416H16.8357V23.6781H17.7827ZM17.7827 21.1416C17.7827 20.8366 17.873 20.5871 17.9945 20.4252C18.1145 20.2652 18.2485 20.2059 18.366 20.2059V19.259C17.8918 19.259 17.4974 19.5098 17.2369 19.857C16.9779 20.2024 16.8357 20.6575 16.8357 21.1416H17.7827ZM18.366 18.6954C17.7771 18.6954 17.2794 19.0254 16.9463 19.4695C16.6116 19.9157 16.413 20.51 16.413 21.1416H17.3599C17.3599 20.7023 17.4995 20.3102 17.7038 20.0377C17.9097 19.7632 18.1518 19.6423 18.366 19.6423V18.6954ZM16.413 21.1416V23.6781H17.3599V21.1416H16.413ZM16.413 23.6781C16.413 23.9207 16.4732 24.1698 16.6239 24.3708C16.783 24.5828 17.0262 24.7152 17.3092 24.7152V23.7682C17.3176 23.7682 17.334 23.7706 17.3522 23.7799C17.3699 23.789 17.379 23.7993 17.3815 23.8026C17.3843 23.8064 17.3599 23.7736 17.3599 23.6781H16.413ZM17.3092 24.7152H19.4229V23.7682H17.3092V24.7152ZM19.4229 24.7152C19.7059 24.7152 19.9491 24.5828 20.1082 24.3708C20.2589 24.1698 20.3191 23.9207 20.3191 23.6781H19.3722C19.3722 23.7736 19.3478 23.8064 19.3506 23.8026C19.3531 23.7993 19.3622 23.789 19.3799 23.7799C19.3981 23.7706 19.4144 23.7682 19.4229 23.7682V24.7152ZM20.3191 23.6781V21.1416H19.3722V23.6781H20.3191ZM20.3191 21.1416C20.3191 20.51 20.1204 19.9157 19.7858 19.4695C19.4527 19.0254 18.955 18.6954 18.366 18.6954V19.6423C18.5803 19.6423 18.8224 19.7632 19.0283 20.0377C19.2326 20.3102 19.3722 20.7023 19.3722 21.1416H20.3191ZM12.2363 8.59468H24.4958V7.64775H12.2363V8.59468ZM11.9742 8.17758V9.58672H12.9211V8.17758H11.9742ZM13.6652 8.17758V9.58672H14.6121V8.17758H13.6652ZM15.3561 8.17758V9.58672H16.3031V8.17758H15.3561ZM17.0471 8.17758V9.58672H17.994V8.17758H17.0471ZM18.7381 8.17758V9.58672H19.685V8.17758H18.7381ZM20.429 8.17758V9.58672H21.376V8.17758H20.429ZM22.12 8.17758V9.58672H23.0669V8.17758H22.12ZM23.8532 8.17758V9.58672H24.8002V8.17758H23.8532ZM14.9841 14.0058C14.961 14.0058 14.9928 13.9948 15.0492 14.07C15.1024 14.141 15.1448 14.2521 15.1448 14.3778H16.0917C16.0917 14.0525 15.9861 13.7409 15.8068 13.5018C15.6306 13.267 15.3454 13.0588 14.9841 13.0588V14.0058ZM15.1448 14.3778V15.2232H16.0917V14.3778H15.1448ZM15.6182 14.7498H14.35V15.6967H15.6182V14.7498ZM14.8235 15.2232V14.3778H13.8765V15.2232H14.8235ZM14.8235 14.3778C14.8235 14.2521 14.8658 14.141 14.919 14.07C14.9754 13.9948 15.0072 14.0058 14.9841 14.0058V13.0588C14.6228 13.0588 14.3376 13.267 14.1615 13.5018C13.9822 13.7409 13.8765 14.0525 13.8765 14.3778H14.8235ZM14.9841 12.4952C14.5099 12.4952 14.1154 12.7459 13.855 13.0932C13.596 13.4386 13.4538 13.8937 13.4538 14.3778H14.4007C14.4007 14.0727 14.4911 13.8233 14.6125 13.6614C14.7325 13.5013 14.8666 13.4421 14.9841 13.4421V12.4952ZM13.4538 14.3778V15.2232H14.4007V14.3778H13.4538ZM13.4538 15.2232C13.4538 15.4659 13.514 15.7149 13.6648 15.916C13.8238 16.128 14.067 16.2604 14.35 16.2604V15.3134C14.3585 15.3134 14.3748 15.3158 14.393 15.3251C14.4107 15.3341 14.4198 15.3445 14.4223 15.3478C14.4251 15.3516 14.4007 15.3188 14.4007 15.2232H13.4538ZM14.35 16.2604H15.6182V15.3134H14.35V16.2604ZM15.6182 16.2604C15.9012 16.2604 16.1445 16.128 16.3035 15.916C16.4543 15.7149 16.5144 15.4659 16.5144 15.2232H15.5675C15.5675 15.3188 15.5431 15.3516 15.5459 15.3478C15.5484 15.3445 15.5576 15.3341 15.5752 15.3251C15.5934 15.3158 15.6098 15.3134 15.6182 15.3134V16.2604ZM16.5144 15.2232V14.3778H15.5675V15.2232H16.5144ZM16.5144 14.3778C16.5144 13.8937 16.3723 13.4386 16.1133 13.0932C15.8528 12.7459 15.4584 12.4952 14.9841 12.4952V13.4421C15.1017 13.4421 15.2357 13.5013 15.3557 13.6614C15.4772 13.8233 15.5675 14.0727 15.5675 14.3778H16.5144ZM18.366 14.0058C18.3429 14.0058 18.3748 13.9948 18.4311 14.07C18.4844 14.141 18.5267 14.2521 18.5267 14.3778H19.4736C19.4736 14.0525 19.368 13.7409 19.1887 13.5018C19.0126 13.267 18.7274 13.0588 18.366 13.0588V14.0058ZM18.5267 14.3778V15.2232H19.4736V14.3778H18.5267ZM19.0002 14.7498H17.7319V15.6967H19.0002V14.7498ZM18.2054 15.2232V14.3778H17.2585V15.2232H18.2054ZM18.2054 14.3778C18.2054 14.2521 18.2477 14.141 18.3009 14.07C18.3573 13.9948 18.3892 14.0058 18.366 14.0058V13.0588C18.0047 13.0588 17.7195 13.267 17.5434 13.5018C17.3641 13.7409 17.2585 14.0525 17.2585 14.3778H18.2054ZM18.366 12.4952C17.8918 12.4952 17.4974 12.7459 17.2369 13.0932C16.9779 13.4386 16.8357 13.8937 16.8357 14.3778H17.7827C17.7827 14.0727 17.873 13.8233 17.9945 13.6614C18.1145 13.5013 18.2485 13.4421 18.366 13.4421V12.4952ZM16.8357 14.3778V15.2232H17.7827V14.3778H16.8357ZM16.8357 15.2232C16.8357 15.4659 16.8959 15.7149 17.0467 15.916C17.2057 16.128 17.449 16.2604 17.7319 16.2604V15.3134C17.7404 15.3134 17.7567 15.3158 17.7749 15.3251C17.7926 15.3341 17.8018 15.3445 17.8042 15.3478C17.807 15.3516 17.7827 15.3188 17.7827 15.2232H16.8357ZM17.7319 16.2604H19.0002V15.3134H17.7319V16.2604ZM19.0002 16.2604C19.2831 16.2604 19.5264 16.128 19.6854 15.916C19.8362 15.7149 19.8964 15.4659 19.8964 15.2232H18.9494C18.9494 15.3188 18.9251 15.3516 18.9279 15.3478C18.9303 15.3445 18.9395 15.3341 18.9572 15.3251C18.9754 15.3158 18.9917 15.3134 19.0002 15.3134V16.2604ZM19.8964 15.2232V14.3778H18.9494V15.2232H19.8964ZM19.8964 14.3778C19.8964 13.8937 19.7542 13.4386 19.4952 13.0932C19.2347 12.7459 18.8403 12.4952 18.366 12.4952V13.4421C18.4836 13.4421 18.6176 13.5013 18.7376 13.6614C18.8591 13.8233 18.9494 14.0727 18.9494 14.3778H19.8964ZM21.748 14.0058C21.7249 14.0058 21.7567 13.9948 21.8131 14.07C21.8663 14.141 21.9086 14.2521 21.9086 14.3778H22.8556C22.8556 14.0525 22.7499 13.7409 22.5706 13.5018C22.3945 13.267 22.1093 13.0588 21.748 13.0588V14.0058ZM21.9086 14.3778V15.2232H22.8556V14.3778H21.9086ZM22.3821 14.7498H21.1139V15.6967H22.3821V14.7498ZM21.5873 15.2232V14.3778H20.6404V15.2232H21.5873ZM21.5873 14.3778C21.5873 14.2521 21.6297 14.141 21.6829 14.07C21.7392 13.9948 21.7711 14.0058 21.748 14.0058V13.0588C21.3867 13.0588 21.1014 13.267 20.9253 13.5018C20.746 13.7409 20.6404 14.0525 20.6404 14.3778H21.5873ZM21.748 12.4952C21.2737 12.4952 20.8793 12.7459 20.6188 13.0932C20.3598 13.4386 20.2177 13.8937 20.2177 14.3778H21.1646C21.1646 14.0727 21.2549 13.8233 21.3764 13.6614C21.4964 13.5013 21.6304 13.4421 21.748 13.4421V12.4952ZM20.2177 14.3778V15.2232H21.1646V14.3778H20.2177ZM20.2177 15.2232C20.2177 15.4659 20.2778 15.7149 20.4286 15.916C20.5876 16.128 20.8309 16.2604 21.1139 16.2604V15.3134C21.1223 15.3134 21.1387 15.3158 21.1569 15.3251C21.1745 15.3341 21.1837 15.3445 21.1861 15.3478C21.189 15.3516 21.1646 15.3188 21.1646 15.2232H20.2177ZM21.1139 16.2604H22.3821V15.3134H21.1139V16.2604ZM22.3821 16.2604C22.6651 16.2604 22.9083 16.128 23.0673 15.916C23.2181 15.7149 23.2783 15.4659 23.2783 15.2232H22.3314C22.3314 15.3188 22.307 15.3516 22.3098 15.3478C22.3123 15.3445 22.3214 15.3341 22.3391 15.3251C22.3573 15.3158 22.3736 15.3134 22.3821 15.3134V16.2604ZM23.2783 15.2232V14.3778H22.3314V15.2232H23.2783ZM23.2783 14.3778C23.2783 13.8937 23.1361 13.4386 22.8771 13.0932C22.6167 12.7459 22.2222 12.4952 21.748 12.4952V13.4421C21.8655 13.4421 21.9995 13.5013 22.1196 13.6614C22.241 13.8233 22.3314 14.0727 22.3314 14.3778H23.2783ZM12.659 18.2332H24.073V17.2862H12.659V18.2332ZM8.43164 4.1418H14.1386V3.19487H8.43164V4.1418ZM13.6652 3.66833V8.06484H14.6121V3.66833H13.6652ZM14.4276 7.68976L8.72059 3.29326L8.1427 4.04341L13.8497 8.43991L14.4276 7.68976ZM13.9273 4.1418H14.5614V3.19487H13.9273V4.1418ZM15.0349 3.66833V1.97737H14.0879V3.66833H15.0349ZM14.5614 1.5039H8.85439V2.45084H14.5614V1.5039ZM10.4946 19.7325V23.6781H11.4416V19.7325H10.4946ZM10.9681 23.2046H9.69987V24.1515H10.9681V23.2046ZM10.1733 23.6781V19.7325H9.2264V23.6781H10.1733ZM9.69987 20.2059H10.9681V19.259H9.69987V20.2059ZM10.9681 18.6954H9.69987V19.6423H10.9681V18.6954ZM9.69987 18.6954C9.41689 18.6954 9.17364 18.8277 9.0146 19.0397C8.86383 19.2408 8.80366 19.4898 8.80366 19.7325H9.7506C9.7506 19.6369 9.77497 19.6042 9.77215 19.6079C9.7697 19.6112 9.76053 19.6216 9.74286 19.6306C9.72467 19.64 9.70832 19.6423 9.69987 19.6423V18.6954ZM8.80366 19.7325V23.6781H9.7506V19.7325H8.80366ZM8.80366 23.6781C8.80366 23.9207 8.86383 24.1698 9.0146 24.3708C9.17364 24.5828 9.41689 24.7152 9.69987 24.7152V23.7682C9.70832 23.7682 9.72467 23.7706 9.74286 23.7799C9.76053 23.789 9.7697 23.7993 9.77215 23.8026C9.77497 23.8064 9.7506 23.7736 9.7506 23.6781H8.80366ZM9.69987 24.7152H10.9681V23.7682H9.69987V24.7152ZM10.9681 24.7152C11.2511 24.7152 11.4943 24.5828 11.6534 24.3708C11.8041 24.1698 11.8643 23.9207 11.8643 23.6781H10.9174C10.9174 23.7736 10.893 23.8064 10.8958 23.8026C10.8983 23.7993 10.9074 23.789 10.9251 23.7799C10.9433 23.7706 10.9596 23.7682 10.9681 23.7682V24.7152ZM11.8643 23.6781V19.7325H10.9174V23.6781H11.8643ZM11.8643 19.7325C11.8643 19.4898 11.8041 19.2408 11.6534 19.0397C11.4943 18.8277 11.2511 18.6954 10.9681 18.6954V19.6423C10.9596 19.6423 10.9433 19.64 10.9251 19.6306C10.9074 19.6216 10.8983 19.6112 10.8958 19.6079C10.893 19.6042 10.9174 19.6369 10.9174 19.7325H11.8643ZM10.8074 15.5051V3.95016H9.86051V15.5051H10.8074ZM8.43164 15.9785H12.2363V15.0316H8.43164V15.9785ZM8.43164 13.1603H12.2363V12.2133H8.43164V13.1603ZM8.43164 10.342H12.2363V9.39506H8.43164V10.342ZM8.43164 8.08738H13.9273V7.14044H8.43164V8.08738ZM8.43164 5.83277H13.9273V4.88583H8.43164V5.83277Z" fill="#827AC7"/>
</svg>
