<svg width="24" height="30" viewBox="0 0 24 30" fill="none" xmlns="http://www.w3.org/2000/svg">
<path d="M23.5904 14.7473L17.1794 7.31049V2.77181C17.1794 2.26952 17.0074 1.7878 16.7012 1.43263C16.395 1.07746 15.9798 0.87793 15.5468 0.87793H1.66921C1.23621 0.87793 0.820935 1.07746 0.514753 1.43263C0.208571 1.7878 0.0365601 2.26952 0.0365601 2.77181V24.5514C0.0365601 25.0537 0.208571 25.5354 0.514753 25.8906C0.820935 26.2457 1.23621 26.4453 1.66921 26.4453H14.3525L13.9235 28.7108C13.9104 28.78 13.9108 28.8517 13.9247 28.9207C13.9387 28.9897 13.9658 29.0541 14.004 29.1093C14.0423 29.1645 14.0908 29.2091 14.1458 29.2397C14.2009 29.2703 14.2612 29.2861 14.3223 29.2861H21.6692C21.7687 29.2861 21.8647 29.2439 21.9393 29.1675C22.0138 29.0912 22.0618 28.9858 22.0741 28.8713L22.4651 25.245L23.5904 23.9392C23.667 23.8504 23.71 23.73 23.71 23.6045V15.082C23.71 14.9564 23.667 14.836 23.5904 14.7473ZM1.66921 25.4983C1.45271 25.4983 1.24507 25.3986 1.09198 25.221C0.938892 25.0434 0.852887 24.8025 0.852887 24.5514V2.77181C0.852887 2.52066 0.938892 2.27981 1.09198 2.10222C1.24507 1.92463 1.45271 1.82487 1.66921 1.82487H15.5468C15.7633 1.82487 15.9709 1.92463 16.124 2.10222C16.2771 2.27981 16.3631 2.52066 16.3631 2.77181V15.3595L14.3717 13.0494C14.142 12.7831 13.8306 12.6335 13.5059 12.6335C13.1813 12.6335 12.8699 12.7831 12.6402 13.0494L11.7537 14.0778C11.5241 14.3441 11.3952 14.7054 11.3952 15.082C11.3952 15.4587 11.5241 15.8199 11.7537 16.0862L14.7884 19.6065C14.2431 20.2856 13.9322 21.1737 13.9148 22.1015C13.8975 23.0294 14.175 23.9322 14.6945 24.638L14.5317 25.4983H1.66921ZM22.8937 23.4084L21.7888 24.6901C21.7247 24.7646 21.6837 24.8617 21.6725 24.9662L21.3088 28.3392H14.8296L15.5374 24.5987C15.552 24.5218 15.5497 24.4418 15.5309 24.366C15.5121 24.2903 15.4773 24.2212 15.4296 24.165C15.1916 23.8837 15.0068 23.5477 14.8871 23.1787C14.7675 22.8097 14.7156 22.4157 14.7348 22.0221C14.754 21.6285 14.8439 21.2439 14.9987 20.8929C15.1535 20.5419 15.3698 20.2322 15.6337 19.9838C15.6781 19.9421 15.7145 19.8899 15.7404 19.8308C15.7663 19.7717 15.7813 19.7069 15.7842 19.6406C15.7872 19.5744 15.7781 19.5082 15.7576 19.4462C15.7371 19.3843 15.7056 19.3281 15.6651 19.2812L12.3321 15.4149C12.2556 15.3261 12.2126 15.2057 12.2126 15.0801C12.2126 14.9546 12.2556 14.8342 12.3321 14.7454L13.2186 13.717C13.2951 13.6282 13.3989 13.5784 13.5072 13.5784C13.6154 13.5784 13.7192 13.6282 13.7957 13.717L17.7084 18.2557L18.2855 17.5862L17.1794 16.3064V13.8576L18.1153 14.9433L18.6925 14.2738L17.1794 12.5186V8.64946L22.8937 15.278V23.4084Z" fill="#AE8644"/>
<path d="M8.60797 14.6086C9.71647 14.6071 10.7917 14.169 11.6575 13.366C12.5232 12.563 13.1283 11.4427 13.3734 10.1887C13.6186 8.93464 13.4893 7.62122 13.0069 6.46354C12.5244 5.30586 11.7173 4.37257 10.7178 3.81655C9.71826 3.26054 8.58559 3.11475 7.50532 3.40309C6.42504 3.69142 5.4612 4.39678 4.77169 5.40361C4.08218 6.41044 3.70787 7.65906 3.71009 8.94492C3.7123 10.2308 4.09091 11.4777 4.78389 12.4813C5.24261 13.1463 5.8246 13.6829 6.48664 14.0512C7.14868 14.4195 7.87374 14.61 8.60797 14.6086ZM6.16878 9.40042C6.18567 9.98265 6.24231 10.5624 6.33817 11.1343C5.95586 11.242 5.58329 11.3918 5.22552 11.5817C4.84472 10.9325 4.61165 10.1821 4.54797 9.40042H6.16878ZM6.99817 13.2729C6.54621 13.0486 6.13301 12.7311 5.77858 12.3359C6.02681 12.2211 6.28156 12.1261 6.54103 12.0518C6.65382 12.4773 6.80714 12.8869 6.99817 13.2729ZM7.36225 11.8781C8.18837 11.7476 9.02593 11.7476 9.85205 11.8781C9.53123 12.978 9.05695 13.6616 8.60797 13.6616C8.15899 13.6616 7.6847 12.978 7.36225 11.8781ZM10.6749 12.0514C10.9344 12.1255 11.1892 12.2205 11.4374 12.3355C11.0829 12.7303 10.6697 13.0473 10.2178 13.271C10.4087 12.8856 10.5621 12.4762 10.6749 12.0514ZM10.2178 4.58097C10.6697 4.80533 11.0829 5.12279 11.4374 5.51797C11.1891 5.63283 10.9344 5.72775 10.6749 5.80205C10.5621 5.37658 10.4088 4.96703 10.2178 4.58097ZM9.85368 5.97581C9.02756 6.10633 8.19 6.10633 7.36389 5.97581C7.6847 4.87594 8.16103 4.19225 8.60797 4.19225C9.05491 4.19225 9.53123 4.87594 9.85368 5.97581ZM6.54103 5.80205C6.28153 5.72789 6.02677 5.63297 5.77858 5.51797C6.13308 5.12312 6.54627 4.80599 6.99817 4.58192C6.80724 4.9677 6.65392 5.37693 6.54103 5.80205ZM7.14919 6.89624C7.63184 6.98385 8.11945 7.02959 8.60797 7.03307C9.09647 7.02973 9.58408 6.98415 10.0667 6.89671C10.157 7.40973 10.2116 7.93033 10.23 8.45348H6.9847C7.00355 7.93029 7.05855 7.40922 7.14919 6.89624ZM10.2312 9.40042C10.2128 9.92373 10.1582 10.4445 10.068 10.9577C9.10061 10.7934 8.11778 10.7934 7.15042 10.9577C7.06021 10.4445 7.00562 9.92372 6.98715 9.40042H10.2312ZM11.99 11.5817C11.6324 11.3917 11.26 11.2418 10.8778 11.1343C10.9736 10.5624 11.0303 9.98265 11.0472 9.40042H12.668C12.6043 10.1822 12.3711 10.9326 11.99 11.5817ZM12.668 8.45348H11.0472C11.0303 7.87125 10.9736 7.29148 10.8778 6.71963C11.2601 6.6119 11.6326 6.46207 11.9904 6.2722C12.3712 6.92139 12.6043 7.67175 12.668 8.45348ZM5.22593 6.2722C5.58357 6.46201 5.95601 6.61184 6.33817 6.71963C6.24231 7.29148 6.18567 7.87125 6.16878 8.45348H4.54797C4.61161 7.67166 4.84484 6.92126 5.22593 6.2722Z" fill="#AE8644"/>
<path d="M11.057 16.029H3.71003V16.9759H11.057V16.029Z" fill="#AE8644"/>
<path d="M8.19982 18.3963H3.71003V19.3432H8.19982V18.3963Z" fill="#AE8644"/>
<path d="M13.0978 18.3963H9.01615V19.3432H13.0978V18.3963Z" fill="#AE8644"/>
<path d="M5.34268 20.2902H3.71003C3.60178 20.2902 3.49796 20.3401 3.42141 20.4288C3.34487 20.5176 3.30187 20.6381 3.30187 20.7636V24.0779H4.11819V23.131H5.34268C5.45093 23.131 5.55475 23.0811 5.6313 22.9923C5.70784 22.9035 5.75085 22.7831 5.75085 22.6575V20.7636C5.75085 20.6381 5.70784 20.5176 5.6313 20.4288C5.55475 20.3401 5.45093 20.2902 5.34268 20.2902ZM4.93452 22.1841H4.11819V21.2371H4.93452V22.1841Z" fill="#AE8644"/>
<path d="M8.19982 20.2902H6.56717C6.45892 20.2902 6.3551 20.3401 6.27856 20.4288C6.20201 20.5176 6.15901 20.6381 6.15901 20.7636V24.0779H6.97534V23.131H7.79166V24.0779H8.60799V20.7636C8.60799 20.6381 8.56499 20.5176 8.48844 20.4288C8.4119 20.3401 8.30808 20.2902 8.19982 20.2902ZM6.97534 22.1841V21.2371H7.79166V22.1841H6.97534Z" fill="#AE8644"/>
<path d="M9.01615 20.7636V22.1841C9.01615 22.3096 9.05915 22.4301 9.1357 22.5188C9.21224 22.6076 9.31606 22.6575 9.42431 22.6575H10.2406V23.131H9.01615V24.0779H10.6488C10.7571 24.0779 10.8609 24.028 10.9374 23.9393C11.014 23.8505 11.057 23.73 11.057 23.6045V22.1841C11.057 22.0585 11.014 21.9381 10.9374 21.8493C10.8609 21.7605 10.7571 21.7106 10.6488 21.7106H9.83248V21.2371H11.057V20.2902H9.42431C9.31606 20.2902 9.21224 20.3401 9.1357 20.4288C9.05915 20.5176 9.01615 20.6381 9.01615 20.7636Z" fill="#AE8644"/>
<path d="M11.4651 20.7636V22.1841C11.4651 22.3096 11.5081 22.4301 11.5847 22.5188C11.6612 22.6076 11.765 22.6575 11.8733 22.6575H12.6896V23.131H11.4651V24.0779H13.0978C13.206 24.0779 13.3099 24.028 13.3864 23.9393C13.4629 23.8505 13.5059 23.73 13.5059 23.6045V22.1841C13.5059 22.0585 13.4629 21.9381 13.3864 21.8493C13.3099 21.7605 13.206 21.7106 13.0978 21.7106H12.2815V21.2371H13.5059V20.2902H11.8733C11.765 20.2902 11.6612 20.3401 11.5847 20.4288C11.5081 20.5176 11.4651 20.6381 11.4651 20.7636Z" fill="#AE8644"/>
<path d="M2.07738 3.24528H1.26105V24.0779H2.07738V3.24528Z" fill="#AE8644"/>
</svg>
