<svg width="24" height="23" viewBox="0 0 24 23" fill="none" xmlns="http://www.w3.org/2000/svg">
<path d="M11.506 9.36983L14.42 4.59727L17.3692 9.35117L17.5963 9.71773H19.0645L17.3691 6.98497L14.4199 2.23059L11.5059 7.00362L9.84863 9.71759H11.2943L11.506 9.36983Z" fill="black"/>
<path d="M15.5611 7.91838C15.5611 8.51028 15.0666 8.99015 14.4566 8.99015C13.8465 8.99015 13.3521 8.51028 13.3521 7.91838C13.3521 7.3263 13.8465 6.84644 14.4566 6.84644C15.0666 6.84644 15.5611 7.3263 15.5611 7.91838Z" fill="black"/>
<path d="M12.0442 9.71826V12.5409L9.77621 12.5241L7.42187 12.5061V16.0375H4.83887V18.0488H9.36667V14.5177L11.7207 14.5358L13.9892 14.5527V11.7298H16.6008V9.7183L12.0442 9.71826Z" fill="black"/>
<path d="M11.5152 0C5.15547 0 0 5.14894 0 11.503C0 17.8515 5.15547 23 11.5152 23C17.8753 23 23.0308 17.8515 23.0308 11.503C23.0308 5.14894 17.8748 0 11.5152 0ZM11.5771 21.8597C5.79993 21.8597 1.11552 17.2289 1.11552 11.5175C1.11552 5.80562 5.79993 1.1753 11.5771 1.1753C17.3543 1.1753 22.0387 5.80548 22.0387 11.5175C22.0387 17.2289 17.3543 21.8597 11.5771 21.8597Z" fill="black"/>
</svg>
