<svg width="65" height="65" viewBox="0 0 65 65" fill="none" xmlns="http://www.w3.org/2000/svg">
<circle cx="32.5" cy="32.5" r="32.5" fill="#425066"/>
<path d="M41.6456 23.1897C42.2304 23.1897 42.7913 22.9569 43.2049 22.5425C43.6185 22.1278 43.8507 21.5654 43.8507 20.9791C43.851 20.3931 43.6187 19.8306 43.2052 19.416C42.7916 19.0014 42.2309 18.7682 41.6462 18.7682C41.0614 18.7682 40.5004 19.0011 40.0869 19.4157C39.6733 19.8304 39.4411 20.3928 39.4411 20.9791C39.4416 21.5649 39.6742 22.127 40.0875 22.5413C40.5007 22.9557 41.0611 23.1889 41.6456 23.1897ZM41.6456 19.7022C41.9832 19.7022 42.307 19.837 42.5458 20.0762C42.7847 20.3157 42.9188 20.6403 42.9188 20.9791C42.9188 21.3176 42.7847 21.6422 42.5458 21.8818C42.307 22.121 41.9832 22.2557 41.6456 22.2557C41.3077 22.2557 40.9839 22.121 40.745 21.8818C40.5065 21.6423 40.3723 21.3176 40.3723 20.9791C40.3726 20.6407 40.5067 20.316 40.7456 20.0765C40.9842 19.8373 41.308 19.7028 41.6456 19.7022ZM37.501 26.5921C37.526 26.6172 37.5536 26.6395 37.5836 26.6582C38.7374 27.5828 40.1706 28.0863 41.6476 28.0863C43.1246 28.0863 44.5578 27.5828 45.7116 26.6582C45.7415 26.6395 45.7692 26.6175 45.7942 26.5924C47.1868 25.444 48.0433 23.7684 48.1599 21.964C48.2764 20.1593 47.6427 18.387 46.4095 17.0678C45.176 15.7485 43.4532 15 41.6496 15C39.8462 15 38.1232 15.7485 36.8897 17.0678C35.6565 18.387 35.0227 20.1594 35.1393 21.964C35.2558 23.7684 36.1123 25.444 37.5053 26.5924L37.501 26.5921ZM38.4314 26.1287C39.1083 24.9961 40.3286 24.3027 41.6456 24.3027C42.9626 24.3027 44.1829 24.9961 44.8595 26.1287C43.9192 26.7941 42.7965 27.1514 41.6456 27.1514C40.4947 27.1514 39.3717 26.7942 38.4314 26.1287ZM41.6456 15.9383C43.1312 15.9377 44.5561 16.5301 45.6054 17.5851C46.6544 18.64 47.2416 20.0705 47.2367 21.56C47.2318 23.0498 46.6355 24.4764 45.5796 25.5242C44.719 24.1812 43.2363 23.3692 41.6442 23.3692C40.0521 23.3692 38.5694 24.1812 37.7091 25.5242C36.6529 24.4761 36.0565 23.0492 36.052 21.5594C36.0474 20.0693 36.6348 18.6389 37.6844 17.584C38.734 16.5293 40.1595 15.9369 41.6457 15.9384L41.6456 15.9383ZM49.5342 47.1515H47.69V31.2627C47.6897 31.005 47.4813 30.7961 47.224 30.7961H42.9217C42.7982 30.7961 42.6796 30.8452 42.5921 30.9326C42.5049 31.0203 42.4557 31.1389 42.4557 31.2627V47.1515H40.5971V38.4385C40.5971 38.1814 40.3898 37.9725 40.1334 37.9713H35.8288C35.5715 37.9716 35.3631 38.1805 35.3628 38.4385V47.1515H33.5062V46.3427H33.6214C33.9408 46.3424 34.247 46.2149 34.473 45.9884C34.6989 45.7622 34.8258 45.4551 34.8261 45.1348V36.8783C35.1274 36.7583 35.3853 36.5493 35.5661 36.2793C35.7465 36.0092 35.8412 35.6906 35.8375 35.3657V32.5379C35.8375 32.1757 35.6941 31.8286 35.4386 31.5724C35.1833 31.3164 34.8371 31.1727 34.4759 31.1727H32.0002V29.7144C31.9996 29.2019 31.7964 28.7105 31.4347 28.3481C31.0732 27.9856 30.583 27.7816 30.0719 27.781H20.4409C19.9301 27.7819 19.4402 27.9859 19.0791 28.3483C18.7176 28.7108 18.5144 29.2022 18.5138 29.7144V31.1733L16.3616 31.1736C16.0007 31.1736 15.6542 31.3173 15.399 31.5732C15.1437 31.8295 15.0001 32.1766 15.0001 32.5387V35.3666C14.9966 35.6915 15.0913 36.01 15.2718 36.2801C15.4522 36.5502 15.7101 36.7591 16.0114 36.8792V45.1349C16.0117 45.4549 16.1389 45.762 16.3645 45.9885C16.5905 46.215 16.8964 46.3423 17.2159 46.3429H28.2711V47.1517H21.4954C21.239 47.1522 21.0312 47.3609 21.0309 47.6183V49.5322C21.0303 49.7899 21.2384 49.9994 21.4954 50H49.5346C49.6581 50 49.7767 49.9509 49.8639 49.8632C49.9511 49.7758 50.0003 49.6569 50 49.5331V47.6182C50 47.4944 49.9511 47.3756 49.8639 47.2881C49.7764 47.2007 49.6581 47.1516 49.5346 47.1516L49.5342 47.1515ZM43.3865 31.7296H46.7578V47.1515H43.3871L43.3865 31.7296ZM36.2963 38.9057H39.6676V47.1512H36.2963V38.9057ZM19.4434 29.714C19.4443 29.1623 19.8904 28.7153 20.4406 28.7142H30.071C30.6215 28.7153 31.0673 29.1623 31.0682 29.714V31.173L30.5363 31.1733V29.7365C30.5357 29.4131 30.2741 29.1511 29.9515 29.1508H20.5599C20.237 29.1511 19.9751 29.4134 19.9748 29.7374V31.1741H19.443L19.4434 29.714ZM29.6057 31.173L20.9067 31.1733V30.084H29.6057V31.173ZM15.932 32.5381V32.5384C15.9326 32.3009 16.1245 32.1084 16.3611 32.1081H34.4738C34.711 32.1081 34.9029 32.3006 34.9035 32.5384V35.3662C34.9096 35.6542 34.7346 35.9148 34.4661 36.0178L34.1771 36.1344C31.1837 37.3469 29.2586 38.1043 27.6582 38.4794V38.3418H27.6585C27.6585 38.1661 27.5888 37.9979 27.4651 37.8738C27.3413 37.7494 27.1732 37.6799 26.9982 37.6799H23.8408C23.4762 37.6799 23.1806 37.9762 23.1806 38.3418V38.4794C21.579 38.1043 19.6539 37.3469 16.6617 36.1347H16.6571L16.3713 36.0189C16.1028 35.9165 15.9272 35.6559 15.933 35.3677L15.932 32.5381ZM24.1123 39.0459V38.6131H26.7241V39.7255L25.418 40.8163L24.1123 39.7255L24.1123 39.0459ZM17.2166 45.408C17.0667 45.406 16.9458 45.2845 16.9441 45.1342V37.2552C19.7453 38.3855 21.584 39.0878 23.1807 39.4361V39.8527C23.179 40.0492 23.2662 40.2362 23.4178 40.3609L24.9955 41.6804V41.6807C25.2405 41.8853 25.5962 41.8853 25.8411 41.6807L27.4189 40.3609C27.5705 40.2362 27.6577 40.0495 27.656 39.853V39.436C29.2524 39.0878 31.0918 38.3854 33.8926 37.2552V45.1342C33.8906 45.2845 33.7697 45.406 33.6195 45.408H33.5044V41.1334C33.5044 40.8754 33.296 40.6665 33.0387 40.6665H28.7361C28.4791 40.6668 28.2707 40.8757 28.2705 41.1334V45.4074L17.2166 45.408ZM29.2024 41.6022H32.5734L32.5731 47.1515H29.2021L29.2024 41.6022ZM49.0686 49.0646H21.9614V48.0847H49.0686V49.0646Z" fill="white"/>
</svg>
