<svg width="65" height="65" viewBox="0 0 65 65" fill="none" xmlns="http://www.w3.org/2000/svg">
<circle cx="32.5" cy="32.5" r="32.5" fill="#425066"/>
<path d="M26.22 31.8223C23.763 31.8223 21.7485 33.837 21.7485 36.2938C21.7485 38.7508 23.7633 40.7652 26.22 40.7652C28.677 40.7652 30.6915 38.7505 30.6915 36.2938C30.7408 33.837 28.7261 31.8223 26.22 31.8223ZM26.22 39.7337C24.3037 39.7337 22.7313 38.1613 22.7313 36.2449C22.7313 34.3286 24.3037 32.7562 26.22 32.7562C28.1364 32.7562 29.7088 34.3286 29.7088 36.2449C29.7088 38.1613 28.1856 39.7337 26.22 39.7337Z" fill="white"/>
<path d="M47.9398 22.8794H45.0898V21.5526C45.0898 18.5061 42.8785 16 40.176 16C37.4734 16 35.2623 18.5061 35.2623 21.5526V22.8794H32.4123C32.1176 22.8794 31.921 23.076 31.921 23.3707V29.7585C30.2503 28.6283 28.2847 28.0388 26.2702 28.0388C20.5699 28.0388 16 32.6578 16 38.2592C16 43.9593 20.619 48.4796 26.2204 48.4796C32.0186 48.4796 36.5393 43.615 36.4901 38.4063H45.4822C47.1037 38.4063 48.4305 37.0795 48.4305 35.458V23.3699C48.4305 23.0749 48.2339 22.8783 47.9391 22.8783L47.9398 22.8794ZM36.2449 21.5528C36.2449 19.0468 38.0139 16.983 40.1759 16.983C42.3379 16.983 44.107 19.0468 44.107 21.5528V22.8796H36.2448L36.2449 21.5528ZM19.9309 45.0405C20.717 43.3207 22.437 42.1412 24.3533 42.1412H28.0877C30.004 42.1412 31.7731 43.2715 32.5101 45.0405C30.7904 46.662 28.579 47.5465 26.2202 47.5465C23.8614 47.5465 21.6503 46.662 19.9303 45.0405H19.9309ZM33.2966 44.3034C32.3138 42.3871 30.2991 41.1585 28.1371 41.1585H24.3533C22.1913 41.1585 20.1766 42.3868 19.1939 44.3034C17.769 42.6327 16.9826 40.5199 16.9826 38.2596C16.9826 33.1493 21.1593 29.0214 26.2208 29.0214C28.2846 29.0214 30.2993 29.7094 31.8716 30.9869V35.5076C31.8716 37.1292 33.1983 38.456 34.8199 38.456H35.4587C35.5569 40.1266 34.8689 42.4361 33.2967 44.3034H33.2966ZM47.4481 35.4584C47.4481 36.5395 46.5636 37.4238 45.4826 37.4238H34.869C33.7879 37.4238 32.9036 36.5393 32.9036 35.4584L32.9033 23.862H35.2619V24.2552C34.7215 24.4517 34.2792 24.9922 34.2792 25.631C34.2792 26.4172 34.9181 27.1051 35.7533 27.1051C36.5394 27.1051 37.2273 26.4663 37.2273 25.631C37.2273 24.9922 36.8341 24.4518 36.2446 24.2552V23.862H44.1068V24.2552C43.5664 24.4517 43.1241 24.9922 43.1241 25.631C43.1241 26.4172 43.7629 27.1051 44.5981 27.1051C45.3842 27.1051 46.0722 26.4663 46.0722 25.631C46.0722 24.9922 45.679 24.4518 45.0895 24.2552V23.862H47.4483L47.4481 35.4584ZM35.7532 25.0903C35.9989 25.0903 36.2446 25.2869 36.2446 25.5817C36.2446 25.8273 36.048 26.073 35.7532 26.073C35.5075 26.073 35.2618 25.8764 35.2618 25.5817C35.2618 25.336 35.5075 25.0903 35.7532 25.0903ZM44.5982 25.0903C44.8439 25.0903 45.0895 25.2869 45.0895 25.5817C45.0895 25.8273 44.893 26.073 44.5982 26.073C44.3525 26.073 44.1068 25.8764 44.1068 25.5817C44.1068 25.336 44.3525 25.0903 44.5982 25.0903Z" fill="white"/>
<path d="M40.1752 26.7612C37.4725 26.7612 35.3105 28.9726 35.3105 31.675C35.3105 34.3777 37.5219 36.5888 40.1752 36.5888C42.8285 36.5888 45.0399 34.3774 45.0399 31.675C45.0399 28.9235 42.8779 26.7612 40.1752 26.7612ZM40.1752 35.557C38.0132 35.557 36.2933 33.7879 36.2933 31.6259C36.2933 29.464 38.0623 27.6949 40.1752 27.6949C42.3372 27.6949 44.0571 29.464 44.0571 31.6259C44.0571 33.7882 42.3374 35.557 40.1752 35.557Z" fill="white"/>
<path d="M40.5194 31.1343V29.7094C40.9126 29.7584 41.2564 29.9059 41.6005 30.1516L42.0918 29.4637C41.6005 29.1198 41.0601 28.9232 40.5194 28.8739V28.4807H40.028V28.8739C39.5367 28.923 39.1435 29.0705 38.8488 29.3161C38.554 29.6109 38.4065 29.955 38.4065 30.3973C38.4065 30.8395 38.554 31.1834 38.7997 31.38C39.0454 31.6257 39.4876 31.7732 40.0281 31.9204V33.3945C39.5858 33.3454 39.1436 33.0997 38.7504 32.7556L38.21 33.3945C38.7504 33.8858 39.3892 34.1315 40.0772 34.2299V34.7704H40.5685V34.2299C41.0599 34.1808 41.5021 34.0333 41.7969 33.7877C42.0917 33.4929 42.2392 33.1488 42.2392 32.7065C42.2392 32.2643 42.0917 31.9204 41.846 31.6748C41.5021 31.4784 41.109 31.2818 40.5195 31.1343L40.5194 31.1343ZM40.028 30.9868C39.7333 30.8886 39.5367 30.7902 39.4382 30.692C39.3401 30.5939 39.2907 30.4464 39.2907 30.2989C39.2907 30.1514 39.3398 30.0041 39.4873 29.8566C39.6348 29.7584 39.7821 29.66 40.0278 29.66L40.028 30.9868ZM41.0598 33.1981C40.9123 33.2963 40.7159 33.3947 40.47 33.3947V32.0188C40.7648 32.117 40.9614 32.2154 41.1088 32.3136C41.207 32.4118 41.2563 32.5593 41.2563 32.7559C41.2563 32.9524 41.2073 33.0999 41.0598 33.1981Z" fill="white"/>
</svg>
