<svg width="22" height="28" viewBox="0 0 22 28" fill="none" xmlns="http://www.w3.org/2000/svg">
<path fill-rule="evenodd" clip-rule="evenodd" d="M20.245 5.67362L14.9474 2.97673C14.433 1.25386 12.8603 0 10.9999 0C9.13982 0 7.56691 1.25386 7.0527 2.97673L1.75516 5.67362C1.53695 5.78471 1.39285 6.00525 1.37673 6.25322L0.00158261 27.2528C-0.0308739 27.7492 0.44147 28.1207 0.905071 27.9635L5.03005 26.5633C5.31065 26.4682 5.5001 26.2008 5.5001 25.8994V21.6076L8.55629 23.682C9.01322 23.9921 9.62508 23.6586 9.62508 23.0996V20.9996H12.3749V23.0996C12.3749 23.6586 12.987 23.9921 13.4439 23.682L16.4999 21.6076V25.8994C16.4999 26.2008 16.6893 26.4682 16.9702 26.5633L21.0951 27.9635C21.5587 28.1207 22.0311 27.7492 21.9984 27.2528L20.6235 6.25322C20.6071 6.00525 20.4633 5.78471 20.245 5.67362H20.245ZM13.711 3.72785C13.4907 2.40626 12.3607 1.39983 10.9998 1.39983C9.63918 1.39983 8.50917 2.4062 8.28889 3.72761L9.61802 13.2008L9.62424 19.5991H12.3755L12.3819 13.2008L13.711 3.72785ZM13.7499 19.5994V21.7914L16.8061 19.717C17.263 19.4069 17.8749 19.7405 17.8749 20.2994V25.3949L20.5582 26.3054L19.2777 6.7464L15.9744 5.06481L17.8024 8.78684C17.9348 9.05637 17.8827 9.38191 17.6735 9.59497L13.7499 13.579L13.7499 19.5994ZM6.02559 5.06463L2.72236 6.74622L1.44162 26.3053L4.12515 25.3947V20.2992C4.12515 19.7403 4.737 19.4068 5.19393 19.7168L8.24989 21.7912V19.5992H8.25012V13.5789L4.32633 9.59485C4.11708 9.3818 4.06529 9.05626 4.19765 8.78672L6.02559 5.06463ZM5.649 8.9615L7.97184 11.3265L7.19451 5.81461L5.649 8.9615ZM16.351 8.9615L14.8057 5.81461L14.0284 11.3265L16.351 8.9615ZM16.7013 17.9943L15.3264 16.5942C15.058 16.3209 15.058 15.8775 15.3264 15.6042C15.595 15.3309 16.0301 15.3309 16.2987 15.6042L17.6736 17.0041C17.9423 17.2776 17.9423 17.7208 17.6736 17.9943C17.4052 18.2674 16.97 18.2674 16.7013 17.9943ZM5.29869 17.9943L6.67384 16.5942C6.94224 16.3209 6.94224 15.8775 6.67384 15.6042C6.40521 15.3309 5.96994 15.3309 5.70152 15.6042L4.32637 17.0041C4.05797 17.2776 4.05797 17.7208 4.32637 17.9943C4.595 18.2674 5.03027 18.2674 5.29869 17.9943ZM11 5.59916C10.6204 5.59916 10.3124 5.91251 10.3124 6.29923C10.3124 6.6857 10.6204 6.99905 11 6.99905C11.3798 6.99905 11.6876 6.6857 11.6876 6.29923C11.6876 5.91251 11.3798 5.59916 11 5.59916Z" fill="#6D5C41"/>
</svg>
