<svg width="65" height="65" viewBox="0 0 65 65" fill="none" xmlns="http://www.w3.org/2000/svg">
<circle cx="32.5" cy="32.5" r="32.5" fill="#425066"/>
<path fill-rule="evenodd" clip-rule="evenodd" d="M41.0758 15.5205L38.8919 21.78L37.0422 19.9393C36.8422 19.7402 36.5599 19.6476 36.281 19.6897C36.0016 19.7326 35.7595 19.9044 35.6273 20.154L31.3813 28.1861L27.0481 23.3954C26.8563 23.1831 26.5745 23.0764 26.2912 23.1079C26.007 23.1386 25.7548 23.3046 25.6142 23.5532L18.8117 35.5505C17.9841 35.9471 16.9668 36.3854 15.5991 36.8574C15.2407 36.9808 15 37.3186 15 37.6982V46.8898C15 47.2729 15.245 47.6128 15.6086 47.7338C15.6086 47.7338 17.9687 48.5438 20.325 46.9735C22.1244 45.7745 24.6394 44.9655 29.3229 47.0465C33.2048 48.7709 35.9261 47.9781 38.9541 46.0898C40.8027 44.9372 42.7777 43.3496 45.2779 41.7269C47.8366 40.0657 49.1116 38.4617 49.6476 37.2241C50.1005 36.1793 50.0629 35.3202 49.8365 34.7537C49.6346 34.2497 49.1857 33.5654 48.2156 33.2382C47.4473 32.9785 46.2621 32.9382 44.4646 33.6562L37.5692 36.4131C37.405 36.2394 37.2209 36.0673 37.0194 35.8976C36.9725 35.8579 36.9237 35.8182 36.8745 35.779L40.0585 29.7573C40.058 29.7573 42.0573 31.7475 42.0573 31.7475C42.2745 31.9633 42.5864 32.0528 42.8847 31.9839C43.1831 31.9154 43.4252 31.6988 43.5256 31.41L46.1751 23.815L46.547 24.5147C46.7771 24.9488 47.3164 25.1138 47.7502 24.8837C48.1837 24.6534 48.3493 24.1152 48.1191 23.6811L46.792 21.1815C46.5743 20.7707 46.0759 20.597 45.6499 20.7831L43.0557 21.9164C42.6052 22.1131 42.3994 22.638 42.5965 23.0875C42.7927 23.5376 43.3179 23.7433 43.7681 23.5463L44.4949 23.2292L42.311 29.4886L40.4613 27.648C40.2613 27.4489 39.979 27.3563 39.7001 27.3983C39.4207 27.4412 39.1786 27.613 39.047 27.8627L35.3746 34.8084C34.4081 34.2975 33.2288 33.8533 31.8484 33.5468C29.6294 33.0538 27.4077 32.9562 25.2838 33.1925C23.6637 33.3723 22.6319 33.686 21.6734 34.1112L26.5546 25.5023L30.914 30.3222C31.1084 30.5374 31.3963 30.6446 31.6847 30.6087C31.9723 30.5724 32.225 30.3979 32.3608 30.1411L36.639 22.0487L38.6383 24.0389C38.8552 24.2547 39.1675 24.3442 39.4657 24.2753C39.7636 24.2068 40.0057 23.9902 40.1066 23.7014L42.7559 16.1064L43.128 16.8061C43.3581 17.2402 43.8974 17.4051 44.3312 17.1751C44.7647 16.9448 44.9303 16.4066 44.7001 15.9725L43.373 13.4729C43.1547 13.062 42.6569 12.8884 42.2304 13.0745L39.6364 14.2078C39.1862 14.4045 38.9804 14.9294 39.1775 15.3789C39.3737 15.829 39.8989 16.0347 40.3491 15.8377L41.0758 15.5205ZM36.5824 37.9951C35.7992 36.9248 34.03 35.8532 31.4626 35.2835C29.4408 34.834 27.416 34.745 25.4807 34.9602C23.6124 35.1678 22.6497 35.5805 21.535 36.1544C20.3999 36.7397 19.121 37.4751 16.7799 38.326V46.1514C17.3846 46.2025 18.3603 46.1445 19.3376 45.4933C21.4797 44.0659 24.4722 42.944 30.0461 45.4205C33.259 46.8476 35.5065 46.1432 38.0121 44.5807C39.853 43.4326 41.819 41.8506 44.3083 40.2347C46.4488 38.8446 47.5659 37.5525 48.0146 36.5172C48.218 36.0465 48.2863 35.6692 48.1841 35.4144C47.9913 34.9333 47.2894 34.4431 45.1254 35.3082L38.5592 37.9332C38.577 37.9824 38.5937 38.0317 38.6085 38.0804C38.8386 38.8399 38.7306 39.5361 38.3291 40.0995C37.9771 40.5935 37.3643 41.0091 36.4283 41.196C35.1824 41.4451 33.9596 41.2865 32.7778 40.8373C31.6062 40.3912 29.5308 39.9221 28.2649 39.7704C27.7773 39.7117 27.429 39.2688 27.4872 38.7811C27.5458 38.2938 27.9897 37.9457 28.4767 38.0039C29.8614 38.1704 32.1301 38.6869 33.4114 39.175C34.2753 39.5035 35.1681 39.6341 36.0792 39.4519C36.5149 39.3648 36.8232 39.2462 36.9212 38.99C37.0737 38.5921 36.5824 37.9948 36.5824 37.9948L36.5824 37.9951Z" fill="white"/>
</svg>
