<svg width="26" height="25" viewBox="0 0 26 25" fill="none" xmlns="http://www.w3.org/2000/svg">
<path d="M11.811 24.1242C11.746 24.1242 11.6825 24.1063 11.6258 24.0706C11.5282 24.0072 11.4697 23.9 11.4697 23.783V10.6596C11.4697 10.5264 11.5477 10.4044 11.6697 10.3491L22.978 5.19084C23.0836 5.14217 23.2072 5.15184 23.3047 5.21351C23.4022 5.27695 23.4607 5.38413 23.4607 5.50116V11.7192C23.4607 11.9077 23.308 12.0604 23.1195 12.0604C22.9309 12.0604 22.7782 11.9077 22.7782 11.7192V6.03106L12.1523 10.8794V23.252L15.2256 21.8494C15.3978 21.7714 15.5993 21.8463 15.6773 22.0185C15.7553 22.1907 15.6805 22.3922 15.5083 22.4702L11.9523 24.0923C11.907 24.1134 11.8581 24.1246 11.811 24.1246L11.811 24.1242Z" fill="#3B3B3B"/>
<path d="M4.57013 19.1072C4.52146 19.1072 4.47419 19.0976 4.42868 19.0763L1.81862 17.8867C1.69667 17.8316 1.61865 17.7096 1.61865 17.5762V15.1969C1.61865 15.0814 1.67717 14.9726 1.77469 14.9092C1.87221 14.8458 1.99574 14.8377 2.10135 14.8865L4.71141 16.0779C4.83335 16.1331 4.91137 16.255 4.91137 16.3884V18.7678C4.91137 18.8832 4.85286 18.992 4.75533 19.0554C4.6984 19.0893 4.63339 19.1072 4.57013 19.1072ZM2.30126 17.3568L4.22871 18.236V16.6075L2.30126 15.7282V17.3568Z" fill="#3B3B3B"/>
<path d="M11.8104 24.1244C11.7618 24.1244 11.7145 24.1148 11.669 24.0935L0.361097 18.9353C0.239152 18.8801 0.161133 18.7582 0.161133 18.6248V5.49959C0.161133 5.38414 0.219647 5.27537 0.317171 5.21194C0.414694 5.14851 0.538223 5.14043 0.643826 5.18927L11.9522 10.3475C12.0741 10.4027 12.1521 10.5246 12.1521 10.658V23.7814C12.1521 23.8968 12.0936 24.0056 11.9961 24.069C11.9392 24.1065 11.8741 24.1242 11.8107 24.1242L11.8104 24.1244ZM0.84352 18.4053L11.469 23.2531L11.4692 10.8787L0.843695 6.03083L0.84352 18.4053Z" fill="#3B3B3B"/>
<path d="M7.1305 11.8866C7.08341 11.8866 7.03456 11.8769 6.98905 11.8557L4.48456 10.7132C4.31236 10.6352 4.2375 10.432 4.31552 10.2614C4.39354 10.0892 4.59667 10.0144 4.76729 10.0924L7.27178 11.2349C7.44398 11.3129 7.51884 11.516 7.44082 11.6866C7.38406 11.8119 7.26053 11.8866 7.1305 11.8866Z" fill="#3B3B3B"/>
<path d="M23.1171 5.84085C23.07 5.84085 23.0212 5.83119 22.9757 5.80993L11.8104 0.716473L0.643755 5.80993C0.471555 5.88794 0.270008 5.81309 0.191989 5.64089C0.11397 5.46869 0.188826 5.26714 0.361027 5.18912L11.6689 0.0304426C11.7584 -0.0101475 11.8624 -0.0101475 11.9516 0.0304426L23.26 5.18867C23.4322 5.26669 23.507 5.46982 23.429 5.64044C23.3705 5.7673 23.247 5.84058 23.1169 5.84058L23.1171 5.84085Z" fill="#3B3B3B"/>
<path d="M4.62552 7.7229C4.49549 7.7229 4.37197 7.64821 4.31504 7.52293C4.23702 7.35073 4.31187 7.14918 4.48407 7.07116L15.7924 1.91294C15.9646 1.83492 16.1662 1.90977 16.2442 2.08197C16.3222 2.25417 16.2473 2.45572 16.0751 2.53374L4.76725 7.69197C4.72174 7.71323 4.67261 7.7229 4.62552 7.7229Z" fill="#3B3B3B"/>
<path d="M7.1303 8.86511C6.94176 8.86511 6.78906 8.71242 6.78906 8.52387C6.78906 8.38242 6.87516 8.26065 6.99711 8.20864L18.2956 3.05356C18.4678 2.97554 18.6693 3.0504 18.7473 3.2226C18.8253 3.3948 18.7505 3.59635 18.5783 3.67437L7.27174 8.83439C7.22799 8.8539 7.17914 8.86532 7.13047 8.86532L7.1303 8.86511Z" fill="#3B3B3B"/>
<path d="M7.13048 11.8866C6.94193 11.8866 6.78924 11.7339 6.78924 11.5454L6.78906 8.5241C6.78906 8.33556 6.94176 8.18286 7.1303 8.18286C7.31884 8.18286 7.47154 8.33556 7.47154 8.5241V11.5454C7.47171 11.7339 7.31902 11.8866 7.13048 11.8866Z" fill="#3B3B3B"/>
<path d="M4.62542 10.744C4.43688 10.744 4.28418 10.5913 4.28418 10.4028V7.38152C4.28418 7.19298 4.43688 7.04028 4.62542 7.04028C4.81396 7.04028 4.96666 7.19298 4.96666 7.38152V10.4028C4.96666 10.5913 4.81396 10.744 4.62542 10.744Z" fill="#3B3B3B"/>
<path d="M24.1343 23.1261H15.9172C15.4248 23.1261 15.0249 22.7264 15.0249 22.2339L15.0251 12.2683C15.0251 11.7759 15.4248 11.376 15.9174 11.376H17.8188C18.0073 11.376 18.16 11.5287 18.16 11.7172C18.16 11.9058 18.0073 12.0585 17.8188 12.0585H15.9174C15.8019 12.0585 15.7077 12.1526 15.7077 12.2681V22.2337C15.7077 22.3491 15.8019 22.4433 15.9174 22.4433H24.1345C24.2499 22.4433 24.3441 22.3491 24.3441 22.2337V12.2681C24.3441 12.1526 24.2499 12.0585 24.1345 12.0585H22.233C22.0445 12.0585 21.8918 11.9058 21.8918 11.7172C21.8918 11.5287 22.0445 11.376 22.233 11.376H24.1345C24.6268 11.376 25.0267 11.7757 25.0267 12.2683V22.2339C25.0266 22.726 24.6268 23.1258 24.1343 23.1258L24.1343 23.1261Z" fill="#3B3B3B"/>
<path d="M21.0889 11.4052C20.9004 11.4052 20.7477 11.2525 20.7477 11.0639V10.474C20.7477 10.4595 20.7363 10.448 20.7217 10.448H19.3306C19.316 10.448 19.3045 10.4595 19.3045 10.474V11.0639C19.3045 11.2525 19.1519 11.4052 18.9633 11.4052C18.7748 11.4052 18.6221 11.2525 18.6221 11.0639V10.474C18.6221 10.084 18.9406 9.76538 19.3307 9.76538H20.7219C21.112 9.76538 21.4306 10.084 21.4306 10.474V11.0639C21.4302 11.2525 21.2775 11.4052 21.0889 11.4052Z" fill="#3B3B3B"/>
<path d="M21.5828 12.9459H18.4689C17.9228 12.9459 17.4775 12.5006 17.4775 11.9545V11.7123C17.4775 11.1662 17.9228 10.7209 18.4689 10.7209H21.5828C22.1289 10.7209 22.5742 11.1662 22.5742 11.7123V11.9545C22.5742 12.5006 22.1289 12.9459 21.5828 12.9459ZM18.4689 11.4052C18.2983 11.4052 18.1602 11.5433 18.1602 11.7139V11.956C18.1602 12.1267 18.2983 12.2648 18.4689 12.2648H21.5828C21.7534 12.2648 21.8915 12.1267 21.8915 11.956V11.7139C21.8915 11.5433 21.7534 11.4052 21.5828 11.4052H18.4689Z" fill="#3B3B3B"/>
<path d="M22.9597 15.7318H18.9975C18.8089 15.7318 18.6562 15.5791 18.6562 15.3906C18.6562 15.202 18.8089 15.0493 18.9975 15.0493H22.9597C23.1482 15.0493 23.3009 15.202 23.3009 15.3906C23.3011 15.5791 23.1482 15.7318 22.9597 15.7318Z" fill="#3B3B3B"/>
<path d="M22.9597 17.5929H18.9975C18.8089 17.5929 18.6562 17.4402 18.6562 17.2516C18.6562 17.0631 18.8089 16.9104 18.9975 16.9104H22.9597C23.1482 16.9104 23.3009 17.0631 23.3009 17.2516C23.3011 17.4402 23.1482 17.5929 22.9597 17.5929Z" fill="#3B3B3B"/>
<path d="M22.9597 19.4537H18.9975C18.8089 19.4537 18.6562 19.301 18.6562 19.1125C18.6562 18.9239 18.8089 18.7712 18.9975 18.7712H22.9597C23.1482 18.7712 23.3009 18.9239 23.3009 19.1125C23.3011 19.3008 23.1482 19.4537 22.9597 19.4537Z" fill="#3B3B3B"/>
<path d="M17.91 15.3903C17.91 15.6165 17.7266 15.7999 17.5004 15.7999C17.2743 15.7999 17.0908 15.6165 17.0908 15.3903C17.0908 15.1642 17.2743 14.9807 17.5004 14.9807C17.7266 14.9807 17.91 15.1642 17.91 15.3903Z" fill="#3B3B3B"/>
<path d="M17.91 17.2511C17.91 17.4773 17.7266 17.6607 17.5004 17.6607C17.2743 17.6607 17.0908 17.4773 17.0908 17.2511C17.0908 17.025 17.2743 16.8416 17.5004 16.8416C17.7266 16.8416 17.91 17.025 17.91 17.2511Z" fill="#3B3B3B"/>
<path d="M17.91 19.1123C17.91 19.3386 17.7266 19.5219 17.5004 19.5219C17.2743 19.5219 17.0908 19.3386 17.0908 19.1123C17.0908 18.8862 17.2743 18.7029 17.5004 18.7029C17.7266 18.7029 17.91 18.8862 17.91 19.1123Z" fill="#3B3B3B"/>
<path d="M0.0535354 24.8975C0.0507239 24.8989 0.0475612 24.9001 0.0443984 24.901C0.0415869 24.9019 0.0384242 24.9024 0.0352614 24.9024C0.0248941 24.9024 0.016987 24.8996 0.011364 24.894C0.00574114 24.8884 0.00292969 24.881 0.00292969 24.8715C0.00292969 24.8622 0.00574114 24.8546 0.011364 24.849C0.016987 24.8434 0.0248941 24.8406 0.0352614 24.8406C0.0384243 24.8406 0.0415869 24.8411 0.0443984 24.842C0.0475613 24.8425 0.0507239 24.8434 0.0535354 24.8448V24.8574C0.0507239 24.8557 0.0479125 24.8543 0.045101 24.8532C0.0422896 24.8523 0.0391268 24.8518 0.035964 24.8518C0.0306924 24.8518 0.0264753 24.8538 0.0233125 24.8574C0.0199739 24.8608 0.0183922 24.8655 0.0183922 24.8715C0.0183922 24.8777 0.0199737 24.8826 0.0233125 24.8863C0.0264754 24.8896 0.0306924 24.8912 0.035964 24.8912C0.0391269 24.8912 0.0422896 24.8908 0.045101 24.8898C0.0479125 24.8889 0.0507239 24.8875 0.0535354 24.8856V24.8975Z" fill="#3B3B3B"/>
<path d="M0.097976 24.8688C0.0965702 24.8685 0.0951645 24.8679 0.0937588 24.8674C0.0927045 24.8671 0.0916502 24.8667 0.0902445 24.8667C0.0863787 24.8667 0.0835672 24.8679 0.0818101 24.8702C0.0798772 24.8727 0.0789987 24.8762 0.0789987 24.8808V24.9012H0.0649414V24.8569H0.0789987V24.8639C0.0807558 24.8611 0.0828644 24.859 0.0853242 24.8576C0.0876085 24.8562 0.0904199 24.8555 0.0937586 24.8555H0.0951643H0.0979757L0.097976 24.8688Z" fill="#3B3B3B"/>
<path d="M0.149358 24.8787V24.8829H0.116323C0.116323 24.8862 0.117202 24.8889 0.119135 24.8906C0.121419 24.892 0.124406 24.8927 0.128272 24.8927C0.131435 24.8927 0.134597 24.8924 0.137409 24.8913C0.140572 24.8904 0.14391 24.8892 0.147249 24.8878V24.8983C0.14391 24.8997 0.140396 24.9008 0.136706 24.9012C0.133367 24.902 0.130028 24.9026 0.126866 24.9026C0.118783 24.9026 0.112457 24.9005 0.107888 24.8962C0.103671 24.892 0.101562 24.8862 0.101562 24.8787C0.101562 24.8716 0.103671 24.866 0.107888 24.8618C0.112457 24.8576 0.118607 24.8555 0.126162 24.8555C0.133191 24.8555 0.138814 24.8576 0.143031 24.8618C0.147248 24.866 0.149358 24.8716 0.149358 24.8787ZM0.134598 24.8737C0.134598 24.8715 0.133544 24.8695 0.131787 24.8681C0.130381 24.8664 0.128448 24.8653 0.126164 24.8653C0.123352 24.8653 0.120892 24.866 0.119135 24.8674C0.117729 24.8688 0.116675 24.8709 0.116324 24.8737L0.134598 24.8737Z" fill="#3B3B3B"/>
<path d="M0.179933 24.8808C0.177121 24.8808 0.174661 24.8815 0.172904 24.8829C0.171498 24.8839 0.170795 24.8853 0.170795 24.8871C0.170795 24.889 0.171498 24.8904 0.172904 24.8913C0.17431 24.8924 0.175891 24.8927 0.177824 24.8927C0.180636 24.8927 0.18292 24.8918 0.184853 24.8899C0.18661 24.8882 0.187664 24.8857 0.187664 24.8829V24.8808H0.179933ZM0.201722 24.8759V24.9012H0.187664V24.8948C0.185731 24.8973 0.183447 24.899 0.180636 24.9005C0.178176 24.9019 0.175364 24.9026 0.172201 24.9026C0.167457 24.9026 0.163767 24.9012 0.160955 24.8983C0.158144 24.8955 0.156738 24.892 0.156738 24.8878C0.156738 24.8827 0.15832 24.879 0.161659 24.8766C0.165349 24.8737 0.171147 24.8723 0.17923 24.8723H0.187664V24.8716C0.187664 24.8694 0.18661 24.8678 0.184853 24.8667C0.18292 24.8658 0.180108 24.8653 0.176418 24.8653C0.173607 24.8653 0.170796 24.8657 0.167984 24.866C0.165173 24.8665 0.162713 24.8674 0.160955 24.8688V24.8576C0.163767 24.8572 0.166578 24.8567 0.16939 24.8562C0.172553 24.8558 0.175891 24.8555 0.17923 24.8555C0.187137 24.8555 0.19276 24.8572 0.196099 24.8604C0.199789 24.8637 0.201722 24.8688 0.201722 24.8759Z" fill="#3B3B3B"/>
<path d="M0.231046 24.8442V24.8569H0.245806V24.8667H0.231046V24.8857C0.231046 24.8876 0.231222 24.889 0.231749 24.8899C0.232628 24.8905 0.234561 24.8906 0.237372 24.8906H0.244401V24.9012H0.232452C0.226829 24.9012 0.222788 24.9001 0.220504 24.8977C0.218044 24.8954 0.21699 24.8913 0.21699 24.8857V24.8667H0.209961V24.8569H0.21699V24.8442L0.231046 24.8442Z" fill="#3B3B3B"/>
<path d="M0.298284 24.8787V24.8829H0.265249C0.265249 24.8862 0.266128 24.8889 0.268061 24.8906C0.270345 24.892 0.273332 24.8927 0.277198 24.8927C0.28036 24.8927 0.283523 24.8924 0.286335 24.8913C0.289497 24.8904 0.292836 24.8892 0.296175 24.8878V24.8983C0.292836 24.8997 0.289322 24.9008 0.285631 24.9012C0.282293 24.902 0.278954 24.9026 0.275791 24.9026C0.267708 24.9026 0.261383 24.9005 0.256814 24.8962C0.252597 24.892 0.250488 24.8862 0.250488 24.8787C0.250488 24.8716 0.252597 24.866 0.256814 24.8618C0.261382 24.8576 0.267532 24.8555 0.275088 24.8555C0.282117 24.8555 0.28774 24.8576 0.291957 24.8618C0.296174 24.866 0.298284 24.8716 0.298284 24.8787ZM0.283524 24.8737C0.283524 24.8715 0.28247 24.8695 0.280713 24.8681C0.279307 24.8664 0.277374 24.8653 0.27509 24.8653C0.272278 24.8653 0.269818 24.866 0.268061 24.8674C0.266655 24.8688 0.265601 24.8709 0.26525 24.8737L0.283524 24.8737Z" fill="#3B3B3B"/>
<path d="M0.339401 24.863V24.8391H0.353459V24.901H0.339401V24.8946C0.337469 24.8971 0.33536 24.8989 0.333076 24.9003C0.330616 24.9017 0.327804 24.9024 0.324642 24.9024C0.319019 24.9024 0.314274 24.9003 0.310584 24.896C0.307246 24.8915 0.305664 24.8855 0.305664 24.8785C0.305664 24.872 0.307245 24.8665 0.310584 24.8623C0.314274 24.8577 0.319019 24.8553 0.324642 24.8553C0.327804 24.8553 0.330616 24.856 0.333076 24.8574C0.33536 24.8584 0.337469 24.8602 0.339401 24.863ZM0.330264 24.8918C0.333076 24.8918 0.335185 24.8908 0.33659 24.8883C0.338347 24.886 0.339401 24.8827 0.339401 24.8785C0.339401 24.8743 0.338347 24.8713 0.33659 24.8693C0.335184 24.8671 0.333076 24.8658 0.330264 24.8658C0.326926 24.8658 0.32429 24.8671 0.322533 24.8693C0.321127 24.8713 0.320424 24.8743 0.320424 24.8785C0.320424 24.8827 0.321127 24.886 0.322533 24.8883C0.32429 24.8908 0.326926 24.8918 0.330264 24.8918Z" fill="#3B3B3B"/>
<path d="M0.419405 24.8918C0.422217 24.8918 0.424325 24.8908 0.425731 24.8883C0.427488 24.886 0.428542 24.8827 0.428542 24.8785C0.428542 24.8743 0.427488 24.8713 0.425731 24.8693C0.424325 24.8671 0.422216 24.8658 0.419405 24.8658C0.416067 24.8658 0.413431 24.8671 0.411673 24.8693C0.410268 24.8713 0.409565 24.8743 0.409565 24.8785C0.409565 24.8827 0.410268 24.886 0.411673 24.8883C0.413431 24.8908 0.416066 24.8918 0.419405 24.8918ZM0.409565 24.863C0.411322 24.8602 0.413431 24.8584 0.415891 24.8574C0.418175 24.856 0.420986 24.8553 0.424325 24.8553C0.429948 24.8553 0.434341 24.8577 0.43768 24.8623C0.44137 24.8665 0.443303 24.872 0.443303 24.8785C0.443303 24.8855 0.44137 24.8915 0.43768 24.896C0.434341 24.9003 0.429948 24.9024 0.424325 24.9024C0.420986 24.9024 0.418175 24.9017 0.415891 24.9003C0.413431 24.8989 0.411322 24.8971 0.409565 24.8946V24.901H0.395508V24.8391H0.409565V24.863Z" fill="#3B3B3B"/>
<path d="M0.447266 24.8567H0.462026L0.473974 24.8869L0.483814 24.8567H0.498574L0.479596 24.9052C0.477664 24.9103 0.475379 24.9138 0.472568 24.9157C0.470108 24.9175 0.466945 24.9185 0.462728 24.9185H0.454996V24.9094H0.459213C0.461497 24.9094 0.463079 24.9089 0.464133 24.908C0.465539 24.9069 0.466418 24.9055 0.466945 24.9038L0.467648 24.9024L0.447266 24.8567Z" fill="#3B3B3B"/>
<path d="M0.576565 24.8434V24.856C0.573754 24.8546 0.570591 24.8538 0.567428 24.8532C0.56409 24.8523 0.561103 24.8518 0.558291 24.8518C0.554953 24.8518 0.552317 24.8523 0.550559 24.8532C0.548627 24.8543 0.547748 24.8559 0.547748 24.8581C0.547748 24.8596 0.548099 24.8608 0.549154 24.8617C0.550559 24.8627 0.552844 24.8634 0.556182 24.8638L0.562508 24.8652C0.569009 24.8666 0.573754 24.8687 0.576565 24.8715C0.579377 24.874 0.580782 24.8777 0.580782 24.8827C0.580782 24.8894 0.578674 24.8943 0.574457 24.8975C0.570591 24.9008 0.564793 24.9024 0.556885 24.9024C0.55302 24.9024 0.54933 24.9019 0.54564 24.901C0.541774 24.9007 0.538084 24.8996 0.534394 24.8982V24.8849C0.538084 24.8868 0.541598 24.8884 0.544937 24.8898C0.548627 24.8908 0.552142 24.8912 0.55548 24.8912C0.558643 24.8912 0.561279 24.8908 0.563212 24.8898C0.564969 24.8884 0.566023 24.8868 0.566023 24.8849C0.566023 24.8831 0.56532 24.8817 0.563915 24.8806C0.56286 24.8792 0.560576 24.8784 0.556886 24.8778L0.551263 24.8764C0.545113 24.875 0.54072 24.8729 0.537909 24.8701C0.535097 24.8673 0.533691 24.8636 0.533691 24.8589C0.533691 24.8529 0.535449 24.8483 0.539314 24.8455C0.543531 24.8423 0.549154 24.8406 0.556183 24.8406C0.559346 24.8406 0.562684 24.8409 0.566023 24.8413C0.569713 24.8418 0.573227 24.8425 0.576565 24.8434Z" fill="#3B3B3B"/>
<path d="M0.630277 24.8905H0.606379L0.602162 24.9011H0.587402L0.609191 24.8413H0.627466L0.649255 24.9011H0.633792L0.630277 24.8905ZM0.609894 24.8793H0.62606L0.618328 24.8554L0.609894 24.8793Z" fill="#3B3B3B"/>
<path d="M0.657227 24.8413H0.676204L0.690261 24.8736L0.703616 24.8413H0.723296V24.9011H0.708536V24.8575L0.695182 24.8898H0.685342L0.671284 24.8575V24.9011H0.657227L0.657227 24.8413Z" fill="#3B3B3B"/>
<path d="M0.781361 24.8533V24.8898H0.786984C0.793486 24.8898 0.798406 24.8882 0.801744 24.8849C0.804907 24.8817 0.806665 24.8772 0.806665 24.8715C0.806665 24.8656 0.804907 24.861 0.801744 24.8582C0.798406 24.855 0.793486 24.8533 0.786984 24.8533L0.781361 24.8533ZM0.766602 24.8413H0.782768C0.791553 24.8413 0.798231 24.842 0.802448 24.8434C0.807016 24.8448 0.811058 24.8469 0.814396 24.8497C0.816681 24.8526 0.818613 24.8559 0.820019 24.8596C0.821425 24.8629 0.822128 24.867 0.822128 24.8715C0.822128 24.8757 0.821425 24.8798 0.820019 24.8835C0.818613 24.8868 0.816681 24.8898 0.814396 24.8926C0.811058 24.896 0.807016 24.8982 0.802448 24.8996C0.798231 24.9007 0.791553 24.9011 0.782768 24.9011H0.766602V24.8413Z" fill="#3B3B3B"/>
<path d="M0.877385 24.8787V24.8829H0.844351C0.844351 24.8862 0.845229 24.8889 0.847162 24.8906C0.849446 24.892 0.852434 24.8927 0.856299 24.8927C0.859462 24.8927 0.862625 24.8924 0.865436 24.8913C0.868599 24.8904 0.871938 24.8892 0.875276 24.8878V24.8983C0.871938 24.8997 0.868423 24.9008 0.864733 24.9012C0.861394 24.902 0.858056 24.9026 0.854893 24.9026C0.84681 24.9026 0.840484 24.9005 0.835915 24.8962C0.831698 24.892 0.82959 24.8862 0.82959 24.8787C0.82959 24.8716 0.831698 24.866 0.835915 24.8618C0.840484 24.8576 0.846634 24.8555 0.85419 24.8555C0.861218 24.8555 0.866841 24.8576 0.871059 24.8618C0.875276 24.866 0.877385 24.8716 0.877385 24.8787ZM0.862626 24.8737C0.862626 24.8715 0.861571 24.8695 0.859814 24.8681C0.858408 24.8664 0.856475 24.8653 0.854191 24.8653C0.85138 24.8653 0.84892 24.866 0.847163 24.8674C0.845757 24.8688 0.844703 24.8709 0.844351 24.8737L0.862626 24.8737Z" fill="#3B3B3B"/>
<path d="M0.922506 24.8583V24.8688C0.919695 24.8674 0.916883 24.8665 0.914072 24.866C0.911261 24.8657 0.908449 24.8653 0.905638 24.8653C0.903178 24.8653 0.90142 24.8657 0.900015 24.866C0.898609 24.8665 0.897906 24.8674 0.897906 24.8688C0.897906 24.8702 0.898258 24.8713 0.899312 24.8716C0.90019 24.8722 0.902123 24.8727 0.904935 24.873L0.907043 24.8737C0.914423 24.8748 0.919344 24.8764 0.921803 24.8787C0.924615 24.8806 0.92602 24.8836 0.92602 24.8878C0.92602 24.8925 0.924088 24.8962 0.920398 24.899C0.917059 24.9013 0.911963 24.9026 0.904935 24.9026C0.901596 24.9026 0.898257 24.9022 0.895094 24.9019C0.892283 24.9013 0.88912 24.9008 0.885957 24.8997V24.8885C0.888769 24.8899 0.89158 24.8911 0.894392 24.892C0.897555 24.8925 0.900717 24.8927 0.903529 24.8927C0.90634 24.8927 0.908449 24.8925 0.909854 24.892C0.91126 24.8911 0.911963 24.8899 0.911963 24.8885C0.911963 24.8871 0.911436 24.8862 0.910557 24.8857C0.909503 24.8848 0.907746 24.8843 0.904934 24.8843L0.902123 24.8836C0.895973 24.8827 0.89158 24.8813 0.888768 24.8794C0.886308 24.8771 0.885254 24.8737 0.885254 24.8695C0.885254 24.865 0.886835 24.8614 0.890174 24.859C0.893337 24.8567 0.898257 24.8555 0.904934 24.8555C0.907746 24.8555 0.910557 24.8558 0.913368 24.8562C0.91618 24.8567 0.919168 24.8574 0.922506 24.8583Z" fill="#3B3B3B"/>
<path d="M0.936523 24.8567H0.950581V24.901H0.936523V24.8567ZM0.936523 24.8391H0.950581V24.8504H0.936523V24.8391Z" fill="#3B3B3B"/>
<path d="M0.994675 24.8934C0.992742 24.8962 0.990633 24.8983 0.988349 24.8997C0.985889 24.9008 0.983078 24.9012 0.979915 24.9012C0.974292 24.9012 0.969548 24.899 0.965858 24.8948C0.962519 24.8906 0.960938 24.8853 0.960938 24.8787C0.960938 24.8716 0.962519 24.866 0.965858 24.8618C0.969548 24.8576 0.974292 24.8555 0.979915 24.8555C0.983078 24.8555 0.985889 24.8562 0.988349 24.8576C0.990634 24.8586 0.992742 24.8604 0.994675 24.8632V24.8569H1.00873V24.8969C1.00873 24.904 1.00627 24.9092 1.0017 24.9131C0.997486 24.9168 0.99116 24.9187 0.982726 24.9187C0.979915 24.9187 0.977103 24.9184 0.974292 24.918C0.971832 24.9175 0.969371 24.9168 0.96656 24.9159V24.9054C0.968844 24.9068 0.971128 24.9077 0.973589 24.9082C0.975873 24.9091 0.978509 24.9096 0.98132 24.9096C0.985889 24.9096 0.989227 24.9084 0.99116 24.9061C0.993445 24.9041 0.994675 24.9012 0.994675 24.8969L0.994675 24.8934ZM0.985538 24.866C0.982199 24.866 0.979564 24.8672 0.977806 24.8695C0.9764 24.8715 0.975698 24.8744 0.975698 24.8787C0.975698 24.8825 0.9764 24.8855 0.977806 24.8878C0.979563 24.8897 0.982199 24.8906 0.985538 24.8906C0.988349 24.8906 0.990458 24.8897 0.991863 24.8878C0.993621 24.8855 0.994675 24.8825 0.994675 24.8787C0.994675 24.8744 0.993621 24.8715 0.991863 24.8695C0.990458 24.8672 0.988349 24.866 0.985538 24.866Z" fill="#3B3B3B"/>
<path d="M1.06744 24.8737V24.9012H1.05268V24.8801C1.05268 24.8764 1.05233 24.8737 1.05198 24.8723C1.05198 24.8709 1.05163 24.8701 1.05128 24.8695C1.05075 24.8686 1.05005 24.8679 1.04917 24.8674C1.04812 24.8665 1.04724 24.866 1.04636 24.866C1.04302 24.866 1.04038 24.8672 1.03863 24.8695C1.03722 24.872 1.03652 24.8751 1.03652 24.8794V24.9012H1.02246V24.8569H1.03652V24.8632C1.0388 24.8604 1.04109 24.8586 1.04355 24.8576C1.04583 24.8562 1.04847 24.8555 1.05128 24.8555C1.05637 24.8555 1.06042 24.8572 1.06323 24.8604C1.06604 24.8637 1.06744 24.8681 1.06744 24.8737Z" fill="#3B3B3B"/>
<path d="M1.11489 24.8583V24.8688C1.11208 24.8674 1.10927 24.8665 1.10645 24.866C1.10364 24.8657 1.10083 24.8653 1.09802 24.8653C1.09556 24.8653 1.0938 24.8657 1.0924 24.866C1.09099 24.8665 1.09029 24.8674 1.09029 24.8688C1.09029 24.8702 1.09064 24.8713 1.09169 24.8716C1.09257 24.8722 1.09451 24.8727 1.09732 24.873L1.09943 24.8737C1.10681 24.8748 1.11173 24.8764 1.11419 24.8787C1.117 24.8806 1.1184 24.8836 1.1184 24.8878C1.1184 24.8925 1.11647 24.8962 1.11278 24.899C1.10944 24.9013 1.10435 24.9026 1.09732 24.9026C1.09398 24.9026 1.09064 24.9022 1.08748 24.9019C1.08467 24.9013 1.0815 24.9008 1.07834 24.8997V24.8885C1.08115 24.8899 1.08396 24.8911 1.08677 24.892C1.08994 24.8925 1.0931 24.8927 1.09591 24.8927C1.09872 24.8927 1.10083 24.8925 1.10224 24.892C1.10364 24.8911 1.10435 24.8899 1.10435 24.8885C1.10435 24.8871 1.10382 24.8862 1.10294 24.8857C1.10189 24.8848 1.10013 24.8843 1.09732 24.8843L1.09451 24.8836C1.08836 24.8827 1.08396 24.8813 1.08115 24.8794C1.07869 24.8771 1.07764 24.8737 1.07764 24.8695C1.07764 24.865 1.07922 24.8614 1.08256 24.859C1.08572 24.8567 1.09064 24.8555 1.09732 24.8555C1.10013 24.8555 1.10294 24.8558 1.10575 24.8562C1.10856 24.8567 1.11155 24.8574 1.11489 24.8583Z" fill="#3B3B3B"/>
<path d="M0.0344403 24.9207V24.9298H0.0267086C0.0247757 24.9298 0.02337 24.9303 0.0224914 24.9312C0.0219642 24.9317 0.0217885 24.933 0.0217885 24.9347V24.9382H0.033737V24.9481H0.0217885V24.9825H0.00702863V24.9481H0V24.9382H0.00702863V24.9347C0.00702863 24.9301 0.00843436 24.9266 0.0112458 24.9242C0.0140573 24.9219 0.0182744 24.9207 0.0238973 24.9207L0.0344403 24.9207Z" fill="#3B3B3B"/>
<path d="M0.0740502 24.9501C0.0726445 24.9498 0.0712387 24.9492 0.069833 24.9487C0.0687787 24.9484 0.0677244 24.948 0.0663187 24.948C0.0624529 24.948 0.0596414 24.9492 0.0578843 24.9515C0.0559515 24.954 0.0550729 24.9575 0.0550729 24.9621V24.9825H0.0410156V24.9382H0.0550729V24.9452C0.05683 24.9424 0.0589387 24.9403 0.0613984 24.9389C0.0636827 24.9375 0.0664941 24.9368 0.0698328 24.9368H0.0712385H0.07405L0.0740502 24.9501Z" fill="#3B3B3B"/>
<path d="M0.101748 24.9473C0.0984098 24.9473 0.0957742 24.9485 0.0940167 24.9508C0.092611 24.9528 0.0919081 24.9557 0.0919081 24.96C0.0919081 24.9642 0.092611 24.9675 0.0940167 24.9698C0.0957739 24.9723 0.0984096 24.9733 0.101748 24.9733C0.104911 24.9733 0.107371 24.9723 0.108777 24.9698C0.110534 24.9675 0.111589 24.9642 0.111589 24.96C0.111589 24.9557 0.110534 24.9528 0.108777 24.9508C0.107371 24.9485 0.104911 24.9473 0.101748 24.9473ZM0.101748 24.9368C0.109128 24.9368 0.115103 24.9389 0.11932 24.9431C0.123888 24.9473 0.126348 24.9529 0.126348 24.96C0.126348 24.9675 0.123888 24.9733 0.11932 24.9775C0.115103 24.9818 0.109128 24.9839 0.101748 24.9839C0.0941926 24.9839 0.0880425 24.9818 0.083474 24.9775C0.0792568 24.9733 0.0771484 24.9675 0.0771484 24.96C0.0771484 24.9529 0.079257 24.9473 0.083474 24.9431C0.0880425 24.9389 0.0941926 24.9368 0.101748 24.9368Z" fill="#3B3B3B"/>
<path d="M0.178187 24.9452C0.179593 24.9424 0.18135 24.9403 0.18381 24.9389C0.186621 24.9375 0.189433 24.9368 0.192244 24.9368C0.19734 24.9368 0.201381 24.9385 0.204193 24.9417C0.207004 24.945 0.20841 24.9494 0.20841 24.955V24.9825H0.19365V24.9593V24.9586V24.9564C0.19365 24.9533 0.193123 24.9508 0.192244 24.9494C0.19119 24.948 0.189784 24.9473 0.188027 24.9473C0.185216 24.9473 0.183107 24.9485 0.181702 24.9508C0.180296 24.9533 0.179593 24.9564 0.179593 24.9607V24.9825H0.164833V24.9593C0.164833 24.9542 0.164306 24.9508 0.163427 24.9494C0.1629 24.948 0.161494 24.9473 0.15921 24.9473C0.156399 24.9473 0.15429 24.9485 0.152885 24.9508C0.151479 24.9533 0.150776 24.9564 0.150776 24.9607V24.9825H0.136719V24.9382H0.150776V24.9445C0.152533 24.9417 0.154466 24.9399 0.156399 24.9389C0.158683 24.9375 0.161319 24.9368 0.164131 24.9368C0.167294 24.9368 0.170105 24.9375 0.172565 24.9389C0.174849 24.9403 0.176781 24.9424 0.178187 24.9452Z" fill="#3B3B3B"/>
<path d="M0.265226 24.9253V24.9379H0.279986V24.9478H0.265226V24.9668C0.265226 24.9687 0.265402 24.9701 0.265929 24.971C0.266808 24.9715 0.26874 24.9717 0.271552 24.9717H0.27858V24.9822H0.266632C0.261009 24.9822 0.256968 24.9812 0.254684 24.9787C0.252224 24.9764 0.251169 24.9724 0.251169 24.9668V24.9478H0.244141V24.9379H0.251169V24.9253L0.265226 24.9253Z" fill="#3B3B3B"/>
<path d="M0.333557 24.9551V24.9825H0.318798V24.9621C0.318798 24.9579 0.318446 24.9551 0.318095 24.9537C0.318095 24.9523 0.317743 24.9514 0.317392 24.9509C0.316865 24.95 0.316162 24.9493 0.315283 24.9488C0.314229 24.9479 0.31335 24.9474 0.312472 24.9474C0.309133 24.9474 0.306498 24.9486 0.30474 24.9509C0.303334 24.9533 0.302631 24.9565 0.302631 24.9607V24.9825H0.288574V24.9207H0.302631V24.9446C0.304916 24.9417 0.3072 24.94 0.30966 24.9389C0.311944 24.9375 0.31458 24.9368 0.317392 24.9368C0.322488 24.9368 0.326529 24.9386 0.32934 24.9417C0.332152 24.9451 0.333557 24.9495 0.333557 24.9551Z" fill="#3B3B3B"/>
<path d="M0.391057 24.96V24.9642H0.358023C0.358023 24.9675 0.358901 24.9702 0.360834 24.9719C0.363118 24.9733 0.366106 24.974 0.369971 24.974C0.373134 24.974 0.376297 24.9737 0.379108 24.9726C0.382271 24.9717 0.385609 24.9705 0.388948 24.9691V24.9796C0.385609 24.981 0.382095 24.9821 0.378405 24.9825C0.375066 24.9833 0.371728 24.9839 0.368565 24.9839C0.360482 24.9839 0.354156 24.9818 0.349587 24.9775C0.34537 24.9733 0.343262 24.9675 0.343262 24.96C0.343262 24.9529 0.34537 24.9473 0.349587 24.9431C0.354156 24.9389 0.360306 24.9368 0.367862 24.9368C0.37489 24.9368 0.380513 24.9389 0.38473 24.9431C0.388948 24.9473 0.391057 24.9529 0.391057 24.96ZM0.376297 24.955C0.376297 24.9528 0.375243 24.9508 0.373486 24.9494C0.37208 24.9477 0.370147 24.9466 0.367863 24.9466C0.365052 24.9466 0.362591 24.9473 0.360834 24.9487C0.359429 24.9501 0.358374 24.9522 0.358023 24.955L0.376297 24.955Z" fill="#3B3B3B"/>
<path d="M0.430664 24.9226H0.447533L0.469322 24.9634V24.9226H0.483379V24.9823H0.46651L0.444721 24.9416V24.9823H0.430664V24.9226Z" fill="#3B3B3B"/>
<path d="M0.519229 24.9473C0.51589 24.9473 0.513255 24.9485 0.511497 24.9508C0.510091 24.9528 0.509389 24.9557 0.509389 24.96C0.509389 24.9642 0.510091 24.9675 0.511497 24.9698C0.513254 24.9723 0.51589 24.9733 0.519229 24.9733C0.522392 24.9733 0.524852 24.9723 0.526258 24.9698C0.528015 24.9675 0.529069 24.9642 0.529069 24.96C0.529069 24.9557 0.528015 24.9528 0.526258 24.9508C0.524852 24.9485 0.522392 24.9473 0.519229 24.9473ZM0.519229 24.9368C0.526609 24.9368 0.532584 24.9389 0.5368 24.9431C0.541369 24.9473 0.543829 24.9529 0.543829 24.96C0.543829 24.9675 0.541369 24.9733 0.5368 24.9775C0.532583 24.9818 0.526609 24.9839 0.519229 24.9839C0.511673 24.9839 0.505523 24.9818 0.500954 24.9775C0.496737 24.9733 0.494629 24.9675 0.494629 24.96C0.494629 24.9529 0.496737 24.9473 0.500954 24.9431C0.505523 24.9389 0.511673 24.9368 0.519229 24.9368Z" fill="#3B3B3B"/>
<path d="M0.553223 24.9649V24.9382H0.56728V24.9425V24.9516V24.9586V24.9671C0.567631 24.9685 0.568158 24.9695 0.568686 24.9699C0.569037 24.9709 0.56974 24.9716 0.570794 24.972C0.571673 24.9725 0.572903 24.9727 0.574309 24.9727C0.57712 24.9727 0.579404 24.9718 0.581337 24.9699C0.583094 24.9676 0.584149 24.9642 0.584149 24.96V24.9382H0.598206V24.9825H0.584149V24.9762C0.581689 24.9786 0.579404 24.9804 0.57712 24.9818C0.57466 24.9832 0.5722 24.9839 0.569388 24.9839C0.564117 24.9839 0.560251 24.9823 0.55744 24.979C0.554628 24.9758 0.553223 24.9711 0.553223 24.9649Z" fill="#3B3B3B"/>
<path d="M0.6568 24.955V24.9825H0.64204V24.9614C0.64204 24.9577 0.641688 24.955 0.641337 24.9536C0.641337 24.9522 0.640985 24.9514 0.640634 24.9508C0.640107 24.9499 0.639404 24.9492 0.638525 24.9487C0.637471 24.9478 0.636593 24.9473 0.635714 24.9473C0.632375 24.9473 0.62974 24.9485 0.627982 24.9508C0.626577 24.9533 0.625874 24.9564 0.625874 24.9607V24.9825H0.611816V24.9382H0.625874V24.9445C0.628158 24.9417 0.630442 24.9399 0.632902 24.9389C0.635187 24.9375 0.637823 24.9368 0.640634 24.9368C0.64573 24.9368 0.649771 24.9385 0.652582 24.9417C0.655394 24.945 0.6568 24.9494 0.6568 24.955Z" fill="#3B3B3B"/>
<path d="M0.698242 24.9226H0.723545C0.730925 24.9226 0.736548 24.9245 0.740414 24.9282C0.744631 24.9316 0.74674 24.9363 0.74674 24.9423C0.74674 24.9484 0.744631 24.9534 0.740414 24.957C0.736548 24.9604 0.730925 24.962 0.723545 24.962H0.713002V24.9824H0.698242V24.9226ZM0.713002 24.9339V24.9507H0.722139C0.724951 24.9507 0.727059 24.95 0.728465 24.9486C0.730222 24.9472 0.731276 24.9451 0.731276 24.9423C0.731276 24.9395 0.730222 24.9374 0.728465 24.936C0.727059 24.9346 0.72495 24.9339 0.722139 24.9339L0.713002 24.9339Z" fill="#3B3B3B"/>
<path d="M0.790359 24.9501C0.788953 24.9498 0.787547 24.9492 0.786142 24.9487C0.785087 24.9484 0.784033 24.948 0.782627 24.948C0.778762 24.948 0.77595 24.9492 0.774193 24.9515C0.77226 24.954 0.771381 24.9575 0.771381 24.9621V24.9825H0.757324V24.9382H0.771381V24.9452C0.773139 24.9424 0.775247 24.9403 0.777707 24.9389C0.779991 24.9375 0.782803 24.9368 0.786141 24.9368H0.787547H0.790359L0.790359 24.9501Z" fill="#3B3B3B"/>
<path d="M0.818545 24.9473C0.815207 24.9473 0.812571 24.9485 0.810814 24.9508C0.809408 24.9528 0.808705 24.9557 0.808705 24.96C0.808705 24.9642 0.809408 24.9675 0.810814 24.9698C0.812571 24.9723 0.815206 24.9733 0.818545 24.9733C0.821708 24.9733 0.824168 24.9723 0.825574 24.9698C0.827331 24.9675 0.828385 24.9642 0.828385 24.96C0.828385 24.9557 0.827331 24.9528 0.825574 24.9508C0.824168 24.9485 0.821708 24.9473 0.818545 24.9473ZM0.818545 24.9368C0.825925 24.9368 0.8319 24.9389 0.836117 24.9431C0.840685 24.9473 0.843145 24.9529 0.843145 24.96C0.843145 24.9675 0.840685 24.9733 0.836117 24.9775C0.831899 24.9818 0.825925 24.9839 0.818545 24.9839C0.810989 24.9839 0.804839 24.9818 0.800271 24.9775C0.796054 24.9733 0.793945 24.9675 0.793945 24.96C0.793945 24.9529 0.796054 24.9473 0.800271 24.9431C0.804839 24.9389 0.810989 24.9368 0.818545 24.9368Z" fill="#3B3B3B"/>
<path d="M0.853102 24.9382H0.867159V24.9818C0.867159 24.9878 0.865753 24.9923 0.862942 24.9952C0.86013 24.9983 0.855913 25.0001 0.85029 25.0001H0.843262V24.9909H0.846073C0.848357 24.9909 0.849939 24.9902 0.850993 24.9888C0.852399 24.9878 0.853102 24.9855 0.853102 24.9818L0.853102 24.9382ZM0.853102 24.9207H0.867159V24.9319H0.853102V24.9207Z" fill="#3B3B3B"/>
<path d="M0.925237 24.96V24.9642H0.892202C0.892202 24.9675 0.893081 24.9702 0.895014 24.9719C0.897298 24.9733 0.900285 24.974 0.904151 24.974C0.907314 24.974 0.910476 24.9737 0.913288 24.9726C0.916451 24.9717 0.919789 24.9705 0.923128 24.9691V24.9796C0.919789 24.981 0.916275 24.9821 0.912585 24.9825C0.909246 24.9833 0.905907 24.9839 0.902744 24.9839C0.894661 24.9839 0.888336 24.9818 0.883767 24.9775C0.87955 24.9733 0.877441 24.9675 0.877441 24.96C0.877441 24.9529 0.87955 24.9473 0.883767 24.9431C0.888335 24.9389 0.894486 24.9368 0.902041 24.9368C0.90907 24.9368 0.914693 24.9389 0.91891 24.9431C0.923127 24.9473 0.925237 24.9529 0.925237 24.96ZM0.910477 24.955C0.910477 24.9528 0.909423 24.9508 0.907666 24.9494C0.90626 24.9477 0.904327 24.9466 0.902043 24.9466C0.899231 24.9466 0.896771 24.9473 0.895014 24.9487C0.893608 24.9501 0.892554 24.9522 0.892203 24.955L0.910477 24.955Z" fill="#3B3B3B"/>
<path d="M0.971977 24.9396V24.9508C0.970044 24.9494 0.968111 24.9485 0.966354 24.948C0.964421 24.9477 0.962313 24.9473 0.960029 24.9473C0.956163 24.9473 0.953176 24.9485 0.950892 24.9508C0.948432 24.9528 0.947377 24.9557 0.947377 24.96C0.947377 24.9642 0.948432 24.9675 0.950892 24.9698C0.953176 24.9723 0.956163 24.9733 0.960029 24.9733C0.962313 24.9733 0.964422 24.9731 0.966354 24.9726C0.968111 24.9717 0.970044 24.9709 0.971977 24.9698V24.981C0.969517 24.9821 0.967233 24.9826 0.964948 24.9832C0.962488 24.9835 0.96038 24.9839 0.958623 24.9839C0.950189 24.9839 0.943511 24.9818 0.938943 24.9775C0.934726 24.9733 0.932617 24.9675 0.932617 24.96C0.932617 24.9529 0.934726 24.9473 0.938943 24.9431C0.943511 24.9389 0.950189 24.9368 0.958623 24.9368C0.960907 24.9368 0.963016 24.9371 0.964948 24.9375C0.967233 24.938 0.969517 24.9387 0.971977 24.9396Z" fill="#3B3B3B"/>
<path d="M1.00009 24.9253V24.9379H1.01485V24.9478H1.00009V24.9668C1.00009 24.9687 1.00027 24.9701 1.00079 24.971C1.00167 24.9715 1.0036 24.9717 1.00642 24.9717H1.01344V24.9822H1.0015C0.995872 24.9822 0.991831 24.9812 0.989547 24.9787C0.987087 24.9764 0.986033 24.9724 0.986033 24.9668V24.9478H0.979004V24.9379H0.986033V24.9253L1.00009 24.9253Z" fill="#3B3B3B"/>
</svg>
