<svg width="25" height="25" viewBox="0 0 25 25" fill="none" xmlns="http://www.w3.org/2000/svg">
<path d="M24.9997 10.4838V7.25804H22.5804V0H6.2721L2.41935 4.28068V7.25804H0V10.4838H2.41935V11.8512L0.877371 11.2903H0V20.1612H3.52211L3.73344 19.4846L5.43745 20.5067L6.56721 20.801C6.49359 20.9632 6.45165 21.1387 6.45165 21.3221C6.45165 22.0011 6.99275 22.5523 7.66584 22.5761C7.6896 23.2491 8.24113 23.7903 8.9198 23.7903C9.06326 23.7903 9.20368 23.7608 9.3376 23.7132C9.49835 24.2234 9.97018 24.5967 10.5327 24.5967C10.8013 24.5967 11.0621 24.5053 11.277 24.3471L11.5755 24.6455C11.8038 24.8741 12.1076 25 12.4308 25H12.5001C13.0223 25 13.4638 24.6657 13.6327 24.2016C13.8602 24.4472 14.1783 24.5968 14.5162 24.5968C15.0759 24.5968 15.5437 24.213 15.681 23.696C15.8227 23.7529 15.973 23.7903 16.1291 23.7903C16.6887 23.7903 17.1566 23.4065 17.2939 22.8895C17.4356 22.9464 17.5859 22.9838 17.742 22.9838C18.4089 22.9838 18.9516 22.4411 18.9516 21.7742V21.6399C18.9516 21.3798 18.8658 21.1222 18.7093 20.9141L18.5759 20.7362L20.0731 19.5383L20.2682 20.1613H25V11.2904H24.1936L22.5807 11.7469V10.4839L24.9997 10.4838ZM6.45136 1.00599V4.03215H3.72764L6.45136 1.00599ZM3.22557 4.8386H7.25781V0.806357H21.7739V7.25795H19.3546V5.69782L14.5951 8.87085L19.3546 12.0439V10.4837H21.7739V11.9749L18.0401 13.0318L18.3894 14.1491L13.3622 14.4841C12.9863 14.5092 12.625 14.6071 12.2875 14.7757L11.4245 15.2072C11.0415 15.0213 10.6226 14.9192 10.1931 14.9192H7.35321L5.45644 13.9709L5.74158 13.0592L3.22573 12.1442V10.4838H5.64508V12.0439L10.4045 8.87089L5.64508 5.69786V7.25799H3.22573L3.22557 4.8386ZM0.806219 9.6773V8.0644H6.45136V7.20519L8.95011 8.87085L6.45136 10.5365V9.6773H0.806219ZM2.92926 19.3547H0.806219V12.1225L4.74215 13.5536L2.92926 19.3547ZM5.80095 19.7846L3.98123 18.6926L5.21303 14.7507L7.16256 15.7257H10.1932C10.5714 15.7257 10.9408 15.8317 11.2614 16.0321L13.4542 17.4023C13.6138 17.5022 13.7094 17.6748 13.7094 17.8635V18.0042C13.7094 18.3043 13.4655 18.5483 13.1651 18.5483C13.0666 18.5483 12.9703 18.5216 12.8857 18.4708L11.3713 17.5623C10.7672 17.2007 9.95152 17.3015 9.45364 17.7987L7.13439 20.1179L5.80095 19.7846ZM12.9028 23.7902C12.9028 24.0123 12.722 24.1934 12.4996 24.1934H12.4302C12.3242 24.1934 12.2202 24.1502 12.1451 24.0753L11.8112 23.7414C11.735 23.6652 11.6931 23.5635 11.6931 23.4559V23.3869C11.6931 23.1648 11.8738 22.9837 12.0963 22.9837H12.1656C12.2717 22.9837 12.3757 23.0269 12.4508 23.1018L12.7847 23.4357C12.8608 23.5119 12.9028 23.6136 12.9028 23.7212V23.7902ZM14.9189 23.3869C14.9189 23.6091 14.7382 23.7902 14.5157 23.7902C14.3895 23.7902 14.2689 23.73 14.1931 23.6289L13.3866 22.5535C13.3346 22.4842 13.306 22.3983 13.306 22.3116V22.1773C13.306 21.9551 13.4867 21.774 13.7092 21.774C13.8354 21.774 13.956 21.8342 14.0318 21.9353L14.8383 23.0107C14.8903 23.08 14.9189 23.1659 14.9189 23.2527V23.3869ZM16.5318 22.5805C16.5318 22.8026 16.3511 22.9837 16.1286 22.9837C16.0024 22.9837 15.8818 22.9236 15.806 22.8224L14.9995 21.747C14.9475 21.6777 14.9189 21.5919 14.9189 21.5051V21.3708C14.9189 21.1487 15.0996 20.9676 15.3221 20.9676C15.4483 20.9676 15.5689 21.0277 15.6447 21.1289L16.4512 22.2043C16.5032 22.2736 16.5318 22.3594 16.5318 22.4462V22.5805ZM18.1447 21.774C18.1447 21.9962 17.964 22.1773 17.7415 22.1773C17.6153 22.1773 17.4947 22.1171 17.4189 22.016L16.6124 20.9406C16.5604 20.8713 16.5318 20.7854 16.5318 20.6987V20.5644C16.5318 20.3422 16.7125 20.1611 16.935 20.1611C17.0612 20.1611 17.1818 20.2213 17.2576 20.3224L18.0641 21.3978C18.1161 21.4671 18.1447 21.553 18.1447 21.6398V21.774ZM18.0914 20.0906L17.9028 19.8386C17.6758 19.5358 17.3141 19.3547 16.935 19.3547C16.3753 19.3547 15.9075 19.7385 15.7702 20.2555C15.6285 20.1986 15.4782 20.1612 15.3221 20.1612C14.7625 20.1612 14.2946 20.5449 14.1573 21.0619C14.0156 21.0051 13.8653 20.9676 13.7093 20.9676C13.0423 20.9676 12.4996 21.5103 12.4996 22.1773V22.2297C12.3919 22.1987 12.281 22.1773 12.1657 22.1773H12.0964C11.4294 22.1773 10.8867 22.72 10.8867 23.387V23.4559C10.8867 23.5076 10.8951 23.5574 10.9016 23.6084L10.8519 23.6581C10.7677 23.7418 10.6512 23.7902 10.5322 23.7902C10.2831 23.7902 10.0802 23.5873 10.0802 23.3382C10.0802 23.2172 10.127 23.104 10.2125 23.0185L11.9782 21.2528L11.4082 20.6827L9.23923 22.8516C9.1548 22.9353 9.03833 22.9837 8.91935 22.9837C8.67021 22.9837 8.46734 22.7809 8.46734 22.5317C8.46734 22.4108 8.51414 22.2975 8.59965 22.212L10.7686 20.0431L10.1985 19.473L8.02956 21.6419C7.94513 21.7256 7.82866 21.7741 7.70968 21.7741C7.46054 21.7741 7.25767 21.5712 7.25767 21.3221C7.25767 21.2011 7.30447 21.0879 7.38998 21.0024L10.0234 18.369C10.2653 18.127 10.663 18.0779 10.956 18.2541L12.4701 19.1626C12.6803 19.2881 12.9206 19.3547 13.1649 19.3547C13.9096 19.3547 14.5157 18.7491 14.5157 18.0043V17.8635C14.5157 17.3945 14.2782 16.9663 13.881 16.7182L12.2476 15.6977L12.6476 15.4977C12.8888 15.3771 13.1464 15.3069 13.4149 15.2893L18.6361 14.9413L19.8143 18.7122L18.0914 20.0906ZM24.1932 12.1127V19.3547H20.8605L19.0561 13.5805L24.1932 12.1127ZM18.5481 9.67717V10.5364L16.0493 8.87072L18.5481 7.20505V8.06427H24.1932V9.67717H18.5481Z" fill="#3B3B3B"/>
</svg>
