<svg width="65" height="65" viewBox="0 0 65 65" fill="none" xmlns="http://www.w3.org/2000/svg">
<circle cx="32.5" cy="32.5" r="32.5" fill="#425066"/>
<path d="M14.778 13.4514C13.0724 13.4514 12.1815 14.3571 11.7551 15.2093C11.3289 16.0618 11.3345 16.8962 11.3345 16.8962V41.6658C11.3345 41.6658 11.3293 42.5001 11.7551 43.3523C12.1815 44.2048 13.0656 45.1093 14.778 45.1093H25.7853V43.733H14.778C13.7637 43.733 13.2469 43.2608 12.9852 42.737C12.7231 42.2129 12.7108 41.6658 12.7108 41.6658V16.8962C12.7108 16.8962 12.7228 16.349 12.9852 15.825C13.2469 15.3008 13.7228 14.829 14.778 14.829H50.5604C51.5966 14.829 52.0916 15.3009 52.3536 15.825C52.6154 16.3491 52.6237 16.8962 52.6237 16.8962V41.6658C52.6237 41.6658 52.6154 42.2129 52.3536 42.737C52.0916 43.2608 51.6 43.733 50.5604 43.733H39.5484V45.1093H50.5604C52.2639 45.1093 53.1573 44.2048 53.5834 43.3523C54.0095 42.5001 54 41.6658 54 41.6658V16.8962C54 16.8962 54.0095 16.0618 53.5834 15.2093C53.1573 14.3571 52.2618 13.4514 50.5604 13.4514H14.778Z" fill="white"/>
<path d="M12.0225 21.0276V22.399H53.3116V21.0276H12.0225Z" fill="white"/>
<path d="M15.4614 16.8975C15.0829 16.899 14.7769 17.2053 14.7754 17.5835C14.7739 17.9635 15.0811 18.2728 15.4614 18.2744H16.838C17.2202 18.2756 17.5302 17.9656 17.5289 17.5835C17.5274 17.2031 17.218 16.8962 16.838 16.8975H15.4614Z" fill="white"/>
<path d="M19.592 16.8975C19.2138 16.899 18.9075 17.2053 18.9063 17.5835C18.9047 17.9635 19.2116 18.2728 19.592 18.2744H20.9686C21.3489 18.2729 21.6558 17.9635 21.6543 17.5835C21.653 17.2053 21.3468 16.899 20.9686 16.8975H19.592Z" fill="white"/>
<path d="M23.7217 16.8975C23.3414 16.8959 23.032 17.2031 23.0308 17.5832C23.0292 17.9653 23.3395 18.2756 23.7217 18.2741L25.0983 18.2744C25.4786 18.2729 25.7855 17.9635 25.7843 17.5835C25.7828 17.2053 25.4765 16.899 25.0983 16.8975L23.7217 16.8975Z" fill="white"/>
<path d="M29.0098 27.9413L24.0518 29.5922C23.0671 29.9207 22.2973 30.6954 21.9689 31.6804L20.0387 37.4612C19.6925 38.4998 20.3176 39.6341 21.3797 39.8995L25.6164 40.9612L25.9516 39.6252L21.7149 38.5687C21.4107 38.4925 21.2451 38.1957 21.3444 37.898L23.2746 32.1172C23.4663 31.5421 23.9139 31.0896 24.4887 30.8979L28.7393 29.4863C28.9632 29.9714 29.401 30.3925 29.8732 30.6847C30.6289 31.152 31.6022 31.4112 32.6669 31.4112C33.732 31.4112 34.705 31.152 35.4607 30.6847C35.9323 30.3935 36.363 29.9713 36.5962 29.4866L40.8458 30.8979C41.4206 31.0896 41.8682 31.5421 42.06 32.1172L43.9902 37.898C44.0894 38.1957 43.9238 38.4925 43.6194 38.5687L39.3826 39.6252L39.7129 40.9612L43.9546 39.8995C45.0166 39.6341 45.6418 38.4998 45.2956 37.4612L43.3657 31.6804C43.0373 30.6955 42.2625 29.9207 41.2779 29.5922L36.325 27.9413C35.8789 27.7938 35.4196 28.1269 35.4208 28.5966C35.4208 28.8829 35.2298 29.2085 34.7401 29.5108C34.2507 29.8135 33.5027 30.034 32.6676 30.034C31.8323 30.034 31.0845 29.8134 30.5951 29.5108C30.1051 29.2085 29.914 28.8832 29.914 28.5969C29.9153 28.1269 29.4559 27.7938 29.0098 27.9413Z" fill="white"/>
<path d="M25.7837 35.4746C25.4033 35.4762 25.0961 35.7855 25.0977 36.1655V49.2412C25.0977 50.7533 26.3388 51.9945 27.8509 51.9945H37.4819C38.994 51.9945 40.2351 50.7533 40.2351 49.2412L40.2354 36.1655C40.237 35.7852 39.9298 35.4758 39.5497 35.4746C39.1676 35.4731 38.8573 35.7834 38.8588 36.1655V49.2412C38.8588 50.0096 38.2505 50.6178 37.4822 50.6178L27.8512 50.6181C27.0829 50.6181 26.4746 50.0099 26.4746 49.2415L26.4743 36.1658C26.4758 35.7837 26.1655 35.4734 25.7834 35.4749L25.7837 35.4746Z" fill="white"/>
</svg>
