<svg width="28" height="28" viewBox="0 0 28 28" fill="none" xmlns="http://www.w3.org/2000/svg">
<path d="M24.4038 9.49048H25.3077V17.1732H24.4038V9.49048Z" fill="#3B3B3B"/>
<path d="M21.6924 9.49048H22.5962V17.1732H21.6924V9.49048Z" fill="#3B3B3B"/>
<path d="M16.2689 17.6252V16.7214C16.0194 16.7214 15.817 16.519 15.817 16.2695C15.817 16.0199 16.0194 15.8175 16.2689 15.8175V14.9137H10.3939C10.1443 14.9137 9.94197 14.7113 9.94197 14.4617C9.94197 14.2122 10.1443 14.0098 10.3939 14.0098H16.7209C16.9281 14.0098 17.1088 13.8688 17.1593 13.6676L18.0631 10.0522C18.0968 9.91727 18.0665 9.77423 17.981 9.66448C17.8953 9.55472 17.7639 9.49056 17.6247 9.49056H9.84229L9.47632 8.02503C9.42588 7.82389 9.24511 7.68286 9.03791 7.68286H7.68213V8.58671H8.68504L9.05163 10.0522L9.8447 13.2244H9.84449C9.54368 13.3568 9.30136 13.5944 9.16299 13.8926C9.02479 14.191 9.00018 14.5294 9.09358 14.8447C9.1872 15.1599 9.39238 15.4302 9.67102 15.6047C9.5538 15.8067 9.49125 16.0359 9.48984 16.2695C9.48984 16.7539 9.74829 17.2014 10.1677 17.4437C10.5872 17.6858 11.1041 17.6858 11.5235 17.4437C11.943 17.2014 12.2014 16.7539 12.2014 16.2695C12.2 16.1152 12.1717 15.9622 12.1183 15.8176H14.9961C14.9426 15.9622 14.9144 16.1152 14.913 16.2695C14.913 16.629 15.0558 16.974 15.31 17.2282C15.5642 17.4824 15.9092 17.6253 16.2687 17.6253L16.2689 17.6252ZM15.3651 10.3944H17.0459L16.8199 11.2983H15.3651V10.3944ZM15.3651 12.2021H16.594L16.368 13.106H15.3651V12.2021ZM12.6535 10.3944H14.4612V11.2983H12.6535V10.3944ZM12.6535 12.2021H14.4612V13.106H12.6535V12.2021ZM11.7497 13.106H10.7468L10.5208 12.2021H11.7497V13.106ZM11.7497 10.3944V11.2983H10.2948L10.0689 10.3944H11.7497ZM10.8458 16.7214C10.663 16.7214 10.4982 16.6112 10.4284 16.4424C10.3584 16.2735 10.3969 16.0792 10.5262 15.9499C10.6556 15.8205 10.8499 15.782 11.0187 15.852C11.1876 15.9218 11.2977 16.0867 11.2977 16.2695C11.2977 16.3893 11.2501 16.5043 11.1654 16.589C11.0807 16.6738 10.9657 16.7214 10.8458 16.7214Z" fill="#3B3B3B"/>
<path d="M27.1154 26.6636V19.7231C27.1205 19.3234 26.9786 18.9359 26.7168 18.634C26.4549 18.332 26.0913 18.1365 25.6951 18.0849C25.2498 18.0399 24.8066 18.1855 24.4749 18.4857C24.4515 18.5069 24.4297 18.5309 24.4057 18.5521C24.1134 18.2517 23.7133 18.0802 23.2941 18.0758C22.8748 18.0713 22.4713 18.2344 22.1727 18.5287H22.1158C21.8858 18.3021 21.5917 18.152 21.2733 18.0986C20.9552 18.0449 20.6279 18.0907 20.3366 18.2295V15.6558C20.3416 15.2561 20.1998 14.8685 19.9379 14.5667C19.676 14.2647 19.3125 14.0692 18.9163 14.0175C18.471 13.9719 18.0271 14.117 17.6949 14.417C17.3628 14.717 17.1731 15.1435 17.1731 15.5912V21.8277L16.1595 20.6436C15.8004 20.2149 15.2399 20.0103 14.6893 20.107C14.1385 20.2036 13.6811 20.5865 13.4895 21.1119C13.2977 21.6371 13.4008 22.2248 13.7597 22.6533L17.2752 26.9492C17.3611 27.0541 17.4895 27.1153 17.625 27.1153H26.6635C26.7834 27.1153 26.8984 27.0677 26.9831 26.9829C27.0679 26.8982 27.1154 26.7835 27.1154 26.6636ZM26.2116 26.2117H17.8393L14.4616 22.081C14.2362 21.8006 14.2766 21.3913 14.5526 21.16C14.8286 20.929 15.2387 20.9611 15.4752 21.2324L17.2829 23.3426C17.4062 23.4854 17.6053 23.5364 17.782 23.4709C17.959 23.4053 18.0766 23.2368 18.077 23.0482V15.5912C18.077 15.3989 18.1585 15.2157 18.3013 15.0872C18.4444 14.9585 18.635 14.8967 18.8263 14.9169C19.1856 14.9754 19.4455 15.292 19.4328 15.6557V19.6585C19.4328 19.9081 19.6351 20.1104 19.8847 20.1104C20.1343 20.1104 20.3366 19.9081 20.3366 19.6585C20.3366 19.2841 20.6401 18.9806 21.0145 18.9806C21.389 18.9806 21.6924 19.2841 21.6924 19.6585C21.6924 19.9081 21.8948 20.1104 22.1443 20.1104C22.3939 20.1104 22.5962 19.9081 22.5962 19.6585C22.5962 19.2841 22.8997 18.9806 23.2741 18.9806C23.6486 18.9806 23.952 19.2841 23.952 19.6585C23.952 19.9081 24.1544 20.1104 24.404 20.1104C24.6535 20.1104 24.8559 19.9081 24.8559 19.6585C24.8559 19.4662 24.9374 19.2831 25.0802 19.1545C25.2233 19.0258 25.4139 18.9641 25.6052 18.9843C25.9645 19.0428 26.2243 19.3593 26.2116 19.7231L26.2116 26.2117Z" fill="#3B3B3B"/>
<path d="M0.903693 15.5789C0.90107 14.7926 1.22912 14.0413 1.80754 13.5087V16.7214C1.80754 16.9084 1.92295 17.0761 2.09746 17.1433C2.27218 17.2102 2.4701 17.1626 2.59519 17.0238L5.7393 13.5321C5.89687 13.3562 6.12041 13.2531 6.35666 13.2474C6.59291 13.2382 6.8219 13.3298 6.98651 13.4992C7.13601 13.6485 7.22498 13.8479 7.23669 14.0587C7.24839 14.2697 7.18181 14.4775 7.04986 14.6426L4.16802 18.2449C4.03224 18.4143 4.03628 18.6562 4.1775 18.8211L4.39398 19.0732C4.99523 19.7806 5.30894 20.6879 5.2732 21.6155C5.23769 22.5432 4.85517 23.4237 4.20128 24.0828C4.11554 24.1677 4.06712 24.2835 4.06712 24.4042V27.1158H4.97097V24.585C5.59561 23.8986 5.99888 23.0399 6.12862 22.121C6.25814 21.202 6.10804 20.2654 5.69767 19.433H16.2691V18.5292H5.11301L5.10575 18.5197L7.75393 15.2089H7.75413C8.10942 14.7707 8.23289 14.1888 8.08602 13.6441C7.93934 13.0996 7.5403 12.6583 7.01312 12.4578C6.48594 12.2572 5.89462 12.322 5.42311 12.6315V4.97148H12.6539V4.06763H4.06734C3.46832 4.06843 2.89393 4.3067 2.47026 4.73018C2.04678 5.15385 1.80853 5.72823 1.80771 6.32726V12.397C0.685176 13.0638 -0.00221553 14.2735 5.36534e-06 15.579V27.1158H0.903857L0.903693 15.5789ZM2.7114 12.6541V6.3271C2.7114 5.96758 2.85424 5.62256 3.10844 5.3684C3.36265 5.11423 3.70767 4.97135 4.06715 4.97135H4.51907V13.5347L2.71137 15.5436L2.7114 12.6541Z" fill="#3B3B3B"/>
<path d="M15.3653 8.58659H25.3077C25.787 8.58659 26.2469 8.39613 26.586 8.05719C26.9249 7.71804 27.1154 7.25824 27.1154 6.77889V1.8077C27.1154 1.32834 26.9249 0.868524 26.586 0.529399C26.2468 0.190454 25.787 0 25.3077 0H15.3653C14.886 0 14.4261 0.190454 14.087 0.529399C13.7481 0.868544 13.5576 1.32835 13.5576 1.8077V6.77889C13.5576 7.25825 13.7481 7.71806 14.087 8.05719C14.4262 8.39613 14.886 8.58659 15.3653 8.58659ZM14.4615 1.8077C14.4615 1.56802 14.5567 1.33802 14.7262 1.16855C14.8956 0.999081 15.1256 0.903851 15.3653 0.903851H25.3077C25.5474 0.903851 25.7774 0.999081 25.9468 1.16855C26.1163 1.33802 26.2115 1.56802 26.2115 1.8077V6.77889C26.2115 7.01857 26.1163 7.24857 25.9468 7.41804C25.7774 7.58751 25.5474 7.68274 25.3077 7.68274H15.3653C15.1256 7.68274 14.8956 7.58751 14.7262 7.41804C14.5567 7.24857 14.4615 7.01857 14.4615 6.77889V1.8077Z" fill="#3B3B3B"/>
<path d="M15.8172 1.80762H16.721C16.9706 1.80762 17.1729 2.05718 17.1729 2.25954V3.16339C17.1729 3.41296 16.9706 3.61532 16.721 3.61532H15.8172C15.5676 3.61532 15.3652 3.36575 15.3652 3.16339V2.25954C15.3652 2.00998 15.5676 1.80762 15.8172 1.80762Z" fill="#3B3B3B"/>
<path d="M20.7886 5.42304C20.787 5.77449 20.9228 6.11281 21.1667 6.36604C21.4108 6.61904 21.7439 6.76692 22.0952 6.77822C22.4466 6.78952 22.7886 6.66322 23.0482 6.42637C23.3089 6.66322 23.6513 6.78932 24.0031 6.77822C24.3552 6.76693 24.6889 6.61924 24.934 6.36644C25.1789 6.11345 25.3159 5.77512 25.3159 5.42303C25.3159 5.07094 25.1789 4.73264 24.934 4.47962C24.6888 4.22682 24.3551 4.07914 24.0031 4.06784C23.6513 4.05674 23.3089 4.18284 23.0482 4.41969C22.7886 4.18284 22.4466 4.05654 22.0952 4.06784C21.7439 4.07913 21.4108 4.22702 21.1667 4.48002C20.9228 4.73322 20.787 5.07157 20.7886 5.42304ZM23.9521 4.97111C24.1349 4.97111 24.2997 5.08127 24.3695 5.25014C24.4395 5.419 24.401 5.61329 24.2716 5.74262C24.1423 5.87194 23.948 5.91047 23.7792 5.84046C23.6103 5.77066 23.5001 5.60582 23.5001 5.42304C23.5001 5.17347 23.7025 4.97111 23.9521 4.97111ZM22.1444 4.97111C22.3272 4.97111 22.492 5.08127 22.5618 5.25014C22.6318 5.419 22.5933 5.61329 22.4639 5.74262C22.3346 5.87194 22.1403 5.91047 21.9715 5.84046C21.8026 5.77066 21.6924 5.60582 21.6924 5.42304C21.6924 5.17347 21.8948 4.97111 22.1444 4.97111Z" fill="#3B3B3B"/>
<path d="M15.3652 5.875H16.2691V6.77885H15.3652V5.875Z" fill="#3B3B3B"/>
<path d="M17.1729 5.875H18.0767V6.77885H17.1729V5.875Z" fill="#3B3B3B"/>
<path d="M18.981 5.875H19.8848V6.77885H18.981V5.875Z" fill="#3B3B3B"/>
<path d="M23.9521 1.80762H24.856V2.71147H23.9521V1.80762Z" fill="#3B3B3B"/>
<path d="M22.144 1.80762H23.0479V2.71147H22.144V1.80762Z" fill="#3B3B3B"/>
<path d="M20.3364 1.80762H21.2403V2.71147H20.3364V1.80762Z" fill="#3B3B3B"/>
<path d="M6.77881 5.875H7.68266V6.77885H6.77881V5.875Z" fill="#3B3B3B"/>
<path d="M8.58643 5.875H9.49028V6.77885H8.58643V5.875Z" fill="#3B3B3B"/>
<path d="M10.394 5.875H11.2979V6.77885H10.394V5.875Z" fill="#3B3B3B"/>
</svg>
