<svg width="19" height="28" viewBox="0 0 19 28" fill="none" xmlns="http://www.w3.org/2000/svg">
<path d="M12.7527 2.53316C12.9862 2.53316 13.1749 2.34392 13.1749 2.11094C13.1749 1.87797 12.9862 1.68872 12.7527 1.68872H11.0423C10.8088 1.68872 10.6201 1.87797 10.6201 2.11094C10.6201 2.34392 10.8088 2.53316 11.0423 2.53316H12.7527Z" fill="#3B3B3B"/>
<path d="M9.46842 6.33816L8.74311 5.61285C8.66414 5.53331 8.55688 5.48901 8.44454 5.48901H8.02232C7.78878 5.48901 7.6001 5.67826 7.6001 5.91124C7.6001 6.14421 7.78878 6.33346 8.02232 6.33346H8.26981L8.87149 6.93514C8.87017 6.9504 8.86678 6.96473 8.86678 6.97981V10.7148C8.86678 10.9183 8.96422 11.1125 9.12822 11.2341C9.1776 11.2705 9.23245 11.2961 9.289 11.3168V11.3743C9.289 11.8452 9.66561 12.228 10.1334 12.2416V12.6668C10.1334 12.8998 10.3221 13.089 10.5557 13.089C10.7892 13.089 10.9779 12.8998 10.9779 12.6668V12.2446H13.089V12.6668C13.089 12.8998 13.2777 13.089 13.5112 13.089C13.7448 13.089 13.9334 12.8998 13.9334 12.6668V12.2446H14.3557C14.5892 12.2446 14.7779 12.0553 14.7779 11.8224C14.7779 11.5894 14.5892 11.4001 14.3557 11.4001L10.1334 11.3749V11.2026L15.1634 9.67547C15.4379 9.59215 15.6224 9.34353 15.6224 9.05685V6.98043C15.6224 6.62362 15.3323 6.33354 14.9761 6.33354H9.51322C9.49814 6.33354 9.48381 6.33693 9.46855 6.33825L9.46842 6.33816ZM14.7778 8.90976L9.71114 10.4479V7.17787H14.7778V8.90976Z" fill="#3B3B3B"/>
<path d="M4.61071 16.9785C3.91953 17.2026 3.34275 17.7136 3.02871 18.3807L0.0401488 24.7314C0.0135715 24.7879 0 24.8492 0 24.9112V26.6001C0 26.8331 0.188683 27.0223 0.422222 27.0223H7.17778C7.22848 27.0223 7.27862 27.0135 7.32631 26.9957L10.6771 25.7379L14.2368 24.6701C14.8129 24.4975 15.2 23.9769 15.2 23.3748V23.2223H17.0619C18.1305 23.2223 19 22.385 19 21.356V1.86627C19 0.837303 18.1307 0 17.0619 0H6.58262C5.51389 0 4.64454 0.837303 4.64454 1.86627V15.622C4.64454 15.855 4.83323 16.0442 5.06677 16.0442C5.30031 16.0442 5.48899 15.855 5.48899 15.622V1.86627C5.48899 1.30247 5.97964 0.844444 6.58262 0.844444H17.0624C17.6652 0.844444 18.1558 1.30248 18.1558 1.86627V18.8382L16.8701 20.2666H13.9336C13.7001 20.2666 13.5114 20.4558 13.5114 20.6888C13.5114 20.9218 13.7001 21.111 13.9336 21.111H17.0581C17.1776 21.111 17.292 21.0603 17.3717 20.9713L18.1558 20.1001V21.3558C18.1558 21.919 17.6652 22.3776 17.0622 22.3776H14.9926C14.716 21.8768 14.189 21.5332 13.5778 21.5332H11.8416L13.1552 19.8443H14.3559C14.5894 19.8443 14.7781 19.6551 14.7781 19.4221C14.7781 19.1891 14.5894 18.9999 14.3559 18.9999H13.8117L15.1261 17.3102C15.6096 16.6891 15.5541 15.8012 14.9977 15.2447L14.8284 15.0751C14.2183 14.4662 13.2261 14.4659 12.6169 15.0751L11.6774 16.0149C11.5164 15.9551 11.4003 15.8032 11.4003 15.6221V14.7776C11.4003 14.545 11.5896 14.3554 11.8226 14.3554H15.6226C15.8555 14.3554 16.0448 14.545 16.0448 14.7776V15.6221C16.0448 15.8551 16.2335 16.0443 16.467 16.0443C16.7005 16.0443 16.8892 15.8551 16.8892 15.6221V14.7776C16.8892 14.0793 16.3209 13.511 15.6226 13.511H11.8226C11.1242 13.511 10.5559 14.0793 10.5559 14.7776V15.6221C10.5559 16.0345 10.7568 16.3977 11.0629 16.629L10.17 17.5221C8.71717 15.9663 6.10615 16.4935 4.61119 16.9783L4.61071 16.9785ZM9.78209 18.3899C9.85221 18.4954 9.96625 18.5635 10.0916 18.5757C10.2213 18.5893 10.3429 18.5433 10.4318 18.4542L13.2134 15.6726C13.4937 15.3923 13.951 15.3923 14.2305 15.6722L14.3998 15.8415C14.6556 16.0972 14.6814 16.5061 14.4594 16.7915L10.6446 21.696C10.5459 21.8231 10.5278 21.9957 10.5986 22.1407C10.6697 22.2858 10.8165 22.3778 10.9779 22.3778H13.5776C14.0066 22.3778 14.3557 22.7269 14.3557 23.1555V23.3747C14.3557 23.6005 14.2103 23.7962 13.9943 23.8606L10.4075 24.9377L7.10101 26.1777H0.844401V25.0057L3.79243 18.7409C4.00768 18.284 4.40052 17.9349 4.87115 17.782C6.25468 17.3336 8.73276 16.8164 9.78195 18.3899L9.78209 18.3899Z" fill="#3B3B3B"/>
</svg>
